<?xml version="1.0" encoding="UTF-8"?>
<svg xmlns="http://www.w3.org/2000/svg" width="1280" height="880" viewBox="0 0 1280 880" role="img" aria-labelledby="title desc">
<title id="title">Gaia AI Agent Skill Graph</title>
<desc id="desc">Canonical Gaia skill graph rendered from registry/gaia.json, with basic skills on the outer ring, extra skills in the middle ring, and ultimate skills at the core.</desc>
<defs>
<radialGradient id="bg" cx="50%" cy="45%" r="70%"><stop offset="0%" stop-color="#172554"/><stop offset="55%" stop-color="#06111f"/><stop offset="100%" stop-color="#030712"/></radialGradient>
<filter id="glow" x="-50%" y="-50%" width="200%" height="200%"><feGaussianBlur stdDeviation="4" result="blur"/><feMerge><feMergeNode in="blur"/><feMergeNode in="SourceGraphic"/></feMerge></filter>
</defs>
<rect width="1280" height="880" fill="url(#bg)"/>
<g opacity="0.32" stroke="#334155" stroke-width="1" fill="none">
<circle cx="640.0" cy="440.0" r="285"/>
<circle cx="640.0" cy="440.0" r="170"/>
<circle cx="640.0" cy="440.0" r="54"/>
</g>
<g class="edges" fill="none">
<line x1="615.034" y1="723.904" x2="553.108" y2="586.116" stroke="#a78bfa" stroke-opacity="0.32" stroke-width="1.15"/>
<line x1="872.873" y1="604.301" x2="553.108" y2="586.116" stroke="#a78bfa" stroke-opacity="0.32" stroke-width="1.15"/>
<line x1="898.967" y1="559.0" x2="553.108" y2="586.116" stroke="#a78bfa" stroke-opacity="0.32" stroke-width="1.15"/>
<line x1="615.034" y1="723.904" x2="687.823" y2="603.135" stroke="#a78bfa" stroke-opacity="0.32" stroke-width="1.15"/>
<line x1="825.952" y1="224.021" x2="687.823" y2="603.135" stroke="#a78bfa" stroke-opacity="0.32" stroke-width="1.15"/>
<line x1="920.238" y1="388.117" x2="687.823" y2="603.135" stroke="#a78bfa" stroke-opacity="0.32" stroke-width="1.15"/>
<line x1="687.823" y1="603.135" x2="509.749" y2="549.246" stroke="#a78bfa" stroke-opacity="0.32" stroke-width="1.15"/>
<line x1="592.261" y1="720.973" x2="509.749" y2="549.246" stroke="#a78bfa" stroke-opacity="0.32" stroke-width="1.15"/>
<line x1="898.259" y1="319.471" x2="509.749" y2="549.246" stroke="#a78bfa" stroke-opacity="0.32" stroke-width="1.15"/>
<line x1="923.968" y1="415.765" x2="524.049" y2="564.32" stroke="#a78bfa" stroke-opacity="0.32" stroke-width="1.15"/>
<line x1="906.98" y1="539.733" x2="524.049" y2="564.32" stroke="#a78bfa" stroke-opacity="0.32" stroke-width="1.15"/>
<line x1="920.442" y1="490.766" x2="524.049" y2="564.32" stroke="#a78bfa" stroke-opacity="0.32" stroke-width="1.15"/>
<line x1="762.638" y1="697.264" x2="476.399" y2="393.796" stroke="#a78bfa" stroke-opacity="0.32" stroke-width="1.15"/>
<line x1="819.988" y1="660.974" x2="476.399" y2="393.796" stroke="#a78bfa" stroke-opacity="0.32" stroke-width="1.15"/>
<line x1="662.373" y1="724.121" x2="476.399" y2="393.796" stroke="#a78bfa" stroke-opacity="0.32" stroke-width="1.15"/>
<line x1="553.108" y1="586.116" x2="485.093" y2="510.028" stroke="#a78bfa" stroke-opacity="0.32" stroke-width="1.15"/>
<line x1="898.967" y1="559.0" x2="485.093" y2="510.028" stroke="#a78bfa" stroke-opacity="0.32" stroke-width="1.15"/>
<line x1="923.788" y1="466.261" x2="485.093" y2="510.028" stroke="#a78bfa" stroke-opacity="0.32" stroke-width="1.15"/>
<line x1="779.499" y1="688.526" x2="729.185" y2="584.727" stroke="#a78bfa" stroke-opacity="0.32" stroke-width="1.15"/>
<line x1="914.249" y1="362.461" x2="729.185" y2="584.727" stroke="#a78bfa" stroke-opacity="0.32" stroke-width="1.15"/>
<line x1="923.788" y1="466.261" x2="729.185" y2="584.727" stroke="#a78bfa" stroke-opacity="0.32" stroke-width="1.15"/>
<line x1="739.152" y1="707.196" x2="729.185" y2="584.727" stroke="#a78bfa" stroke-opacity="0.32" stroke-width="1.15"/>
<line x1="860.637" y1="259.599" x2="729.185" y2="584.727" stroke="#a78bfa" stroke-opacity="0.32" stroke-width="1.15"/>
<line x1="806.527" y1="671.287" x2="729.185" y2="584.727" stroke="#a78bfa" stroke-opacity="0.32" stroke-width="1.15"/>
<line x1="857.419" y1="624.266" x2="809.905" y2="434.308" stroke="#a78bfa" stroke-opacity="0.32" stroke-width="1.15"/>
<line x1="898.967" y1="559.0" x2="809.905" y2="434.308" stroke="#a78bfa" stroke-opacity="0.32" stroke-width="1.15"/>
<line x1="825.952" y1="224.021" x2="809.905" y2="434.308" stroke="#a78bfa" stroke-opacity="0.32" stroke-width="1.15"/>
<line x1="692.681" y1="159.911" x2="809.905" y2="434.308" stroke="#a78bfa" stroke-opacity="0.32" stroke-width="1.15"/>
<line x1="524.049" y1="564.32" x2="586.445" y2="446.917" stroke="#fbbf24" stroke-opacity="0.32" stroke-width="1.15"/>
<line x1="914.335" y1="517.236" x2="586.445" y2="446.917" stroke="#fbbf24" stroke-opacity="0.32" stroke-width="1.15"/>
<line x1="476.399" y1="393.796" x2="586.445" y2="446.917" stroke="#fbbf24" stroke-opacity="0.32" stroke-width="1.15"/>
<line x1="476.399" y1="393.796" x2="661.846" y2="489.384" stroke="#fbbf24" stroke-opacity="0.32" stroke-width="1.15"/>
<line x1="762.638" y1="697.264" x2="661.846" y2="489.384" stroke="#fbbf24" stroke-opacity="0.32" stroke-width="1.15"/>
<line x1="662.373" y1="724.121" x2="661.846" y2="489.384" stroke="#fbbf24" stroke-opacity="0.32" stroke-width="1.15"/>
<line x1="687.823" y1="603.135" x2="602.416" y2="401.226" stroke="#fbbf24" stroke-opacity="0.32" stroke-width="1.15"/>
<line x1="485.093" y1="510.028" x2="602.416" y2="401.226" stroke="#fbbf24" stroke-opacity="0.32" stroke-width="1.15"/>
<line x1="509.749" y1="549.246" x2="602.416" y2="401.226" stroke="#fbbf24" stroke-opacity="0.32" stroke-width="1.15"/>
<line x1="761.636" y1="182.26" x2="797.727" y2="376.578" stroke="#a78bfa" stroke-opacity="0.32" stroke-width="1.15"/>
<line x1="365.442" y1="516.438" x2="797.727" y2="376.578" stroke="#a78bfa" stroke-opacity="0.32" stroke-width="1.15"/>
<line x1="762.638" y1="697.264" x2="797.727" y2="376.578" stroke="#a78bfa" stroke-opacity="0.32" stroke-width="1.15"/>
<line x1="435.853" y1="638.869" x2="652.079" y2="609.57" stroke="#a78bfa" stroke-opacity="0.32" stroke-width="1.15"/>
<line x1="857.419" y1="624.266" x2="652.079" y2="609.57" stroke="#a78bfa" stroke-opacity="0.32" stroke-width="1.15"/>
<line x1="692.681" y1="159.911" x2="652.079" y2="609.57" stroke="#a78bfa" stroke-opacity="0.32" stroke-width="1.15"/>
<line x1="923.968" y1="415.765" x2="778.17" y2="340.96" stroke="#a78bfa" stroke-opacity="0.32" stroke-width="1.15"/>
<line x1="924.986" y1="437.219" x2="778.17" y2="340.96" stroke="#a78bfa" stroke-opacity="0.32" stroke-width="1.15"/>
<line x1="914.335" y1="517.236" x2="778.17" y2="340.96" stroke="#a78bfa" stroke-opacity="0.32" stroke-width="1.15"/>
<line x1="435.853" y1="638.869" x2="804.198" y2="395.965" stroke="#a78bfa" stroke-opacity="0.32" stroke-width="1.15"/>
<line x1="479.234" y1="675.328" x2="804.198" y2="395.965" stroke="#a78bfa" stroke-opacity="0.32" stroke-width="1.15"/>
<line x1="825.952" y1="224.021" x2="804.198" y2="395.965" stroke="#a78bfa" stroke-opacity="0.32" stroke-width="1.15"/>
<line x1="393.447" y1="297.043" x2="570.606" y2="595.192" stroke="#a78bfa" stroke-opacity="0.32" stroke-width="1.15"/>
<line x1="761.636" y1="182.26" x2="570.606" y2="595.192" stroke="#a78bfa" stroke-opacity="0.32" stroke-width="1.15"/>
<line x1="406.304" y1="276.871" x2="570.606" y2="595.192" stroke="#a78bfa" stroke-opacity="0.32" stroke-width="1.15"/>
<line x1="422.22" y1="623.839" x2="753.422" y2="313.369" stroke="#a78bfa" stroke-opacity="0.32" stroke-width="1.15"/>
<line x1="906.98" y1="539.733" x2="753.422" y2="313.369" stroke="#a78bfa" stroke-opacity="0.32" stroke-width="1.15"/>
<line x1="920.442" y1="490.766" x2="753.422" y2="313.369" stroke="#a78bfa" stroke-opacity="0.32" stroke-width="1.15"/>
<line x1="644.047" y1="155.029" x2="787.268" y2="355.075" stroke="#a78bfa" stroke-opacity="0.32" stroke-width="1.15"/>
<line x1="779.438" y1="191.44" x2="787.268" y2="355.075" stroke="#a78bfa" stroke-opacity="0.32" stroke-width="1.15"/>
<line x1="898.967" y1="559.0" x2="787.268" y2="355.075" stroke="#a78bfa" stroke-opacity="0.32" stroke-width="1.15"/>
<line x1="393.693" y1="583.38" x2="741.18" y2="576.611" stroke="#a78bfa" stroke-opacity="0.32" stroke-width="1.15"/>
<line x1="761.636" y1="182.26" x2="741.18" y2="576.611" stroke="#a78bfa" stroke-opacity="0.32" stroke-width="1.15"/>
<line x1="886.71" y1="582.685" x2="741.18" y2="576.611" stroke="#a78bfa" stroke-opacity="0.32" stroke-width="1.15"/>
<line x1="875.087" y1="278.881" x2="607.616" y2="606.887" stroke="#a78bfa" stroke-opacity="0.32" stroke-width="1.15"/>
<line x1="779.438" y1="191.44" x2="607.616" y2="606.887" stroke="#a78bfa" stroke-opacity="0.32" stroke-width="1.15"/>
<line x1="898.259" y1="319.471" x2="607.616" y2="606.887" stroke="#a78bfa" stroke-opacity="0.32" stroke-width="1.15"/>
<line x1="842.151" y1="640.898" x2="809.275" y2="455.684" stroke="#a78bfa" stroke-opacity="0.32" stroke-width="1.15"/>
<line x1="898.967" y1="559.0" x2="809.275" y2="455.684" stroke="#a78bfa" stroke-opacity="0.32" stroke-width="1.15"/>
<line x1="692.681" y1="159.911" x2="809.275" y2="455.684" stroke="#a78bfa" stroke-opacity="0.32" stroke-width="1.15"/>
<line x1="778.17" y1="340.96" x2="692.13" y2="454.088" stroke="#fbbf24" stroke-opacity="0.32" stroke-width="1.15"/>
<line x1="753.422" y1="313.369" x2="692.13" y2="454.088" stroke="#fbbf24" stroke-opacity="0.32" stroke-width="1.15"/>
<line x1="355.767" y1="419.099" x2="692.13" y2="454.088" stroke="#fbbf24" stroke-opacity="0.32" stroke-width="1.15"/>
<line x1="804.198" y1="395.965" x2="644.037" y2="386.151" stroke="#fbbf24" stroke-opacity="0.32" stroke-width="1.15"/>
<line x1="371.206" y1="534.735" x2="644.037" y2="386.151" stroke="#fbbf24" stroke-opacity="0.32" stroke-width="1.15"/>
<line x1="687.823" y1="603.135" x2="644.037" y2="386.151" stroke="#fbbf24" stroke-opacity="0.32" stroke-width="1.15"/>
<line x1="570.606" y1="595.192" x2="618.356" y2="489.473" stroke="#fbbf24" stroke-opacity="0.32" stroke-width="1.15"/>
<line x1="365.442" y1="516.438" x2="618.356" y2="489.473" stroke="#fbbf24" stroke-opacity="0.32" stroke-width="1.15"/>
<line x1="476.399" y1="393.796" x2="618.356" y2="489.473" stroke="#fbbf24" stroke-opacity="0.32" stroke-width="1.15"/>
<line x1="687.823" y1="603.135" x2="501.006" y2="342.119" stroke="#a78bfa" stroke-opacity="0.32" stroke-width="1.15"/>
<line x1="923.968" y1="415.765" x2="501.006" y2="342.119" stroke="#a78bfa" stroke-opacity="0.32" stroke-width="1.15"/>
<line x1="906.98" y1="539.733" x2="501.006" y2="342.119" stroke="#a78bfa" stroke-opacity="0.32" stroke-width="1.15"/>
<line x1="779.499" y1="688.526" x2="660.44" y2="271.233" stroke="#a78bfa" stroke-opacity="0.32" stroke-width="1.15"/>
<line x1="920.238" y1="388.117" x2="660.44" y2="271.233" stroke="#a78bfa" stroke-opacity="0.32" stroke-width="1.15"/>
<line x1="914.335" y1="517.236" x2="660.44" y2="271.233" stroke="#a78bfa" stroke-opacity="0.32" stroke-width="1.15"/>
<line x1="569.865" y1="163.764" x2="680.566" y2="274.911" stroke="#a78bfa" stroke-opacity="0.32" stroke-width="1.15"/>
<line x1="779.499" y1="688.526" x2="680.566" y2="274.911" stroke="#a78bfa" stroke-opacity="0.32" stroke-width="1.15"/>
<line x1="660.44" y1="271.233" x2="792.387" y2="515.355" stroke="#a78bfa" stroke-opacity="0.32" stroke-width="1.15"/>
<line x1="501.006" y1="342.119" x2="792.387" y2="515.355" stroke="#a78bfa" stroke-opacity="0.32" stroke-width="1.15"/>
<line x1="453.955" y1="655.899" x2="792.387" y2="515.355" stroke="#a78bfa" stroke-opacity="0.32" stroke-width="1.15"/>
<line x1="689.202" y1="720.721" x2="800.118" y2="497.116" stroke="#a78bfa" stroke-opacity="0.32" stroke-width="1.15"/>
<line x1="566.038" y1="715.236" x2="800.118" y2="497.116" stroke="#a78bfa" stroke-opacity="0.32" stroke-width="1.15"/>
<line x1="662.373" y1="724.121" x2="800.118" y2="497.116" stroke="#a78bfa" stroke-opacity="0.32" stroke-width="1.15"/>
<line x1="819.988" y1="660.974" x2="705.465" y2="596.889" stroke="#a78bfa" stroke-opacity="0.32" stroke-width="1.15"/>
<line x1="638.66" y1="724.997" x2="705.465" y2="596.889" stroke="#a78bfa" stroke-opacity="0.32" stroke-width="1.15"/>
<line x1="615.034" y1="723.904" x2="764.195" y2="323.915" stroke="#a78bfa" stroke-opacity="0.32" stroke-width="1.15"/>
<line x1="500.737" y1="688.658" x2="764.195" y2="323.915" stroke="#a78bfa" stroke-opacity="0.32" stroke-width="1.15"/>
<line x1="898.967" y1="559.0" x2="756.524" y2="563.783" stroke="#a78bfa" stroke-opacity="0.32" stroke-width="1.15"/>
<line x1="886.71" y1="582.685" x2="756.524" y2="563.783" stroke="#a78bfa" stroke-opacity="0.32" stroke-width="1.15"/>
<line x1="405.597" y1="602.111" x2="678.526" y2="402.162" stroke="#fbbf24" stroke-opacity="0.32" stroke-width="1.15"/>
<line x1="687.823" y1="603.135" x2="678.526" y2="402.162" stroke="#fbbf24" stroke-opacity="0.32" stroke-width="1.15"/>
<line x1="371.206" y1="534.735" x2="678.526" y2="402.162" stroke="#fbbf24" stroke-opacity="0.32" stroke-width="1.15"/>
<line x1="908.962" y1="345.743" x2="579.465" y2="281.143" stroke="#a78bfa" stroke-opacity="0.32" stroke-width="1.15"/>
<line x1="819.988" y1="660.974" x2="579.465" y2="281.143" stroke="#a78bfa" stroke-opacity="0.32" stroke-width="1.15"/>
<line x1="914.335" y1="517.236" x2="491.185" y2="357.817" stroke="#a78bfa" stroke-opacity="0.32" stroke-width="1.15"/>
<line x1="737.176" y1="172.079" x2="491.185" y2="357.817" stroke="#a78bfa" stroke-opacity="0.32" stroke-width="1.15"/>
<line x1="923.968" y1="415.765" x2="562.414" y2="288.737" stroke="#a78bfa" stroke-opacity="0.32" stroke-width="1.15"/>
<line x1="638.66" y1="724.997" x2="562.414" y2="288.737" stroke="#a78bfa" stroke-opacity="0.32" stroke-width="1.15"/>
<line x1="779.499" y1="688.526" x2="782.463" y2="532.76" stroke="#a78bfa" stroke-opacity="0.32" stroke-width="1.15"/>
<line x1="920.238" y1="388.117" x2="782.463" y2="532.76" stroke="#a78bfa" stroke-opacity="0.32" stroke-width="1.15"/>
<line x1="914.335" y1="517.236" x2="782.463" y2="532.76" stroke="#a78bfa" stroke-opacity="0.32" stroke-width="1.15"/>
<line x1="713.017" y1="715.488" x2="470.16" y2="432.633" stroke="#a78bfa" stroke-opacity="0.32" stroke-width="1.15"/>
<line x1="914.335" y1="517.236" x2="470.16" y2="432.633" stroke="#a78bfa" stroke-opacity="0.32" stroke-width="1.15"/>
<line x1="908.962" y1="345.743" x2="470.16" y2="432.633" stroke="#a78bfa" stroke-opacity="0.32" stroke-width="1.15"/>
<line x1="914.335" y1="517.236" x2="770.092" y2="549.436" stroke="#a78bfa" stroke-opacity="0.32" stroke-width="1.15"/>
<line x1="644.047" y1="155.029" x2="770.092" y2="549.436" stroke="#a78bfa" stroke-opacity="0.32" stroke-width="1.15"/>
<line x1="689.202" y1="720.721" x2="770.092" y2="549.436" stroke="#a78bfa" stroke-opacity="0.32" stroke-width="1.15"/>
<line x1="914.335" y1="517.236" x2="735.067" y2="299.066" stroke="#a78bfa" stroke-opacity="0.32" stroke-width="1.15"/>
<line x1="739.152" y1="707.196" x2="735.067" y2="299.066" stroke="#a78bfa" stroke-opacity="0.32" stroke-width="1.15"/>
<line x1="819.988" y1="660.974" x2="618.254" y2="271.397" stroke="#a78bfa" stroke-opacity="0.32" stroke-width="1.15"/>
<line x1="638.66" y1="724.997" x2="618.254" y2="271.397" stroke="#a78bfa" stroke-opacity="0.32" stroke-width="1.15"/>
<line x1="566.038" y1="715.236" x2="618.254" y2="271.397" stroke="#a78bfa" stroke-opacity="0.32" stroke-width="1.15"/>
<line x1="638.66" y1="724.997" x2="631.247" y2="609.774" stroke="#a78bfa" stroke-opacity="0.32" stroke-width="1.15"/>
<line x1="662.373" y1="724.121" x2="631.247" y2="609.774" stroke="#a78bfa" stroke-opacity="0.32" stroke-width="1.15"/>
<line x1="592.261" y1="720.973" x2="471.44" y2="417.923" stroke="#a78bfa" stroke-opacity="0.32" stroke-width="1.15"/>
<line x1="819.988" y1="660.974" x2="471.44" y2="417.923" stroke="#a78bfa" stroke-opacity="0.32" stroke-width="1.15"/>
<line x1="819.988" y1="660.974" x2="587.6" y2="601.723" stroke="#a78bfa" stroke-opacity="0.32" stroke-width="1.15"/>
<line x1="762.638" y1="697.264" x2="587.6" y2="601.723" stroke="#a78bfa" stroke-opacity="0.32" stroke-width="1.15"/>
<line x1="914.335" y1="517.236" x2="808.137" y2="414.904" stroke="#a78bfa" stroke-opacity="0.32" stroke-width="1.15"/>
<line x1="819.988" y1="660.974" x2="808.137" y2="414.904" stroke="#a78bfa" stroke-opacity="0.32" stroke-width="1.15"/>
<line x1="687.823" y1="603.135" x2="479.889" y2="497.136" stroke="#a78bfa" stroke-opacity="0.32" stroke-width="1.15"/>
<line x1="920.238" y1="388.117" x2="479.889" y2="497.136" stroke="#a78bfa" stroke-opacity="0.32" stroke-width="1.15"/>
<line x1="825.952" y1="224.021" x2="479.889" y2="497.136" stroke="#a78bfa" stroke-opacity="0.32" stroke-width="1.15"/>
<line x1="592.261" y1="720.973" x2="667.732" y2="607.723" stroke="#a78bfa" stroke-opacity="0.32" stroke-width="1.15"/>
<line x1="920.238" y1="388.117" x2="667.732" y2="607.723" stroke="#a78bfa" stroke-opacity="0.32" stroke-width="1.15"/>
<line x1="383.48" y1="315.812" x2="667.732" y2="607.723" stroke="#a78bfa" stroke-opacity="0.32" stroke-width="1.15"/>
<line x1="804.198" y1="395.965" x2="470.469" y2="452.617" stroke="#a78bfa" stroke-opacity="0.32" stroke-width="1.15"/>
<line x1="753.422" y1="313.369" x2="470.469" y2="452.617" stroke="#a78bfa" stroke-opacity="0.32" stroke-width="1.15"/>
<line x1="923.968" y1="415.765" x2="470.469" y2="452.617" stroke="#a78bfa" stroke-opacity="0.32" stroke-width="1.15"/>
<line x1="764.195" y1="323.915" x2="805.904" y2="477.094" stroke="#a78bfa" stroke-opacity="0.32" stroke-width="1.15"/>
<line x1="753.422" y1="313.369" x2="805.904" y2="477.094" stroke="#a78bfa" stroke-opacity="0.32" stroke-width="1.15"/>
<line x1="778.17" y1="340.96" x2="720.411" y2="290.22" stroke="#a78bfa" stroke-opacity="0.32" stroke-width="1.15"/>
<line x1="914.335" y1="517.236" x2="720.411" y2="290.22" stroke="#a78bfa" stroke-opacity="0.32" stroke-width="1.15"/>
<line x1="618.254" y1="271.397" x2="696.23" y2="279.569" stroke="#a78bfa" stroke-opacity="0.32" stroke-width="1.15"/>
<line x1="906.98" y1="539.733" x2="696.23" y2="279.569" stroke="#a78bfa" stroke-opacity="0.32" stroke-width="1.15"/>
<line x1="737.176" y1="172.079" x2="696.23" y2="279.569" stroke="#a78bfa" stroke-opacity="0.32" stroke-width="1.15"/>
<line x1="618.254" y1="271.397" x2="640.853" y2="270.002" stroke="#a78bfa" stroke-opacity="0.32" stroke-width="1.15"/>
<line x1="906.98" y1="539.733" x2="640.853" y2="270.002" stroke="#a78bfa" stroke-opacity="0.32" stroke-width="1.15"/>
<line x1="779.499" y1="688.526" x2="601.084" y2="274.514" stroke="#a78bfa" stroke-opacity="0.32" stroke-width="1.15"/>
<line x1="923.788" y1="466.261" x2="601.084" y2="274.514" stroke="#a78bfa" stroke-opacity="0.32" stroke-width="1.15"/>
<line x1="825.952" y1="224.021" x2="601.084" y2="274.514" stroke="#a78bfa" stroke-opacity="0.32" stroke-width="1.15"/>
<line x1="804.198" y1="395.965" x2="481.935" y2="377.426" stroke="#a78bfa" stroke-opacity="0.32" stroke-width="1.15"/>
<line x1="615.034" y1="723.904" x2="481.935" y2="377.426" stroke="#a78bfa" stroke-opacity="0.32" stroke-width="1.15"/>
<line x1="473.197" y1="208.912" x2="481.935" y2="377.426" stroke="#a78bfa" stroke-opacity="0.32" stroke-width="1.15"/>
<line x1="660.753" y1="155.757" x2="494.587" y2="528.063" stroke="#a78bfa" stroke-opacity="0.32" stroke-width="1.15"/>
<line x1="898.259" y1="319.471" x2="494.587" y2="528.063" stroke="#a78bfa" stroke-opacity="0.32" stroke-width="1.15"/>
<line x1="692.681" y1="159.911" x2="494.587" y2="528.063" stroke="#a78bfa" stroke-opacity="0.32" stroke-width="1.15"/>
<line x1="479.234" y1="675.328" x2="537.179" y2="575.38" stroke="#a78bfa" stroke-opacity="0.32" stroke-width="1.15"/>
<line x1="692.681" y1="159.911" x2="537.179" y2="575.38" stroke="#a78bfa" stroke-opacity="0.32" stroke-width="1.15"/>
<line x1="592.261" y1="720.973" x2="537.179" y2="575.38" stroke="#a78bfa" stroke-opacity="0.32" stroke-width="1.15"/>
<line x1="737.176" y1="172.079" x2="515.342" y2="324.412" stroke="#a78bfa" stroke-opacity="0.32" stroke-width="1.15"/>
<line x1="689.202" y1="720.721" x2="515.342" y2="324.412" stroke="#a78bfa" stroke-opacity="0.32" stroke-width="1.15"/>
<line x1="923.968" y1="415.765" x2="515.342" y2="324.412" stroke="#a78bfa" stroke-opacity="0.32" stroke-width="1.15"/>
<line x1="735.067" y1="299.066" x2="529.921" y2="310.453" stroke="#a78bfa" stroke-opacity="0.32" stroke-width="1.15"/>
<line x1="805.96" y1="208.305" x2="529.921" y2="310.453" stroke="#a78bfa" stroke-opacity="0.32" stroke-width="1.15"/>
<line x1="473.197" y1="208.912" x2="529.921" y2="310.453" stroke="#a78bfa" stroke-opacity="0.32" stroke-width="1.15"/>
<line x1="720.411" y1="290.22" x2="542.403" y2="300.806" stroke="#a78bfa" stroke-opacity="0.32" stroke-width="1.15"/>
<line x1="456.789" y1="221.691" x2="542.403" y2="300.806" stroke="#a78bfa" stroke-opacity="0.32" stroke-width="1.15"/>
<line x1="805.96" y1="208.305" x2="542.403" y2="300.806" stroke="#a78bfa" stroke-opacity="0.32" stroke-width="1.15"/>
<line x1="440.089" y1="236.873" x2="473.478" y2="474.209" stroke="#a78bfa" stroke-opacity="0.32" stroke-width="1.15"/>
<line x1="562.414" y1="288.737" x2="473.478" y2="474.209" stroke="#a78bfa" stroke-opacity="0.32" stroke-width="1.15"/>
<line x1="566.038" y1="715.236" x2="473.478" y2="474.209" stroke="#a78bfa" stroke-opacity="0.32" stroke-width="1.15"/>
</g>
<g class="nodes" filter="url(#glow)">
<circle cx="566.038" cy="715.236" r="6" fill="#38bdf8" stroke="#7dd3fc" stroke-width="1.6"><title>API Call</title></circle>
<circle cx="898.259" cy="319.471" r="6" fill="#38bdf8" stroke="#7dd3fc" stroke-width="1.6"><title>Audience Model</title></circle>
<circle cx="908.962" cy="345.743" r="6" fill="#38bdf8" stroke="#7dd3fc" stroke-width="1.6"><title>Chain-of-Thought Reasoning</title></circle>
<circle cx="914.249" cy="362.461" r="6" fill="#38bdf8" stroke="#7dd3fc" stroke-width="1.6"><title>Chunk Document</title></circle>
<circle cx="920.238" cy="388.117" r="6" fill="#38bdf8" stroke="#7dd3fc" stroke-width="1.6"><title>Cite Sources</title></circle>
<circle cx="644.047" cy="155.029" r="6" fill="#38bdf8" stroke="#7dd3fc" stroke-width="1.6"><title>Classify</title></circle>
<circle cx="545.661" cy="708.933" r="6" fill="#38bdf8" stroke="#7dd3fc" stroke-width="1.6"><title>Code Execution</title></circle>
<circle cx="523.249" cy="699.989" r="6" fill="#38bdf8" stroke="#7dd3fc" stroke-width="1.6"><title>Code Explain</title></circle>
<circle cx="923.968" cy="415.765" r="6" fill="#38bdf8" stroke="#7dd3fc" stroke-width="1.6"><title>Code Generation</title></circle>
<circle cx="500.737" cy="688.658" r="6" fill="#38bdf8" stroke="#7dd3fc" stroke-width="1.6"><title>Computer Use</title></circle>
<circle cx="421.405" cy="257.13" r="6" fill="#38bdf8" stroke="#7dd3fc" stroke-width="1.6"><title>Context Compression</title></circle>
<circle cx="479.234" cy="675.328" r="6" fill="#38bdf8" stroke="#7dd3fc" stroke-width="1.6"><title>Data Visualize</title></circle>
<circle cx="453.955" cy="655.899" r="6" fill="#38bdf8" stroke="#7dd3fc" stroke-width="1.6"><title>Detect Anomaly</title></circle>
<circle cx="924.986" cy="437.219" r="6" fill="#38bdf8" stroke="#7dd3fc" stroke-width="1.6"><title>Diff Content</title></circle>
<circle cx="660.753" cy="155.757" r="6" fill="#38bdf8" stroke="#7dd3fc" stroke-width="1.6"><title>Document Editing</title></circle>
<circle cx="923.788" cy="466.261" r="6" fill="#38bdf8" stroke="#7dd3fc" stroke-width="1.6"><title>Embed Text</title></circle>
<circle cx="920.442" cy="490.766" r="6" fill="#38bdf8" stroke="#7dd3fc" stroke-width="1.6"><title>Error Interpretation</title></circle>
<circle cx="914.335" cy="517.236" r="6" fill="#38bdf8" stroke="#7dd3fc" stroke-width="1.6"><title>Evaluate Output</title></circle>
<circle cx="906.98" cy="539.733" r="6" fill="#38bdf8" stroke="#7dd3fc" stroke-width="1.6"><title>Execute Bash</title></circle>
<circle cx="898.967" cy="559.0" r="6" fill="#38bdf8" stroke="#7dd3fc" stroke-width="1.6"><title>Extract Entities</title></circle>
<circle cx="521.333" cy="180.88" r="6" fill="#38bdf8" stroke="#7dd3fc" stroke-width="1.6"><title>Feed Monitoring</title></circle>
<circle cx="543.834" cy="171.715" r="6" fill="#38bdf8" stroke="#7dd3fc" stroke-width="1.6"><title>Few-Shot Learning</title></circle>
<circle cx="692.681" cy="159.911" r="6" fill="#38bdf8" stroke="#7dd3fc" stroke-width="1.6"><title>Format Output</title></circle>
<circle cx="715.975" cy="165.313" r="6" fill="#38bdf8" stroke="#7dd3fc" stroke-width="1.6"><title>Framework Upgrade</title></circle>
<circle cx="435.853" cy="638.869" r="6" fill="#38bdf8" stroke="#7dd3fc" stroke-width="1.6"><title>Generate SQL</title></circle>
<circle cx="422.22" cy="623.839" r="6" fill="#38bdf8" stroke="#7dd3fc" stroke-width="1.6"><title>Generate Test</title></circle>
<circle cx="737.176" cy="172.079" r="6" fill="#38bdf8" stroke="#7dd3fc" stroke-width="1.6"><title>Generate Text</title></circle>
<circle cx="405.597" cy="602.111" r="6" fill="#38bdf8" stroke="#7dd3fc" stroke-width="1.6"><title>Hypothesis Generation</title></circle>
<circle cx="393.693" cy="583.38" r="6" fill="#38bdf8" stroke="#7dd3fc" stroke-width="1.6"><title>Image Caption</title></circle>
<circle cx="380.964" cy="558.849" r="6" fill="#38bdf8" stroke="#7dd3fc" stroke-width="1.6"><title>Image Generate</title></circle>
<circle cx="569.865" cy="163.764" r="6" fill="#38bdf8" stroke="#7dd3fc" stroke-width="1.6"><title>Issue Triage</title></circle>
<circle cx="886.71" cy="582.685" r="6" fill="#38bdf8" stroke="#7dd3fc" stroke-width="1.6"><title>Logical Inference</title></circle>
<circle cx="440.089" cy="236.873" r="6" fill="#38bdf8" stroke="#7dd3fc" stroke-width="1.6"><title>MCP Integration</title></circle>
<circle cx="371.206" cy="534.735" r="6" fill="#38bdf8" stroke="#7dd3fc" stroke-width="1.6"><title>Math Reason</title></circle>
<circle cx="365.442" cy="516.438" r="6" fill="#38bdf8" stroke="#7dd3fc" stroke-width="1.6"><title>Memory Manage</title></circle>
<circle cx="359.102" cy="488.178" r="6" fill="#38bdf8" stroke="#7dd3fc" stroke-width="1.6"><title>OCR</title></circle>
<circle cx="356.368" cy="467.886" r="6" fill="#38bdf8" stroke="#7dd3fc" stroke-width="1.6"><title>Object Detection</title></circle>
<circle cx="355.032" cy="444.282" r="6" fill="#38bdf8" stroke="#7dd3fc" stroke-width="1.6"><title>Parallel Execution</title></circle>
<circle cx="872.873" cy="604.301" r="6" fill="#38bdf8" stroke="#7dd3fc" stroke-width="1.6"><title>Parse HTML</title></circle>
<circle cx="857.419" cy="624.266" r="6" fill="#38bdf8" stroke="#7dd3fc" stroke-width="1.6"><title>Parse JSON</title></circle>
<circle cx="842.151" cy="640.898" r="6" fill="#38bdf8" stroke="#7dd3fc" stroke-width="1.6"><title>Parse PDF</title></circle>
<circle cx="819.988" cy="660.974" r="6" fill="#38bdf8" stroke="#7dd3fc" stroke-width="1.6"><title>Plan and Decompose</title></circle>
<circle cx="456.789" cy="221.691" r="6" fill="#38bdf8" stroke="#7dd3fc" stroke-width="1.6"><title>Prompt Injection Defense</title></circle>
<circle cx="761.636" cy="182.26" r="6" fill="#38bdf8" stroke="#7dd3fc" stroke-width="1.6"><title>Question Answer</title></circle>
<circle cx="806.527" cy="671.287" r="6" fill="#38bdf8" stroke="#7dd3fc" stroke-width="1.6"><title>Rank</title></circle>
<circle cx="355.767" cy="419.099" r="6" fill="#38bdf8" stroke="#7dd3fc" stroke-width="1.6"><title>Refactor Code</title></circle>
<circle cx="359.343" cy="390.437" r="6" fill="#38bdf8" stroke="#7dd3fc" stroke-width="1.6"><title>Requirements Analysis</title></circle>
<circle cx="779.499" cy="688.526" r="6" fill="#38bdf8" stroke="#7dd3fc" stroke-width="1.6"><title>Retrieve</title></circle>
<circle cx="364.29" cy="367.828" r="6" fill="#38bdf8" stroke="#7dd3fc" stroke-width="1.6"><title>Reward Modeling</title></circle>
<circle cx="762.638" cy="697.264" r="6" fill="#38bdf8" stroke="#7dd3fc" stroke-width="1.6"><title>Route Intent</title></circle>
<circle cx="371.243" cy="345.158" r="6" fill="#38bdf8" stroke="#7dd3fc" stroke-width="1.6"><title>Schema Design</title></circle>
<circle cx="383.48" cy="315.812" r="6" fill="#38bdf8" stroke="#7dd3fc" stroke-width="1.6"><title>Scientific Visualization</title></circle>
<circle cx="739.152" cy="707.196" r="6" fill="#38bdf8" stroke="#7dd3fc" stroke-width="1.6"><title>Score Relevance</title></circle>
<circle cx="591.237" cy="159.203" r="6" fill="#38bdf8" stroke="#7dd3fc" stroke-width="1.6"><title>Self-Consistency</title></circle>
<circle cx="713.017" cy="715.488" r="6" fill="#38bdf8" stroke="#7dd3fc" stroke-width="1.6"><title>Self-Critique</title></circle>
<circle cx="613.009" cy="156.281" r="6" fill="#38bdf8" stroke="#7dd3fc" stroke-width="1.6"><title>Semantic Cache</title></circle>
<circle cx="779.438" cy="191.44" r="6" fill="#38bdf8" stroke="#7dd3fc" stroke-width="1.6"><title>Sentiment Analysis</title></circle>
<circle cx="805.96" cy="208.305" r="6" fill="#38bdf8" stroke="#7dd3fc" stroke-width="1.6"><title>Skill Discovery</title></circle>
<circle cx="393.447" cy="297.043" r="6" fill="#38bdf8" stroke="#7dd3fc" stroke-width="1.6"><title>Speech to Text</title></circle>
<circle cx="473.197" cy="208.912" r="6" fill="#38bdf8" stroke="#7dd3fc" stroke-width="1.6"><title>Statistical Analysis</title></circle>
<circle cx="689.202" cy="720.721" r="6" fill="#38bdf8" stroke="#7dd3fc" stroke-width="1.6"><title>Structured Output Generation</title></circle>
<circle cx="825.952" cy="224.021" r="6" fill="#38bdf8" stroke="#7dd3fc" stroke-width="1.6"><title>Summarize</title></circle>
<circle cx="844.275" cy="241.262" r="6" fill="#38bdf8" stroke="#7dd3fc" stroke-width="1.6"><title>Test-Driven Development</title></circle>
<circle cx="406.304" cy="276.871" r="6" fill="#38bdf8" stroke="#7dd3fc" stroke-width="1.6"><title>Text to Speech</title></circle>
<circle cx="860.637" cy="259.599" r="6" fill="#38bdf8" stroke="#7dd3fc" stroke-width="1.6"><title>Tokenize</title></circle>
<circle cx="662.373" cy="724.121" r="6" fill="#38bdf8" stroke="#7dd3fc" stroke-width="1.6"><title>Tool Select</title></circle>
<circle cx="638.66" cy="724.997" r="6" fill="#38bdf8" stroke="#7dd3fc" stroke-width="1.6"><title>Tool Use</title></circle>
<circle cx="875.087" cy="278.881" r="6" fill="#38bdf8" stroke="#7dd3fc" stroke-width="1.6"><title>Translate</title></circle>
<circle cx="887.852" cy="299.307" r="6" fill="#38bdf8" stroke="#7dd3fc" stroke-width="1.6"><title>UX Audit</title></circle>
<circle cx="496.846" cy="193.561" r="6" fill="#38bdf8" stroke="#7dd3fc" stroke-width="1.6"><title>Visual Question Answering</title></circle>
<circle cx="615.034" cy="723.904" r="6" fill="#38bdf8" stroke="#7dd3fc" stroke-width="1.6"><title>Web Search</title></circle>
<circle cx="592.261" cy="720.973" r="6" fill="#38bdf8" stroke="#7dd3fc" stroke-width="1.6"><title>Write Report</title></circle>
<circle cx="735.067" cy="299.066" r="10" fill="#a78bfa" stroke="#c4b5fd" stroke-width="1.6"><title>Agent Evaluation</title></circle>
<circle cx="537.179" cy="575.38" r="10" fill="#a78bfa" stroke="#c4b5fd" stroke-width="1.6"><title>Architecture Diagram</title></circle>
<circle cx="753.422" cy="313.369" r="10" fill="#a78bfa" stroke="#c4b5fd" stroke-width="1.6"><title>Automated Testing</title></circle>
<circle cx="524.049" cy="564.32" r="10" fill="#a78bfa" stroke="#c4b5fd" stroke-width="1.6"><title>Autonomous Debug</title></circle>
<circle cx="764.195" cy="323.915" r="10" fill="#a78bfa" stroke="#c4b5fd" stroke-width="1.6"><title>Browser Automation</title></circle>
<circle cx="778.17" cy="340.96" r="10" fill="#a78bfa" stroke="#c4b5fd" stroke-width="1.6"><title>Code Review Pipeline</title></circle>
<circle cx="787.268" cy="355.075" r="10" fill="#a78bfa" stroke="#c4b5fd" stroke-width="1.6"><title>Content Moderation</title></circle>
<circle cx="797.727" cy="376.578" r="10" fill="#a78bfa" stroke="#c4b5fd" stroke-width="1.6"><title>Conversational Agent</title></circle>
<circle cx="804.198" cy="395.965" r="10" fill="#a78bfa" stroke="#c4b5fd" stroke-width="1.6"><title>Data Analysis</title></circle>
<circle cx="640.853" cy="270.002" r="10" fill="#a78bfa" stroke="#c4b5fd" stroke-width="1.6"><title>Deployment Automation</title></circle>
<circle cx="808.137" cy="414.904" r="10" fill="#a78bfa" stroke="#c4b5fd" stroke-width="1.6"><title>Design Review</title></circle>
<circle cx="809.905" cy="434.308" r="10" fill="#a78bfa" stroke="#c4b5fd" stroke-width="1.6"><title>Document Analyst</title></circle>
<circle cx="809.275" cy="455.684" r="10" fill="#a78bfa" stroke="#c4b5fd" stroke-width="1.6"><title>Document Digitization</title></circle>
<circle cx="805.904" cy="477.094" r="10" fill="#a78bfa" stroke="#c4b5fd" stroke-width="1.6"><title>End-to-End Testing</title></circle>
<circle cx="800.118" cy="497.116" r="10" fill="#a78bfa" stroke="#c4b5fd" stroke-width="1.6"><title>Function Calling</title></circle>
<circle cx="660.44" cy="271.233" r="10" fill="#a78bfa" stroke="#c4b5fd" stroke-width="1.6"><title>Gaia Audit</title></circle>
<circle cx="792.387" cy="515.355" r="10" fill="#a78bfa" stroke="#c4b5fd" stroke-width="1.6"><title>Gaia Meta Audit</title></circle>
<circle cx="680.566" cy="274.911" r="10" fill="#a78bfa" stroke="#c4b5fd" stroke-width="1.6"><title>Gaia Triage</title></circle>
<circle cx="509.749" cy="549.246" r="10" fill="#a78bfa" stroke="#c4b5fd" stroke-width="1.6"><title>Ghostwrite</title></circle>
<circle cx="782.463" cy="532.76" r="10" fill="#a78bfa" stroke="#c4b5fd" stroke-width="1.6"><title>Grounding</title></circle>
<circle cx="770.092" cy="549.436" r="10" fill="#a78bfa" stroke="#c4b5fd" stroke-width="1.6"><title>Guardrails</title></circle>
<circle cx="494.587" cy="528.063" r="10" fill="#a78bfa" stroke="#c4b5fd" stroke-width="1.6"><title>Humanize Prose</title></circle>
<circle cx="756.524" cy="563.783" r="10" fill="#a78bfa" stroke="#c4b5fd" stroke-width="1.6"><title>Knowledge Graph Construction</title></circle>
<circle cx="485.093" cy="510.028" r="10" fill="#a78bfa" stroke="#c4b5fd" stroke-width="1.6"><title>Knowledge Harvest</title></circle>
<circle cx="479.889" cy="497.136" r="10" fill="#a78bfa" stroke="#c4b5fd" stroke-width="1.6"><title>Literature Review</title></circle>
<circle cx="473.478" cy="474.209" r="10" fill="#a78bfa" stroke="#c4b5fd" stroke-width="1.6"><title>MCP Server Creation</title></circle>
<circle cx="470.469" cy="452.617" r="10" fill="#a78bfa" stroke="#c4b5fd" stroke-width="1.6"><title>ML Pipeline</title></circle>
<circle cx="470.16" cy="432.633" r="10" fill="#a78bfa" stroke="#c4b5fd" stroke-width="1.6"><title>Multi-Agent Debate</title></circle>
<circle cx="741.18" cy="576.611" r="10" fill="#a78bfa" stroke="#c4b5fd" stroke-width="1.6"><title>Multimodal Reasoning</title></circle>
<circle cx="471.44" cy="417.923" r="10" fill="#a78bfa" stroke="#c4b5fd" stroke-width="1.6"><title>PRD Generation</title></circle>
<circle cx="476.399" cy="393.796" r="10" fill="#a78bfa" stroke="#c4b5fd" stroke-width="1.6"><title>Plan and Execute</title></circle>
<circle cx="481.935" cy="377.426" r="10" fill="#a78bfa" stroke="#c4b5fd" stroke-width="1.6"><title>Prediction Market Analysis</title></circle>
<circle cx="491.185" cy="357.817" r="10" fill="#a78bfa" stroke="#c4b5fd" stroke-width="1.6"><title>Prompt Optimization</title></circle>
<circle cx="729.185" cy="584.727" r="10" fill="#a78bfa" stroke="#c4b5fd" stroke-width="1.6"><title>RAG Pipeline</title></circle>
<circle cx="705.465" cy="596.889" r="10" fill="#a78bfa" stroke="#c4b5fd" stroke-width="1.6"><title>ReAct Reasoning</title></circle>
<circle cx="501.006" cy="342.119" r="10" fill="#a78bfa" stroke="#c4b5fd" stroke-width="1.6"><title>Registry Curation</title></circle>
<circle cx="696.23" cy="279.569" r="10" fill="#a78bfa" stroke="#c4b5fd" stroke-width="1.6"><title>Release Automation</title></circle>
<circle cx="687.823" cy="603.135" r="10" fill="#a78bfa" stroke="#c4b5fd" stroke-width="1.6"><title>Research</title></circle>
<circle cx="667.732" cy="607.723" r="10" fill="#a78bfa" stroke="#c4b5fd" stroke-width="1.6"><title>Scientific Writing</title></circle>
<circle cx="720.411" cy="290.22" r="10" fill="#a78bfa" stroke="#c4b5fd" stroke-width="1.6"><title>Security Audit</title></circle>
<circle cx="515.342" cy="324.412" r="10" fill="#a78bfa" stroke="#c4b5fd" stroke-width="1.6"><title>Skill Authoring</title></circle>
<circle cx="529.921" cy="310.453" r="10" fill="#a78bfa" stroke="#c4b5fd" stroke-width="1.6"><title>Skill Performance Benchmarking</title></circle>
<circle cx="542.403" cy="300.806" r="10" fill="#a78bfa" stroke="#c4b5fd" stroke-width="1.6"><title>Skill Security Analysis</title></circle>
<circle cx="652.079" cy="609.57" r="10" fill="#a78bfa" stroke="#c4b5fd" stroke-width="1.6"><title>Text-to-SQL Pipeline</title></circle>
<circle cx="631.247" cy="609.774" r="10" fill="#a78bfa" stroke="#c4b5fd" stroke-width="1.6"><title>Tool Chaining</title></circle>
<circle cx="562.414" cy="288.737" r="10" fill="#a78bfa" stroke="#c4b5fd" stroke-width="1.6"><title>Tool Creation</title></circle>
<circle cx="607.616" cy="606.887" r="10" fill="#a78bfa" stroke="#c4b5fd" stroke-width="1.6"><title>Translation Pipeline</title></circle>
<circle cx="579.465" cy="281.143" r="10" fill="#a78bfa" stroke="#c4b5fd" stroke-width="1.6"><title>Tree of Thought</title></circle>
<circle cx="587.6" cy="601.723" r="10" fill="#a78bfa" stroke="#c4b5fd" stroke-width="1.6"><title>Vertical Slice Planning</title></circle>
<circle cx="570.606" cy="595.192" r="10" fill="#a78bfa" stroke="#c4b5fd" stroke-width="1.6"><title>Voice Agent</title></circle>
<circle cx="553.108" cy="586.116" r="10" fill="#a78bfa" stroke="#c4b5fd" stroke-width="1.6"><title>Web Scrape</title></circle>
<circle cx="601.084" cy="274.514" r="10" fill="#a78bfa" stroke="#c4b5fd" stroke-width="1.6"><title>Wiki Search</title></circle>
<circle cx="618.254" cy="271.397" r="10" fill="#a78bfa" stroke="#c4b5fd" stroke-width="1.6"><title>Workflow Automation</title></circle>
<circle cx="640.0" cy="440.0" r="13" fill="#7c3aed" stroke="#a78bfa" stroke-width="1.6"><title>Fine-Tune</title></circle>
<circle cx="644.037" cy="386.151" r="15" fill="#fbbf24" stroke="#fde68a" stroke-width="1.6"><title>Autonomous Data Scientist</title></circle>
<circle cx="602.416" cy="401.226" r="15" fill="#fbbf24" stroke="#fde68a" stroke-width="1.6"><title>Autonomous Research Agent</title></circle>
<circle cx="678.526" cy="402.162" r="15" fill="#fbbf24" stroke="#fde68a" stroke-width="1.6"><title>Autonomous Scientific Discovery</title></circle>
<circle cx="692.13" cy="454.088" r="15" fill="#fbbf24" stroke="#fde68a" stroke-width="1.6"><title>Full-Stack Developer</title></circle>
<circle cx="661.846" cy="489.384" r="15" fill="#fbbf24" stroke="#fde68a" stroke-width="1.6"><title>Multi-Agent Orchestration</title></circle>
<circle cx="618.356" cy="489.473" r="15" fill="#fbbf24" stroke="#fde68a" stroke-width="1.6"><title>Real-Time Voice Assistant</title></circle>
<circle cx="586.445" cy="446.917" r="15" fill="#fbbf24" stroke="#fde68a" stroke-width="1.6"><title>Recursive Self-Improvement</title></circle>
</g>
<g class="labels" font-family="Inter, ui-sans-serif, system-ui, sans-serif" text-anchor="middle">
<text x="898.259" y="306.5" fill="#38bdf8" font-size="10" font-weight="600" opacity="0.92">Audience Model</text>
<text x="545.661" y="695.9" fill="#38bdf8" font-size="10" font-weight="600" opacity="0.92">Code Execution</text>
<text x="923.968" y="402.8" fill="#38bdf8" font-size="10" font-weight="600" opacity="0.92">Code Generation</text>
<text x="421.405" y="244.1" fill="#38bdf8" font-size="10" font-weight="600" opacity="0.92">Context Compression</text>
<text x="660.753" y="142.8" fill="#38bdf8" font-size="10" font-weight="600" opacity="0.92">Document Editing</text>
<text x="435.853" y="625.9" fill="#38bdf8" font-size="10" font-weight="600" opacity="0.92">Generate SQL</text>
<text x="422.22" y="610.8" fill="#38bdf8" font-size="10" font-weight="600" opacity="0.92">Generate Test</text>
<text x="405.597" y="589.1" fill="#38bdf8" font-size="10" font-weight="600" opacity="0.92">Hypothesis Generation</text>
<text x="359.102" y="475.2" fill="#38bdf8" font-size="10" font-weight="600" opacity="0.92">OCR</text>
<text x="806.527" y="658.3" fill="#38bdf8" font-size="10" font-weight="600" opacity="0.92">Rank</text>
<text x="371.243" y="332.2" fill="#38bdf8" font-size="10" font-weight="600" opacity="0.92">Schema Design</text>
<text x="383.48" y="302.8" fill="#38bdf8" font-size="10" font-weight="600" opacity="0.92">Scientific Visualization</text>
<text x="779.438" y="178.4" fill="#38bdf8" font-size="10" font-weight="600" opacity="0.92">Sentiment Analysis</text>
<text x="805.96" y="195.3" fill="#38bdf8" font-size="10" font-weight="600" opacity="0.92">Skill Discovery</text>
<text x="638.66" y="712.0" fill="#38bdf8" font-size="10" font-weight="600" opacity="0.92">Tool Use</text>
<text x="592.261" y="708.0" fill="#38bdf8" font-size="10" font-weight="600" opacity="0.92">Write Report</text>
<text x="735.067" y="282.1" fill="#a78bfa" font-size="12" font-weight="600" opacity="0.92">Agent Evaluation</text>
<text x="537.179" y="558.4" fill="#a78bfa" font-size="12" font-weight="600" opacity="0.92">Architecture Diagram</text>
<text x="753.422" y="296.4" fill="#a78bfa" font-size="12" font-weight="600" opacity="0.92">Automated Testing</text>
<text x="524.049" y="547.3" fill="#a78bfa" font-size="12" font-weight="600" opacity="0.92">Autonomous Debug</text>
<text x="764.195" y="306.9" fill="#a78bfa" font-size="12" font-weight="600" opacity="0.92">Browser Automation</text>
<text x="778.17" y="324.0" fill="#a78bfa" font-size="12" font-weight="600" opacity="0.92">Code Review Pipeline</text>
<text x="787.268" y="338.1" fill="#a78bfa" font-size="12" font-weight="600" opacity="0.92">Content Moderation</text>
<text x="797.727" y="359.6" fill="#a78bfa" font-size="12" font-weight="600" opacity="0.92">Conversational Agent</text>
<text x="804.198" y="379.0" fill="#a78bfa" font-size="12" font-weight="600" opacity="0.92">Data Analysis</text>
<text x="640.853" y="253.0" fill="#a78bfa" font-size="12" font-weight="600" opacity="0.92">Deployment Automation</text>
<text x="808.137" y="397.9" fill="#a78bfa" font-size="12" font-weight="600" opacity="0.92">Design Review</text>
<text x="809.905" y="417.3" fill="#a78bfa" font-size="12" font-weight="600" opacity="0.92">Document Analyst</text>
<text x="809.275" y="438.7" fill="#a78bfa" font-size="12" font-weight="600" opacity="0.92">Document Digitization</text>
<text x="805.904" y="460.1" fill="#a78bfa" font-size="12" font-weight="600" opacity="0.92">End-to-End Testing</text>
<text x="800.118" y="480.1" fill="#a78bfa" font-size="12" font-weight="600" opacity="0.92">Function Calling</text>
<text x="660.44" y="254.2" fill="#a78bfa" font-size="12" font-weight="600" opacity="0.92">Gaia Audit</text>
<text x="792.387" y="498.4" fill="#a78bfa" font-size="12" font-weight="600" opacity="0.92">Gaia Meta Audit</text>
<text x="680.566" y="257.9" fill="#a78bfa" font-size="12" font-weight="600" opacity="0.92">Gaia Triage</text>
<text x="509.749" y="532.2" fill="#a78bfa" font-size="12" font-weight="600" opacity="0.92">Ghostwrite</text>
<text x="782.463" y="515.8" fill="#a78bfa" font-size="12" font-weight="600" opacity="0.92">Grounding</text>
<text x="770.092" y="532.4" fill="#a78bfa" font-size="12" font-weight="600" opacity="0.92">Guardrails</text>
<text x="494.587" y="511.1" fill="#a78bfa" font-size="12" font-weight="600" opacity="0.92">Humanize Prose</text>
<text x="756.524" y="546.8" fill="#a78bfa" font-size="12" font-weight="600" opacity="0.92">Knowledge Graph Construction</text>
<text x="485.093" y="493.0" fill="#a78bfa" font-size="12" font-weight="600" opacity="0.92">Knowledge Harvest</text>
<text x="479.889" y="480.1" fill="#a78bfa" font-size="12" font-weight="600" opacity="0.92">Literature Review</text>
<text x="473.478" y="457.2" fill="#a78bfa" font-size="12" font-weight="600" opacity="0.92">MCP Server Creation</text>
<text x="470.469" y="435.6" fill="#a78bfa" font-size="12" font-weight="600" opacity="0.92">ML Pipeline</text>
<text x="470.16" y="415.6" fill="#a78bfa" font-size="12" font-weight="600" opacity="0.92">Multi-Agent Debate</text>
<text x="741.18" y="559.6" fill="#a78bfa" font-size="12" font-weight="600" opacity="0.92">Multimodal Reasoning</text>
<text x="471.44" y="400.9" fill="#a78bfa" font-size="12" font-weight="600" opacity="0.92">PRD Generation</text>
<text x="476.399" y="376.8" fill="#a78bfa" font-size="12" font-weight="600" opacity="0.92">Plan and Execute</text>
<text x="481.935" y="360.4" fill="#a78bfa" font-size="12" font-weight="600" opacity="0.92">Prediction Market Analysis</text>
<text x="491.185" y="340.8" fill="#a78bfa" font-size="12" font-weight="600" opacity="0.92">Prompt Optimization</text>
<text x="729.185" y="567.7" fill="#a78bfa" font-size="12" font-weight="600" opacity="0.92">RAG Pipeline</text>
<text x="705.465" y="579.9" fill="#a78bfa" font-size="12" font-weight="600" opacity="0.92">ReAct Reasoning</text>
<text x="501.006" y="325.1" fill="#a78bfa" font-size="12" font-weight="600" opacity="0.92">Registry Curation</text>
<text x="696.23" y="262.6" fill="#a78bfa" font-size="12" font-weight="600" opacity="0.92">Release Automation</text>
<text x="687.823" y="586.1" fill="#a78bfa" font-size="12" font-weight="600" opacity="0.92">Research</text>
<text x="667.732" y="590.7" fill="#a78bfa" font-size="12" font-weight="600" opacity="0.92">Scientific Writing</text>
<text x="720.411" y="273.2" fill="#a78bfa" font-size="12" font-weight="600" opacity="0.92">Security Audit</text>
<text x="515.342" y="307.4" fill="#a78bfa" font-size="12" font-weight="600" opacity="0.92">Skill Authoring</text>
<text x="529.921" y="293.5" fill="#a78bfa" font-size="12" font-weight="600" opacity="0.92">Skill Performance Benchmarking</text>
<text x="542.403" y="283.8" fill="#a78bfa" font-size="12" font-weight="600" opacity="0.92">Skill Security Analysis</text>
<text x="652.079" y="592.6" fill="#a78bfa" font-size="12" font-weight="600" opacity="0.92">Text-to-SQL Pipeline</text>
<text x="631.247" y="592.8" fill="#a78bfa" font-size="12" font-weight="600" opacity="0.92">Tool Chaining</text>
<text x="562.414" y="271.7" fill="#a78bfa" font-size="12" font-weight="600" opacity="0.92">Tool Creation</text>
<text x="607.616" y="589.9" fill="#a78bfa" font-size="12" font-weight="600" opacity="0.92">Translation Pipeline</text>
<text x="579.465" y="264.1" fill="#a78bfa" font-size="12" font-weight="600" opacity="0.92">Tree of Thought</text>
<text x="587.6" y="584.7" fill="#a78bfa" font-size="12" font-weight="600" opacity="0.92">Vertical Slice Planning</text>
<text x="570.606" y="578.2" fill="#a78bfa" font-size="12" font-weight="600" opacity="0.92">Voice Agent</text>
<text x="553.108" y="569.1" fill="#a78bfa" font-size="12" font-weight="600" opacity="0.92">Web Scrape</text>
<text x="601.084" y="257.5" fill="#a78bfa" font-size="12" font-weight="600" opacity="0.92">Wiki Search</text>
<text x="618.254" y="254.4" fill="#a78bfa" font-size="12" font-weight="600" opacity="0.92">Workflow Automation</text>
<text x="640.0" y="420.0" fill="#7c3aed" font-size="16" font-weight="600" opacity="0.92">Fine-Tune</text>
<text x="644.037" y="364.2" fill="#fbbf24" font-size="16" font-weight="800" opacity="0.92">Autonomous Data Scientist</text>
<text x="602.416" y="379.2" fill="#fbbf24" font-size="16" font-weight="800" opacity="0.92">Autonomous Research Agent</text>
<text x="678.526" y="380.2" fill="#fbbf24" font-size="16" font-weight="800" opacity="0.92">Autonomous Scientific Discovery</text>
<text x="692.13" y="432.1" fill="#fbbf24" font-size="16" font-weight="800" opacity="0.92">Full-Stack Developer</text>
<text x="661.846" y="467.4" fill="#fbbf24" font-size="16" font-weight="800" opacity="0.92">Multi-Agent Orchestration</text>
<text x="618.356" y="467.5" fill="#fbbf24" font-size="16" font-weight="800" opacity="0.92">Real-Time Voice Assistant</text>
<text x="586.445" y="424.9" fill="#fbbf24" font-size="16" font-weight="800" opacity="0.92">Recursive Self-Improvement</text>
</g>
<g font-family="Inter, ui-sans-serif, system-ui, sans-serif" font-size="14" fill="#cbd5e1">
<text x="44" y="748" font-size="20" font-weight="800" fill="#e2e8f0">Gaia Skill Graph</text>
<circle cx="52" cy="765" r="6" fill="#38bdf8"/>
<text x="68" y="770">Basic: 72</text>
<circle cx="52" cy="793" r="6" fill="#a78bfa"/>
<text x="68" y="798">Extra: 53</text>
<circle cx="52" cy="821" r="6" fill="#7c3aed"/>
<text x="68" y="826">Unique: 1</text>
<circle cx="52" cy="849" r="6" fill="#fbbf24"/>
<text x="68" y="854">Ultimate: 7</text>
</g>
</svg>
