<?xml version="1.0" encoding="UTF-8"?>
<svg xmlns="http://www.w3.org/2000/svg" width="1280" height="880" viewBox="0 0 1280 880" role="img" aria-labelledby="title desc">
<title id="title">Gaia AI Agent Skill Graph</title>
<desc id="desc">Canonical Gaia skill graph rendered from registry/gaia.json, with basic skills on the outer ring, extra skills in the middle ring, and ultimate skills at the core.</desc>
<defs>
<radialGradient id="bg" cx="50%" cy="45%" r="70%"><stop offset="0%" stop-color="#172554"/><stop offset="55%" stop-color="#06111f"/><stop offset="100%" stop-color="#030712"/></radialGradient>
<filter id="glow" x="-50%" y="-50%" width="200%" height="200%"><feGaussianBlur stdDeviation="4" result="blur"/><feMerge><feMergeNode in="blur"/><feMergeNode in="SourceGraphic"/></feMerge></filter>
</defs>
<rect width="1280" height="880" fill="url(#bg)"/>
<g opacity="0.32" stroke="#334155" stroke-width="1" fill="none">
<circle cx="640.0" cy="440.0" r="285"/>
<circle cx="640.0" cy="440.0" r="170"/>
<circle cx="640.0" cy="440.0" r="54"/>
</g>
<g class="edges" fill="none">
<line x1="615.034" y1="723.904" x2="485.107" y2="510.058" stroke="#a78bfa" stroke-opacity="0.32" stroke-width="1.15"/>
<line x1="872.873" y1="604.301" x2="485.107" y2="510.058" stroke="#a78bfa" stroke-opacity="0.32" stroke-width="1.15"/>
<line x1="898.967" y1="559.0" x2="485.107" y2="510.058" stroke="#a78bfa" stroke-opacity="0.32" stroke-width="1.15"/>
<line x1="615.034" y1="723.904" x2="613.535" y2="607.927" stroke="#a78bfa" stroke-opacity="0.32" stroke-width="1.15"/>
<line x1="825.952" y1="224.021" x2="613.535" y2="607.927" stroke="#a78bfa" stroke-opacity="0.32" stroke-width="1.15"/>
<line x1="920.238" y1="388.117" x2="613.535" y2="607.927" stroke="#a78bfa" stroke-opacity="0.32" stroke-width="1.15"/>
<line x1="613.535" y1="607.927" x2="472.236" y2="467.483" stroke="#a78bfa" stroke-opacity="0.32" stroke-width="1.15"/>
<line x1="592.261" y1="720.973" x2="472.236" y2="467.483" stroke="#a78bfa" stroke-opacity="0.32" stroke-width="1.15"/>
<line x1="898.259" y1="319.471" x2="472.236" y2="467.483" stroke="#a78bfa" stroke-opacity="0.32" stroke-width="1.15"/>
<line x1="923.968" y1="415.765" x2="478.087" y2="491.809" stroke="#a78bfa" stroke-opacity="0.32" stroke-width="1.15"/>
<line x1="906.98" y1="539.733" x2="478.087" y2="491.809" stroke="#a78bfa" stroke-opacity="0.32" stroke-width="1.15"/>
<line x1="920.442" y1="490.766" x2="478.087" y2="491.809" stroke="#a78bfa" stroke-opacity="0.32" stroke-width="1.15"/>
<line x1="762.638" y1="697.264" x2="512.671" y2="327.362" stroke="#a78bfa" stroke-opacity="0.32" stroke-width="1.15"/>
<line x1="819.988" y1="660.974" x2="512.671" y2="327.362" stroke="#a78bfa" stroke-opacity="0.32" stroke-width="1.15"/>
<line x1="662.373" y1="724.121" x2="512.671" y2="327.362" stroke="#a78bfa" stroke-opacity="0.32" stroke-width="1.15"/>
<line x1="485.107" y1="510.058" x2="470.049" y2="435.906" stroke="#a78bfa" stroke-opacity="0.32" stroke-width="1.15"/>
<line x1="898.967" y1="559.0" x2="470.049" y2="435.906" stroke="#a78bfa" stroke-opacity="0.32" stroke-width="1.15"/>
<line x1="923.788" y1="466.261" x2="470.049" y2="435.906" stroke="#a78bfa" stroke-opacity="0.32" stroke-width="1.15"/>
<line x1="779.499" y1="688.526" x2="667.996" y2="607.679" stroke="#a78bfa" stroke-opacity="0.32" stroke-width="1.15"/>
<line x1="914.249" y1="362.461" x2="667.996" y2="607.679" stroke="#a78bfa" stroke-opacity="0.32" stroke-width="1.15"/>
<line x1="923.788" y1="466.261" x2="667.996" y2="607.679" stroke="#a78bfa" stroke-opacity="0.32" stroke-width="1.15"/>
<line x1="739.152" y1="707.196" x2="667.996" y2="607.679" stroke="#a78bfa" stroke-opacity="0.32" stroke-width="1.15"/>
<line x1="860.637" y1="259.599" x2="667.996" y2="607.679" stroke="#a78bfa" stroke-opacity="0.32" stroke-width="1.15"/>
<line x1="806.527" y1="671.287" x2="667.996" y2="607.679" stroke="#a78bfa" stroke-opacity="0.32" stroke-width="1.15"/>
<line x1="857.419" y1="624.266" x2="808.38" y2="463.413" stroke="#a78bfa" stroke-opacity="0.32" stroke-width="1.15"/>
<line x1="898.967" y1="559.0" x2="808.38" y2="463.413" stroke="#a78bfa" stroke-opacity="0.32" stroke-width="1.15"/>
<line x1="825.952" y1="224.021" x2="808.38" y2="463.413" stroke="#a78bfa" stroke-opacity="0.32" stroke-width="1.15"/>
<line x1="692.681" y1="159.911" x2="808.38" y2="463.413" stroke="#a78bfa" stroke-opacity="0.32" stroke-width="1.15"/>
<line x1="478.087" y1="491.809" x2="586.445" y2="446.917" stroke="#fbbf24" stroke-opacity="0.32" stroke-width="1.15"/>
<line x1="914.335" y1="517.236" x2="586.445" y2="446.917" stroke="#fbbf24" stroke-opacity="0.32" stroke-width="1.15"/>
<line x1="512.671" y1="327.362" x2="586.445" y2="446.917" stroke="#fbbf24" stroke-opacity="0.32" stroke-width="1.15"/>
<line x1="512.671" y1="327.362" x2="661.846" y2="489.384" stroke="#fbbf24" stroke-opacity="0.32" stroke-width="1.15"/>
<line x1="762.638" y1="697.264" x2="661.846" y2="489.384" stroke="#fbbf24" stroke-opacity="0.32" stroke-width="1.15"/>
<line x1="662.373" y1="724.121" x2="661.846" y2="489.384" stroke="#fbbf24" stroke-opacity="0.32" stroke-width="1.15"/>
<line x1="613.535" y1="607.927" x2="602.416" y2="401.226" stroke="#fbbf24" stroke-opacity="0.32" stroke-width="1.15"/>
<line x1="470.049" y1="435.906" x2="602.416" y2="401.226" stroke="#fbbf24" stroke-opacity="0.32" stroke-width="1.15"/>
<line x1="472.236" y1="467.483" x2="602.416" y2="401.226" stroke="#fbbf24" stroke-opacity="0.32" stroke-width="1.15"/>
<line x1="761.636" y1="182.26" x2="803.284" y2="392.69" stroke="#a78bfa" stroke-opacity="0.32" stroke-width="1.15"/>
<line x1="365.442" y1="516.438" x2="803.284" y2="392.69" stroke="#a78bfa" stroke-opacity="0.32" stroke-width="1.15"/>
<line x1="762.638" y1="697.264" x2="803.284" y2="392.69" stroke="#a78bfa" stroke-opacity="0.32" stroke-width="1.15"/>
<line x1="435.853" y1="638.869" x2="571.592" y2="595.629" stroke="#a78bfa" stroke-opacity="0.32" stroke-width="1.15"/>
<line x1="857.419" y1="624.266" x2="571.592" y2="595.629" stroke="#a78bfa" stroke-opacity="0.32" stroke-width="1.15"/>
<line x1="692.681" y1="159.911" x2="571.592" y2="595.629" stroke="#a78bfa" stroke-opacity="0.32" stroke-width="1.15"/>
<line x1="923.968" y1="415.765" x2="783.066" y2="348.174" stroke="#a78bfa" stroke-opacity="0.32" stroke-width="1.15"/>
<line x1="924.986" y1="437.219" x2="783.066" y2="348.174" stroke="#a78bfa" stroke-opacity="0.32" stroke-width="1.15"/>
<line x1="914.335" y1="517.236" x2="783.066" y2="348.174" stroke="#a78bfa" stroke-opacity="0.32" stroke-width="1.15"/>
<line x1="435.853" y1="638.869" x2="808.405" y2="416.764" stroke="#a78bfa" stroke-opacity="0.32" stroke-width="1.15"/>
<line x1="479.234" y1="675.328" x2="808.405" y2="416.764" stroke="#a78bfa" stroke-opacity="0.32" stroke-width="1.15"/>
<line x1="825.952" y1="224.021" x2="808.405" y2="416.764" stroke="#a78bfa" stroke-opacity="0.32" stroke-width="1.15"/>
<line x1="393.447" y1="297.043" x2="496.375" y2="530.95" stroke="#a78bfa" stroke-opacity="0.32" stroke-width="1.15"/>
<line x1="761.636" y1="182.26" x2="496.375" y2="530.95" stroke="#a78bfa" stroke-opacity="0.32" stroke-width="1.15"/>
<line x1="406.304" y1="276.871" x2="496.375" y2="530.95" stroke="#a78bfa" stroke-opacity="0.32" stroke-width="1.15"/>
<line x1="422.22" y1="623.839" x2="754.256" y2="314.121" stroke="#a78bfa" stroke-opacity="0.32" stroke-width="1.15"/>
<line x1="906.98" y1="539.733" x2="754.256" y2="314.121" stroke="#a78bfa" stroke-opacity="0.32" stroke-width="1.15"/>
<line x1="920.442" y1="490.766" x2="754.256" y2="314.121" stroke="#a78bfa" stroke-opacity="0.32" stroke-width="1.15"/>
<line x1="644.047" y1="155.029" x2="792.959" y2="365.813" stroke="#a78bfa" stroke-opacity="0.32" stroke-width="1.15"/>
<line x1="779.438" y1="191.44" x2="792.959" y2="365.813" stroke="#a78bfa" stroke-opacity="0.32" stroke-width="1.15"/>
<line x1="898.967" y1="559.0" x2="792.959" y2="365.813" stroke="#a78bfa" stroke-opacity="0.32" stroke-width="1.15"/>
<line x1="393.693" y1="583.38" x2="685.029" y2="603.928" stroke="#a78bfa" stroke-opacity="0.32" stroke-width="1.15"/>
<line x1="761.636" y1="182.26" x2="685.029" y2="603.928" stroke="#a78bfa" stroke-opacity="0.32" stroke-width="1.15"/>
<line x1="886.71" y1="582.685" x2="685.029" y2="603.928" stroke="#a78bfa" stroke-opacity="0.32" stroke-width="1.15"/>
<line x1="875.087" y1="278.881" x2="526.548" y2="566.604" stroke="#a78bfa" stroke-opacity="0.32" stroke-width="1.15"/>
<line x1="779.438" y1="191.44" x2="526.548" y2="566.604" stroke="#a78bfa" stroke-opacity="0.32" stroke-width="1.15"/>
<line x1="898.259" y1="319.471" x2="526.548" y2="566.604" stroke="#a78bfa" stroke-opacity="0.32" stroke-width="1.15"/>
<line x1="842.151" y1="640.898" x2="802.912" y2="488.577" stroke="#a78bfa" stroke-opacity="0.32" stroke-width="1.15"/>
<line x1="898.967" y1="559.0" x2="802.912" y2="488.577" stroke="#a78bfa" stroke-opacity="0.32" stroke-width="1.15"/>
<line x1="692.681" y1="159.911" x2="802.912" y2="488.577" stroke="#a78bfa" stroke-opacity="0.32" stroke-width="1.15"/>
<line x1="783.066" y1="348.174" x2="692.13" y2="454.088" stroke="#fbbf24" stroke-opacity="0.32" stroke-width="1.15"/>
<line x1="754.256" y1="314.121" x2="692.13" y2="454.088" stroke="#fbbf24" stroke-opacity="0.32" stroke-width="1.15"/>
<line x1="355.767" y1="419.099" x2="692.13" y2="454.088" stroke="#fbbf24" stroke-opacity="0.32" stroke-width="1.15"/>
<line x1="808.405" y1="416.764" x2="644.037" y2="386.151" stroke="#fbbf24" stroke-opacity="0.32" stroke-width="1.15"/>
<line x1="371.206" y1="534.735" x2="644.037" y2="386.151" stroke="#fbbf24" stroke-opacity="0.32" stroke-width="1.15"/>
<line x1="613.535" y1="607.927" x2="644.037" y2="386.151" stroke="#fbbf24" stroke-opacity="0.32" stroke-width="1.15"/>
<line x1="496.375" y1="530.95" x2="618.356" y2="489.473" stroke="#fbbf24" stroke-opacity="0.32" stroke-width="1.15"/>
<line x1="365.442" y1="516.438" x2="618.356" y2="489.473" stroke="#fbbf24" stroke-opacity="0.32" stroke-width="1.15"/>
<line x1="512.671" y1="327.362" x2="618.356" y2="489.473" stroke="#fbbf24" stroke-opacity="0.32" stroke-width="1.15"/>
<line x1="613.535" y1="607.927" x2="546.573" y2="297.974" stroke="#a78bfa" stroke-opacity="0.32" stroke-width="1.15"/>
<line x1="923.968" y1="415.765" x2="546.573" y2="297.974" stroke="#a78bfa" stroke-opacity="0.32" stroke-width="1.15"/>
<line x1="906.98" y1="539.733" x2="546.573" y2="297.974" stroke="#a78bfa" stroke-opacity="0.32" stroke-width="1.15"/>
<line x1="779.499" y1="688.526" x2="664.594" y2="271.788" stroke="#a78bfa" stroke-opacity="0.32" stroke-width="1.15"/>
<line x1="920.238" y1="388.117" x2="664.594" y2="271.788" stroke="#a78bfa" stroke-opacity="0.32" stroke-width="1.15"/>
<line x1="914.335" y1="517.236" x2="664.594" y2="271.788" stroke="#a78bfa" stroke-opacity="0.32" stroke-width="1.15"/>
<line x1="664.594" y1="271.788" x2="766.49" y2="553.579" stroke="#a78bfa" stroke-opacity="0.32" stroke-width="1.15"/>
<line x1="546.573" y1="297.974" x2="766.49" y2="553.579" stroke="#a78bfa" stroke-opacity="0.32" stroke-width="1.15"/>
<line x1="453.955" y1="655.899" x2="766.49" y2="553.579" stroke="#a78bfa" stroke-opacity="0.32" stroke-width="1.15"/>
<line x1="689.202" y1="720.721" x2="781.144" y2="534.754" stroke="#a78bfa" stroke-opacity="0.32" stroke-width="1.15"/>
<line x1="566.038" y1="715.236" x2="781.144" y2="534.754" stroke="#a78bfa" stroke-opacity="0.32" stroke-width="1.15"/>
<line x1="662.373" y1="724.121" x2="781.144" y2="534.754" stroke="#a78bfa" stroke-opacity="0.32" stroke-width="1.15"/>
<line x1="819.988" y1="660.974" x2="635.982" y2="609.953" stroke="#a78bfa" stroke-opacity="0.32" stroke-width="1.15"/>
<line x1="638.66" y1="724.997" x2="635.982" y2="609.953" stroke="#a78bfa" stroke-opacity="0.32" stroke-width="1.15"/>
<line x1="615.034" y1="723.904" x2="767.03" y2="327.025" stroke="#a78bfa" stroke-opacity="0.32" stroke-width="1.15"/>
<line x1="500.737" y1="688.658" x2="767.03" y2="327.025" stroke="#a78bfa" stroke-opacity="0.32" stroke-width="1.15"/>
<line x1="898.967" y1="559.0" x2="707.744" y2="595.919" stroke="#a78bfa" stroke-opacity="0.32" stroke-width="1.15"/>
<line x1="886.71" y1="582.685" x2="707.744" y2="595.919" stroke="#a78bfa" stroke-opacity="0.32" stroke-width="1.15"/>
<line x1="405.597" y1="602.111" x2="678.526" y2="402.162" stroke="#fbbf24" stroke-opacity="0.32" stroke-width="1.15"/>
<line x1="613.535" y1="607.927" x2="678.526" y2="402.162" stroke="#fbbf24" stroke-opacity="0.32" stroke-width="1.15"/>
<line x1="371.206" y1="534.735" x2="678.526" y2="402.162" stroke="#fbbf24" stroke-opacity="0.32" stroke-width="1.15"/>
<line x1="908.962" y1="345.743" x2="590.452" y2="277.381" stroke="#a78bfa" stroke-opacity="0.32" stroke-width="1.15"/>
<line x1="819.988" y1="660.974" x2="590.452" y2="277.381" stroke="#a78bfa" stroke-opacity="0.32" stroke-width="1.15"/>
<line x1="914.335" y1="517.236" x2="528.786" y2="311.425" stroke="#a78bfa" stroke-opacity="0.32" stroke-width="1.15"/>
<line x1="737.176" y1="172.079" x2="528.786" y2="311.425" stroke="#a78bfa" stroke-opacity="0.32" stroke-width="1.15"/>
<line x1="923.968" y1="415.765" x2="569.43" y2="285.34" stroke="#a78bfa" stroke-opacity="0.32" stroke-width="1.15"/>
<line x1="638.66" y1="724.997" x2="569.43" y2="285.34" stroke="#a78bfa" stroke-opacity="0.32" stroke-width="1.15"/>
<line x1="779.499" y1="688.526" x2="749.137" y2="570.342" stroke="#a78bfa" stroke-opacity="0.32" stroke-width="1.15"/>
<line x1="920.238" y1="388.117" x2="749.137" y2="570.342" stroke="#a78bfa" stroke-opacity="0.32" stroke-width="1.15"/>
<line x1="914.335" y1="517.236" x2="749.137" y2="570.342" stroke="#a78bfa" stroke-opacity="0.32" stroke-width="1.15"/>
<line x1="713.017" y1="715.488" x2="486.55" y2="366.835" stroke="#a78bfa" stroke-opacity="0.32" stroke-width="1.15"/>
<line x1="914.335" y1="517.236" x2="486.55" y2="366.835" stroke="#a78bfa" stroke-opacity="0.32" stroke-width="1.15"/>
<line x1="908.962" y1="345.743" x2="486.55" y2="366.835" stroke="#a78bfa" stroke-opacity="0.32" stroke-width="1.15"/>
<line x1="914.335" y1="517.236" x2="728.838" y2="584.941" stroke="#a78bfa" stroke-opacity="0.32" stroke-width="1.15"/>
<line x1="644.047" y1="155.029" x2="728.838" y2="584.941" stroke="#a78bfa" stroke-opacity="0.32" stroke-width="1.15"/>
<line x1="689.202" y1="720.721" x2="728.838" y2="584.941" stroke="#a78bfa" stroke-opacity="0.32" stroke-width="1.15"/>
<line x1="914.335" y1="517.236" x2="732.027" y2="297.063" stroke="#a78bfa" stroke-opacity="0.32" stroke-width="1.15"/>
<line x1="739.152" y1="707.196" x2="732.027" y2="297.063" stroke="#a78bfa" stroke-opacity="0.32" stroke-width="1.15"/>
<line x1="819.988" y1="660.974" x2="613.839" y2="272.025" stroke="#a78bfa" stroke-opacity="0.32" stroke-width="1.15"/>
<line x1="638.66" y1="724.997" x2="613.839" y2="272.025" stroke="#a78bfa" stroke-opacity="0.32" stroke-width="1.15"/>
<line x1="566.038" y1="715.236" x2="613.839" y2="272.025" stroke="#a78bfa" stroke-opacity="0.32" stroke-width="1.15"/>
<line x1="638.66" y1="724.997" x2="549.432" y2="583.866" stroke="#a78bfa" stroke-opacity="0.32" stroke-width="1.15"/>
<line x1="662.373" y1="724.121" x2="549.432" y2="583.866" stroke="#a78bfa" stroke-opacity="0.32" stroke-width="1.15"/>
<line x1="592.261" y1="720.973" x2="495.032" y2="351.206" stroke="#a78bfa" stroke-opacity="0.32" stroke-width="1.15"/>
<line x1="819.988" y1="660.974" x2="495.032" y2="351.206" stroke="#a78bfa" stroke-opacity="0.32" stroke-width="1.15"/>
<line x1="819.988" y1="660.974" x2="509.275" y2="548.679" stroke="#a78bfa" stroke-opacity="0.32" stroke-width="1.15"/>
<line x1="762.638" y1="697.264" x2="509.275" y2="548.679" stroke="#a78bfa" stroke-opacity="0.32" stroke-width="1.15"/>
<line x1="914.335" y1="517.236" x2="810.0" y2="440.004" stroke="#a78bfa" stroke-opacity="0.32" stroke-width="1.15"/>
<line x1="819.988" y1="660.974" x2="810.0" y2="440.004" stroke="#a78bfa" stroke-opacity="0.32" stroke-width="1.15"/>
<line x1="613.535" y1="607.927" x2="471.276" y2="419.206" stroke="#a78bfa" stroke-opacity="0.32" stroke-width="1.15"/>
<line x1="920.238" y1="388.117" x2="471.276" y2="419.206" stroke="#a78bfa" stroke-opacity="0.32" stroke-width="1.15"/>
<line x1="825.952" y1="224.021" x2="471.276" y2="419.206" stroke="#a78bfa" stroke-opacity="0.32" stroke-width="1.15"/>
<line x1="592.261" y1="720.973" x2="589.369" y2="602.285" stroke="#a78bfa" stroke-opacity="0.32" stroke-width="1.15"/>
<line x1="920.238" y1="388.117" x2="589.369" y2="602.285" stroke="#a78bfa" stroke-opacity="0.32" stroke-width="1.15"/>
<line x1="383.48" y1="315.812" x2="589.369" y2="602.285" stroke="#a78bfa" stroke-opacity="0.32" stroke-width="1.15"/>
<line x1="808.405" y1="416.764" x2="477.755" y2="389.239" stroke="#a78bfa" stroke-opacity="0.32" stroke-width="1.15"/>
<line x1="754.256" y1="314.121" x2="477.755" y2="389.239" stroke="#a78bfa" stroke-opacity="0.32" stroke-width="1.15"/>
<line x1="923.968" y1="415.765" x2="477.755" y2="389.239" stroke="#a78bfa" stroke-opacity="0.32" stroke-width="1.15"/>
<line x1="767.03" y1="327.025" x2="793.556" y2="512.942" stroke="#a78bfa" stroke-opacity="0.32" stroke-width="1.15"/>
<line x1="754.256" y1="314.121" x2="793.556" y2="512.942" stroke="#a78bfa" stroke-opacity="0.32" stroke-width="1.15"/>
<line x1="783.066" y1="348.174" x2="714.049" y2="286.974" stroke="#a78bfa" stroke-opacity="0.32" stroke-width="1.15"/>
<line x1="914.335" y1="517.236" x2="714.049" y2="286.974" stroke="#a78bfa" stroke-opacity="0.32" stroke-width="1.15"/>
<line x1="613.839" y1="272.025" x2="684.24" y2="275.857" stroke="#a78bfa" stroke-opacity="0.32" stroke-width="1.15"/>
<line x1="906.98" y1="539.733" x2="684.24" y2="275.857" stroke="#a78bfa" stroke-opacity="0.32" stroke-width="1.15"/>
<line x1="737.176" y1="172.079" x2="684.24" y2="275.857" stroke="#a78bfa" stroke-opacity="0.32" stroke-width="1.15"/>
<line x1="613.839" y1="272.025" x2="641.027" y2="270.003" stroke="#a78bfa" stroke-opacity="0.32" stroke-width="1.15"/>
<line x1="906.98" y1="539.733" x2="641.027" y2="270.003" stroke="#a78bfa" stroke-opacity="0.32" stroke-width="1.15"/>
</g>
<g class="nodes" filter="url(#glow)">
<circle cx="566.038" cy="715.236" r="6" fill="#38bdf8" stroke="#7dd3fc" stroke-width="1.6"><title>API Call</title></circle>
<circle cx="898.259" cy="319.471" r="6" fill="#38bdf8" stroke="#7dd3fc" stroke-width="1.6"><title>Audience Model</title></circle>
<circle cx="908.962" cy="345.743" r="6" fill="#38bdf8" stroke="#7dd3fc" stroke-width="1.6"><title>Chain-of-Thought Reasoning</title></circle>
<circle cx="914.249" cy="362.461" r="6" fill="#38bdf8" stroke="#7dd3fc" stroke-width="1.6"><title>Chunk Document</title></circle>
<circle cx="920.238" cy="388.117" r="6" fill="#38bdf8" stroke="#7dd3fc" stroke-width="1.6"><title>Cite Sources</title></circle>
<circle cx="644.047" cy="155.029" r="6" fill="#38bdf8" stroke="#7dd3fc" stroke-width="1.6"><title>Classify</title></circle>
<circle cx="545.661" cy="708.933" r="6" fill="#38bdf8" stroke="#7dd3fc" stroke-width="1.6"><title>Code Execution</title></circle>
<circle cx="523.249" cy="699.989" r="6" fill="#38bdf8" stroke="#7dd3fc" stroke-width="1.6"><title>Code Explain</title></circle>
<circle cx="923.968" cy="415.765" r="6" fill="#38bdf8" stroke="#7dd3fc" stroke-width="1.6"><title>Code Generation</title></circle>
<circle cx="500.737" cy="688.658" r="6" fill="#38bdf8" stroke="#7dd3fc" stroke-width="1.6"><title>Computer Use</title></circle>
<circle cx="421.405" cy="257.13" r="6" fill="#38bdf8" stroke="#7dd3fc" stroke-width="1.6"><title>Context Compression</title></circle>
<circle cx="479.234" cy="675.328" r="6" fill="#38bdf8" stroke="#7dd3fc" stroke-width="1.6"><title>Data Visualize</title></circle>
<circle cx="453.955" cy="655.899" r="6" fill="#38bdf8" stroke="#7dd3fc" stroke-width="1.6"><title>Detect Anomaly</title></circle>
<circle cx="924.986" cy="437.219" r="6" fill="#38bdf8" stroke="#7dd3fc" stroke-width="1.6"><title>Diff Content</title></circle>
<circle cx="660.753" cy="155.757" r="6" fill="#38bdf8" stroke="#7dd3fc" stroke-width="1.6"><title>Document Editing</title></circle>
<circle cx="923.788" cy="466.261" r="6" fill="#38bdf8" stroke="#7dd3fc" stroke-width="1.6"><title>Embed Text</title></circle>
<circle cx="920.442" cy="490.766" r="6" fill="#38bdf8" stroke="#7dd3fc" stroke-width="1.6"><title>Error Interpretation</title></circle>
<circle cx="914.335" cy="517.236" r="6" fill="#38bdf8" stroke="#7dd3fc" stroke-width="1.6"><title>Evaluate Output</title></circle>
<circle cx="906.98" cy="539.733" r="6" fill="#38bdf8" stroke="#7dd3fc" stroke-width="1.6"><title>Execute Bash</title></circle>
<circle cx="898.967" cy="559.0" r="6" fill="#38bdf8" stroke="#7dd3fc" stroke-width="1.6"><title>Extract Entities</title></circle>
<circle cx="520.817" cy="181.117" r="6" fill="#38bdf8" stroke="#7dd3fc" stroke-width="1.6"><title>Few-Shot Learning</title></circle>
<circle cx="543.251" cy="171.924" r="6" fill="#38bdf8" stroke="#7dd3fc" stroke-width="1.6"><title>Fine-Tune</title></circle>
<circle cx="692.681" cy="159.911" r="6" fill="#38bdf8" stroke="#7dd3fc" stroke-width="1.6"><title>Format Output</title></circle>
<circle cx="715.975" cy="165.313" r="6" fill="#38bdf8" stroke="#7dd3fc" stroke-width="1.6"><title>Framework Upgrade</title></circle>
<circle cx="435.853" cy="638.869" r="6" fill="#38bdf8" stroke="#7dd3fc" stroke-width="1.6"><title>Generate SQL</title></circle>
<circle cx="422.22" cy="623.839" r="6" fill="#38bdf8" stroke="#7dd3fc" stroke-width="1.6"><title>Generate Test</title></circle>
<circle cx="737.176" cy="172.079" r="6" fill="#38bdf8" stroke="#7dd3fc" stroke-width="1.6"><title>Generate Text</title></circle>
<circle cx="405.597" cy="602.111" r="6" fill="#38bdf8" stroke="#7dd3fc" stroke-width="1.6"><title>Hypothesis Generation</title></circle>
<circle cx="393.693" cy="583.38" r="6" fill="#38bdf8" stroke="#7dd3fc" stroke-width="1.6"><title>Image Caption</title></circle>
<circle cx="380.964" cy="558.849" r="6" fill="#38bdf8" stroke="#7dd3fc" stroke-width="1.6"><title>Image Generate</title></circle>
<circle cx="569.865" cy="163.764" r="6" fill="#38bdf8" stroke="#7dd3fc" stroke-width="1.6"><title>Issue Triage</title></circle>
<circle cx="886.71" cy="582.685" r="6" fill="#38bdf8" stroke="#7dd3fc" stroke-width="1.6"><title>Logical Inference</title></circle>
<circle cx="440.089" cy="236.873" r="6" fill="#38bdf8" stroke="#7dd3fc" stroke-width="1.6"><title>MCP Integration</title></circle>
<circle cx="371.206" cy="534.735" r="6" fill="#38bdf8" stroke="#7dd3fc" stroke-width="1.6"><title>Math Reason</title></circle>
<circle cx="365.442" cy="516.438" r="6" fill="#38bdf8" stroke="#7dd3fc" stroke-width="1.6"><title>Memory Manage</title></circle>
<circle cx="359.102" cy="488.178" r="6" fill="#38bdf8" stroke="#7dd3fc" stroke-width="1.6"><title>OCR</title></circle>
<circle cx="356.368" cy="467.886" r="6" fill="#38bdf8" stroke="#7dd3fc" stroke-width="1.6"><title>Object Detection</title></circle>
<circle cx="355.032" cy="444.282" r="6" fill="#38bdf8" stroke="#7dd3fc" stroke-width="1.6"><title>Parallel Execution</title></circle>
<circle cx="872.873" cy="604.301" r="6" fill="#38bdf8" stroke="#7dd3fc" stroke-width="1.6"><title>Parse HTML</title></circle>
<circle cx="857.419" cy="624.266" r="6" fill="#38bdf8" stroke="#7dd3fc" stroke-width="1.6"><title>Parse JSON</title></circle>
<circle cx="842.151" cy="640.898" r="6" fill="#38bdf8" stroke="#7dd3fc" stroke-width="1.6"><title>Parse PDF</title></circle>
<circle cx="819.988" cy="660.974" r="6" fill="#38bdf8" stroke="#7dd3fc" stroke-width="1.6"><title>Plan and Decompose</title></circle>
<circle cx="456.789" cy="221.691" r="6" fill="#38bdf8" stroke="#7dd3fc" stroke-width="1.6"><title>Prompt Injection Defense</title></circle>
<circle cx="761.636" cy="182.26" r="6" fill="#38bdf8" stroke="#7dd3fc" stroke-width="1.6"><title>Question Answer</title></circle>
<circle cx="806.527" cy="671.287" r="6" fill="#38bdf8" stroke="#7dd3fc" stroke-width="1.6"><title>Rank</title></circle>
<circle cx="355.767" cy="419.099" r="6" fill="#38bdf8" stroke="#7dd3fc" stroke-width="1.6"><title>Refactor Code</title></circle>
<circle cx="359.343" cy="390.437" r="6" fill="#38bdf8" stroke="#7dd3fc" stroke-width="1.6"><title>Requirements Analysis</title></circle>
<circle cx="779.499" cy="688.526" r="6" fill="#38bdf8" stroke="#7dd3fc" stroke-width="1.6"><title>Retrieve</title></circle>
<circle cx="364.29" cy="367.828" r="6" fill="#38bdf8" stroke="#7dd3fc" stroke-width="1.6"><title>Reward Modeling</title></circle>
<circle cx="762.638" cy="697.264" r="6" fill="#38bdf8" stroke="#7dd3fc" stroke-width="1.6"><title>Route Intent</title></circle>
<circle cx="371.243" cy="345.158" r="6" fill="#38bdf8" stroke="#7dd3fc" stroke-width="1.6"><title>Schema Design</title></circle>
<circle cx="383.48" cy="315.812" r="6" fill="#38bdf8" stroke="#7dd3fc" stroke-width="1.6"><title>Scientific Visualization</title></circle>
<circle cx="739.152" cy="707.196" r="6" fill="#38bdf8" stroke="#7dd3fc" stroke-width="1.6"><title>Score Relevance</title></circle>
<circle cx="591.237" cy="159.203" r="6" fill="#38bdf8" stroke="#7dd3fc" stroke-width="1.6"><title>Self-Consistency</title></circle>
<circle cx="713.017" cy="715.488" r="6" fill="#38bdf8" stroke="#7dd3fc" stroke-width="1.6"><title>Self-Critique</title></circle>
<circle cx="613.009" cy="156.281" r="6" fill="#38bdf8" stroke="#7dd3fc" stroke-width="1.6"><title>Semantic Cache</title></circle>
<circle cx="779.438" cy="191.44" r="6" fill="#38bdf8" stroke="#7dd3fc" stroke-width="1.6"><title>Sentiment Analysis</title></circle>
<circle cx="805.96" cy="208.305" r="6" fill="#38bdf8" stroke="#7dd3fc" stroke-width="1.6"><title>Skill Discovery</title></circle>
<circle cx="393.447" cy="297.043" r="6" fill="#38bdf8" stroke="#7dd3fc" stroke-width="1.6"><title>Speech to Text</title></circle>
<circle cx="473.197" cy="208.912" r="6" fill="#38bdf8" stroke="#7dd3fc" stroke-width="1.6"><title>Statistical Analysis</title></circle>
<circle cx="689.202" cy="720.721" r="6" fill="#38bdf8" stroke="#7dd3fc" stroke-width="1.6"><title>Structured Output Generation</title></circle>
<circle cx="825.952" cy="224.021" r="6" fill="#38bdf8" stroke="#7dd3fc" stroke-width="1.6"><title>Summarize</title></circle>
<circle cx="844.275" cy="241.262" r="6" fill="#38bdf8" stroke="#7dd3fc" stroke-width="1.6"><title>Test-Driven Development</title></circle>
<circle cx="406.304" cy="276.871" r="6" fill="#38bdf8" stroke="#7dd3fc" stroke-width="1.6"><title>Text to Speech</title></circle>
<circle cx="860.637" cy="259.599" r="6" fill="#38bdf8" stroke="#7dd3fc" stroke-width="1.6"><title>Tokenize</title></circle>
<circle cx="662.373" cy="724.121" r="6" fill="#38bdf8" stroke="#7dd3fc" stroke-width="1.6"><title>Tool Select</title></circle>
<circle cx="638.66" cy="724.997" r="6" fill="#38bdf8" stroke="#7dd3fc" stroke-width="1.6"><title>Tool Use</title></circle>
<circle cx="875.087" cy="278.881" r="6" fill="#38bdf8" stroke="#7dd3fc" stroke-width="1.6"><title>Translate</title></circle>
<circle cx="887.852" cy="299.307" r="6" fill="#38bdf8" stroke="#7dd3fc" stroke-width="1.6"><title>UX Audit</title></circle>
<circle cx="496.846" cy="193.561" r="6" fill="#38bdf8" stroke="#7dd3fc" stroke-width="1.6"><title>Visual Question Answering</title></circle>
<circle cx="615.034" cy="723.904" r="6" fill="#38bdf8" stroke="#7dd3fc" stroke-width="1.6"><title>Web Search</title></circle>
<circle cx="592.261" cy="720.973" r="6" fill="#38bdf8" stroke="#7dd3fc" stroke-width="1.6"><title>Write Report</title></circle>
<circle cx="732.027" cy="297.063" r="10" fill="#a78bfa" stroke="#c4b5fd" stroke-width="1.6"><title>Agent Evaluation</title></circle>
<circle cx="754.256" cy="314.121" r="10" fill="#a78bfa" stroke="#c4b5fd" stroke-width="1.6"><title>Automated Testing</title></circle>
<circle cx="478.087" cy="491.809" r="10" fill="#a78bfa" stroke="#c4b5fd" stroke-width="1.6"><title>Autonomous Debug</title></circle>
<circle cx="767.03" cy="327.025" r="10" fill="#a78bfa" stroke="#c4b5fd" stroke-width="1.6"><title>Browser Automation</title></circle>
<circle cx="783.066" cy="348.174" r="10" fill="#a78bfa" stroke="#c4b5fd" stroke-width="1.6"><title>Code Review Pipeline</title></circle>
<circle cx="792.959" cy="365.813" r="10" fill="#a78bfa" stroke="#c4b5fd" stroke-width="1.6"><title>Content Moderation</title></circle>
<circle cx="803.284" cy="392.69" r="10" fill="#a78bfa" stroke="#c4b5fd" stroke-width="1.6"><title>Conversational Agent</title></circle>
<circle cx="808.405" cy="416.764" r="10" fill="#a78bfa" stroke="#c4b5fd" stroke-width="1.6"><title>Data Analysis</title></circle>
<circle cx="641.027" cy="270.003" r="10" fill="#a78bfa" stroke="#c4b5fd" stroke-width="1.6"><title>Deployment Automation</title></circle>
<circle cx="810.0" cy="440.004" r="10" fill="#a78bfa" stroke="#c4b5fd" stroke-width="1.6"><title>Design Review</title></circle>
<circle cx="808.38" cy="463.413" r="10" fill="#a78bfa" stroke="#c4b5fd" stroke-width="1.6"><title>Document Analyst</title></circle>
<circle cx="802.912" cy="488.577" r="10" fill="#a78bfa" stroke="#c4b5fd" stroke-width="1.6"><title>Document Digitization</title></circle>
<circle cx="793.556" cy="512.942" r="10" fill="#a78bfa" stroke="#c4b5fd" stroke-width="1.6"><title>End-to-End Testing</title></circle>
<circle cx="781.144" cy="534.754" r="10" fill="#a78bfa" stroke="#c4b5fd" stroke-width="1.6"><title>Function Calling</title></circle>
<circle cx="664.594" cy="271.788" r="10" fill="#a78bfa" stroke="#c4b5fd" stroke-width="1.6"><title>Gaia Audit</title></circle>
<circle cx="766.49" cy="553.579" r="10" fill="#a78bfa" stroke="#c4b5fd" stroke-width="1.6"><title>Gaia Meta Audit</title></circle>
<circle cx="472.236" cy="467.483" r="10" fill="#a78bfa" stroke="#c4b5fd" stroke-width="1.6"><title>Ghostwrite</title></circle>
<circle cx="749.137" cy="570.342" r="10" fill="#a78bfa" stroke="#c4b5fd" stroke-width="1.6"><title>Grounding</title></circle>
<circle cx="728.838" cy="584.941" r="10" fill="#a78bfa" stroke="#c4b5fd" stroke-width="1.6"><title>Guardrails</title></circle>
<circle cx="707.744" cy="595.919" r="10" fill="#a78bfa" stroke="#c4b5fd" stroke-width="1.6"><title>Knowledge Graph Construction</title></circle>
<circle cx="470.049" cy="435.906" r="10" fill="#a78bfa" stroke="#c4b5fd" stroke-width="1.6"><title>Knowledge Harvest</title></circle>
<circle cx="471.276" cy="419.206" r="10" fill="#a78bfa" stroke="#c4b5fd" stroke-width="1.6"><title>Literature Review</title></circle>
<circle cx="477.755" cy="389.239" r="10" fill="#a78bfa" stroke="#c4b5fd" stroke-width="1.6"><title>ML Pipeline</title></circle>
<circle cx="486.55" cy="366.835" r="10" fill="#a78bfa" stroke="#c4b5fd" stroke-width="1.6"><title>Multi-Agent Debate</title></circle>
<circle cx="685.029" cy="603.928" r="10" fill="#a78bfa" stroke="#c4b5fd" stroke-width="1.6"><title>Multimodal Reasoning</title></circle>
<circle cx="495.032" cy="351.206" r="10" fill="#a78bfa" stroke="#c4b5fd" stroke-width="1.6"><title>PRD Generation</title></circle>
<circle cx="512.671" cy="327.362" r="10" fill="#a78bfa" stroke="#c4b5fd" stroke-width="1.6"><title>Plan and Execute</title></circle>
<circle cx="528.786" cy="311.425" r="10" fill="#a78bfa" stroke="#c4b5fd" stroke-width="1.6"><title>Prompt Optimization</title></circle>
<circle cx="667.996" cy="607.679" r="10" fill="#a78bfa" stroke="#c4b5fd" stroke-width="1.6"><title>RAG Pipeline</title></circle>
<circle cx="635.982" cy="609.953" r="10" fill="#a78bfa" stroke="#c4b5fd" stroke-width="1.6"><title>ReAct Reasoning</title></circle>
<circle cx="546.573" cy="297.974" r="10" fill="#a78bfa" stroke="#c4b5fd" stroke-width="1.6"><title>Registry Curation</title></circle>
<circle cx="684.24" cy="275.857" r="10" fill="#a78bfa" stroke="#c4b5fd" stroke-width="1.6"><title>Release Automation</title></circle>
<circle cx="613.535" cy="607.927" r="10" fill="#a78bfa" stroke="#c4b5fd" stroke-width="1.6"><title>Research</title></circle>
<circle cx="589.369" cy="602.285" r="10" fill="#a78bfa" stroke="#c4b5fd" stroke-width="1.6"><title>Scientific Writing</title></circle>
<circle cx="714.049" cy="286.974" r="10" fill="#a78bfa" stroke="#c4b5fd" stroke-width="1.6"><title>Security Audit</title></circle>
<circle cx="571.592" cy="595.629" r="10" fill="#a78bfa" stroke="#c4b5fd" stroke-width="1.6"><title>Text-to-SQL Pipeline</title></circle>
<circle cx="549.432" cy="583.866" r="10" fill="#a78bfa" stroke="#c4b5fd" stroke-width="1.6"><title>Tool Chaining</title></circle>
<circle cx="569.43" cy="285.34" r="10" fill="#a78bfa" stroke="#c4b5fd" stroke-width="1.6"><title>Tool Creation</title></circle>
<circle cx="526.548" cy="566.604" r="10" fill="#a78bfa" stroke="#c4b5fd" stroke-width="1.6"><title>Translation Pipeline</title></circle>
<circle cx="590.452" cy="277.381" r="10" fill="#a78bfa" stroke="#c4b5fd" stroke-width="1.6"><title>Tree of Thought</title></circle>
<circle cx="509.275" cy="548.679" r="10" fill="#a78bfa" stroke="#c4b5fd" stroke-width="1.6"><title>Vertical Slice Planning</title></circle>
<circle cx="496.375" cy="530.95" r="10" fill="#a78bfa" stroke="#c4b5fd" stroke-width="1.6"><title>Voice Agent</title></circle>
<circle cx="485.107" cy="510.058" r="10" fill="#a78bfa" stroke="#c4b5fd" stroke-width="1.6"><title>Web Scrape</title></circle>
<circle cx="613.839" cy="272.025" r="10" fill="#a78bfa" stroke="#c4b5fd" stroke-width="1.6"><title>Workflow Automation</title></circle>
<circle cx="644.037" cy="386.151" r="15" fill="#fbbf24" stroke="#fde68a" stroke-width="1.6"><title>Autonomous Data Scientist</title></circle>
<circle cx="602.416" cy="401.226" r="15" fill="#fbbf24" stroke="#fde68a" stroke-width="1.6"><title>Autonomous Research Agent</title></circle>
<circle cx="678.526" cy="402.162" r="15" fill="#fbbf24" stroke="#fde68a" stroke-width="1.6"><title>Autonomous Scientific Discovery</title></circle>
<circle cx="692.13" cy="454.088" r="15" fill="#fbbf24" stroke="#fde68a" stroke-width="1.6"><title>Full-Stack Developer</title></circle>
<circle cx="661.846" cy="489.384" r="15" fill="#fbbf24" stroke="#fde68a" stroke-width="1.6"><title>Multi-Agent Orchestration</title></circle>
<circle cx="618.356" cy="489.473" r="15" fill="#fbbf24" stroke="#fde68a" stroke-width="1.6"><title>Real-Time Voice Assistant</title></circle>
<circle cx="586.445" cy="446.917" r="15" fill="#fbbf24" stroke="#fde68a" stroke-width="1.6"><title>Recursive Self-Improvement</title></circle>
</g>
<g class="labels" font-family="Inter, ui-sans-serif, system-ui, sans-serif" text-anchor="middle">
<text x="898.259" y="306.5" fill="#38bdf8" font-size="10" font-weight="600" opacity="0.92">Audience Model</text>
<text x="545.661" y="695.9" fill="#38bdf8" font-size="10" font-weight="600" opacity="0.92">Code Execution</text>
<text x="923.968" y="402.8" fill="#38bdf8" font-size="10" font-weight="600" opacity="0.92">Code Generation</text>
<text x="421.405" y="244.1" fill="#38bdf8" font-size="10" font-weight="600" opacity="0.92">Context Compression</text>
<text x="660.753" y="142.8" fill="#38bdf8" font-size="10" font-weight="600" opacity="0.92">Document Editing</text>
<text x="435.853" y="625.9" fill="#38bdf8" font-size="10" font-weight="600" opacity="0.92">Generate SQL</text>
<text x="422.22" y="610.8" fill="#38bdf8" font-size="10" font-weight="600" opacity="0.92">Generate Test</text>
<text x="405.597" y="589.1" fill="#38bdf8" font-size="10" font-weight="600" opacity="0.92">Hypothesis Generation</text>
<text x="359.102" y="475.2" fill="#38bdf8" font-size="10" font-weight="600" opacity="0.92">OCR</text>
<text x="806.527" y="658.3" fill="#38bdf8" font-size="10" font-weight="600" opacity="0.92">Rank</text>
<text x="371.243" y="332.2" fill="#38bdf8" font-size="10" font-weight="600" opacity="0.92">Schema Design</text>
<text x="383.48" y="302.8" fill="#38bdf8" font-size="10" font-weight="600" opacity="0.92">Scientific Visualization</text>
<text x="779.438" y="178.4" fill="#38bdf8" font-size="10" font-weight="600" opacity="0.92">Sentiment Analysis</text>
<text x="805.96" y="195.3" fill="#38bdf8" font-size="10" font-weight="600" opacity="0.92">Skill Discovery</text>
<text x="638.66" y="712.0" fill="#38bdf8" font-size="10" font-weight="600" opacity="0.92">Tool Use</text>
<text x="592.261" y="708.0" fill="#38bdf8" font-size="10" font-weight="600" opacity="0.92">Write Report</text>
<text x="732.027" y="280.1" fill="#a78bfa" font-size="12" font-weight="600" opacity="0.92">Agent Evaluation</text>
<text x="754.256" y="297.1" fill="#a78bfa" font-size="12" font-weight="600" opacity="0.92">Automated Testing</text>
<text x="478.087" y="474.8" fill="#a78bfa" font-size="12" font-weight="600" opacity="0.92">Autonomous Debug</text>
<text x="767.03" y="310.0" fill="#a78bfa" font-size="12" font-weight="600" opacity="0.92">Browser Automation</text>
<text x="783.066" y="331.2" fill="#a78bfa" font-size="12" font-weight="600" opacity="0.92">Code Review Pipeline</text>
<text x="792.959" y="348.8" fill="#a78bfa" font-size="12" font-weight="600" opacity="0.92">Content Moderation</text>
<text x="803.284" y="375.7" fill="#a78bfa" font-size="12" font-weight="600" opacity="0.92">Conversational Agent</text>
<text x="808.405" y="399.8" fill="#a78bfa" font-size="12" font-weight="600" opacity="0.92">Data Analysis</text>
<text x="641.027" y="253.0" fill="#a78bfa" font-size="12" font-weight="600" opacity="0.92">Deployment Automation</text>
<text x="810.0" y="423.0" fill="#a78bfa" font-size="12" font-weight="600" opacity="0.92">Design Review</text>
<text x="808.38" y="446.4" fill="#a78bfa" font-size="12" font-weight="600" opacity="0.92">Document Analyst</text>
<text x="802.912" y="471.6" fill="#a78bfa" font-size="12" font-weight="600" opacity="0.92">Document Digitization</text>
<text x="793.556" y="495.9" fill="#a78bfa" font-size="12" font-weight="600" opacity="0.92">End-to-End Testing</text>
<text x="781.144" y="517.8" fill="#a78bfa" font-size="12" font-weight="600" opacity="0.92">Function Calling</text>
<text x="664.594" y="254.8" fill="#a78bfa" font-size="12" font-weight="600" opacity="0.92">Gaia Audit</text>
<text x="766.49" y="536.6" fill="#a78bfa" font-size="12" font-weight="600" opacity="0.92">Gaia Meta Audit</text>
<text x="472.236" y="450.5" fill="#a78bfa" font-size="12" font-weight="600" opacity="0.92">Ghostwrite</text>
<text x="749.137" y="553.3" fill="#a78bfa" font-size="12" font-weight="600" opacity="0.92">Grounding</text>
<text x="728.838" y="567.9" fill="#a78bfa" font-size="12" font-weight="600" opacity="0.92">Guardrails</text>
<text x="707.744" y="578.9" fill="#a78bfa" font-size="12" font-weight="600" opacity="0.92">Knowledge Graph Construction</text>
<text x="470.049" y="418.9" fill="#a78bfa" font-size="12" font-weight="600" opacity="0.92">Knowledge Harvest</text>
<text x="471.276" y="402.2" fill="#a78bfa" font-size="12" font-weight="600" opacity="0.92">Literature Review</text>
<text x="477.755" y="372.2" fill="#a78bfa" font-size="12" font-weight="600" opacity="0.92">ML Pipeline</text>
<text x="486.55" y="349.8" fill="#a78bfa" font-size="12" font-weight="600" opacity="0.92">Multi-Agent Debate</text>
<text x="685.029" y="586.9" fill="#a78bfa" font-size="12" font-weight="600" opacity="0.92">Multimodal Reasoning</text>
<text x="495.032" y="334.2" fill="#a78bfa" font-size="12" font-weight="600" opacity="0.92">PRD Generation</text>
<text x="512.671" y="310.4" fill="#a78bfa" font-size="12" font-weight="600" opacity="0.92">Plan and Execute</text>
<text x="528.786" y="294.4" fill="#a78bfa" font-size="12" font-weight="600" opacity="0.92">Prompt Optimization</text>
<text x="667.996" y="590.7" fill="#a78bfa" font-size="12" font-weight="600" opacity="0.92">RAG Pipeline</text>
<text x="635.982" y="593.0" fill="#a78bfa" font-size="12" font-weight="600" opacity="0.92">ReAct Reasoning</text>
<text x="546.573" y="281.0" fill="#a78bfa" font-size="12" font-weight="600" opacity="0.92">Registry Curation</text>
<text x="684.24" y="258.9" fill="#a78bfa" font-size="12" font-weight="600" opacity="0.92">Release Automation</text>
<text x="613.535" y="590.9" fill="#a78bfa" font-size="12" font-weight="600" opacity="0.92">Research</text>
<text x="589.369" y="585.3" fill="#a78bfa" font-size="12" font-weight="600" opacity="0.92">Scientific Writing</text>
<text x="714.049" y="270.0" fill="#a78bfa" font-size="12" font-weight="600" opacity="0.92">Security Audit</text>
<text x="571.592" y="578.6" fill="#a78bfa" font-size="12" font-weight="600" opacity="0.92">Text-to-SQL Pipeline</text>
<text x="549.432" y="566.9" fill="#a78bfa" font-size="12" font-weight="600" opacity="0.92">Tool Chaining</text>
<text x="569.43" y="268.3" fill="#a78bfa" font-size="12" font-weight="600" opacity="0.92">Tool Creation</text>
<text x="526.548" y="549.6" fill="#a78bfa" font-size="12" font-weight="600" opacity="0.92">Translation Pipeline</text>
<text x="590.452" y="260.4" fill="#a78bfa" font-size="12" font-weight="600" opacity="0.92">Tree of Thought</text>
<text x="509.275" y="531.7" fill="#a78bfa" font-size="12" font-weight="600" opacity="0.92">Vertical Slice Planning</text>
<text x="496.375" y="514.0" fill="#a78bfa" font-size="12" font-weight="600" opacity="0.92">Voice Agent</text>
<text x="485.107" y="493.1" fill="#a78bfa" font-size="12" font-weight="600" opacity="0.92">Web Scrape</text>
<text x="613.839" y="255.0" fill="#a78bfa" font-size="12" font-weight="600" opacity="0.92">Workflow Automation</text>
<text x="644.037" y="364.2" fill="#fbbf24" font-size="16" font-weight="800" opacity="0.92">Autonomous Data Scientist</text>
<text x="602.416" y="379.2" fill="#fbbf24" font-size="16" font-weight="800" opacity="0.92">Autonomous Research Agent</text>
<text x="678.526" y="380.2" fill="#fbbf24" font-size="16" font-weight="800" opacity="0.92">Autonomous Scientific Discovery</text>
<text x="692.13" y="432.1" fill="#fbbf24" font-size="16" font-weight="800" opacity="0.92">Full-Stack Developer</text>
<text x="661.846" y="467.4" fill="#fbbf24" font-size="16" font-weight="800" opacity="0.92">Multi-Agent Orchestration</text>
<text x="618.356" y="467.5" fill="#fbbf24" font-size="16" font-weight="800" opacity="0.92">Real-Time Voice Assistant</text>
<text x="586.445" y="424.9" fill="#fbbf24" font-size="16" font-weight="800" opacity="0.92">Recursive Self-Improvement</text>
</g>
<g font-family="Inter, ui-sans-serif, system-ui, sans-serif" font-size="14" fill="#cbd5e1">
<text x="44" y="748" font-size="20" font-weight="800" fill="#e2e8f0">Gaia Skill Graph</text>
<circle cx="52" cy="765" r="6" fill="#38bdf8"/>
<text x="68" y="770">Basic: 72</text>
<circle cx="52" cy="793" r="6" fill="#a78bfa"/>
<text x="68" y="798">Extra: 44</text>
<circle cx="52" cy="821" r="6" fill="#fbbf24"/>
<text x="68" y="826">Ultimate: 7</text>
</g>
</svg>
