<?xml version="1.0" encoding="UTF-8"?>
<svg xmlns="http://www.w3.org/2000/svg" width="1280" height="880" viewBox="0 0 1280 880" role="img" aria-labelledby="title desc">
<title id="title">Gaia AI Agent Skill Graph</title>
<desc id="desc">Canonical Gaia skill graph rendered from registry/gaia.json, with basic skills on the outer ring, extra skills in the middle ring, and ultimate skills at the core.</desc>
<defs>
<radialGradient id="bg" cx="50%" cy="45%" r="70%"><stop offset="0%" stop-color="#172554"/><stop offset="55%" stop-color="#06111f"/><stop offset="100%" stop-color="#030712"/></radialGradient>
<filter id="glow" x="-50%" y="-50%" width="200%" height="200%"><feGaussianBlur stdDeviation="4" result="blur"/><feMerge><feMergeNode in="blur"/><feMergeNode in="SourceGraphic"/></feMerge></filter>
</defs>
<rect width="1280" height="880" fill="url(#bg)"/>
<g opacity="0.32" stroke="#334155" stroke-width="1" fill="none">
<circle cx="640.0" cy="440.0" r="285"/>
<circle cx="640.0" cy="440.0" r="170"/>
<circle cx="640.0" cy="440.0" r="54"/>
</g>
<g class="edges" fill="none">
<line x1="627.614" y1="724.731" x2="519.392" y2="559.807" stroke="#a78bfa" stroke-opacity="0.32" stroke-width="1.15"/>
<line x1="877.687" y1="597.258" x2="519.392" y2="559.807" stroke="#a78bfa" stroke-opacity="0.32" stroke-width="1.15"/>
<line x1="902.132" y1="551.856" x2="519.392" y2="559.807" stroke="#a78bfa" stroke-opacity="0.32" stroke-width="1.15"/>
<line x1="627.614" y1="724.731" x2="660.1" y2="608.807" stroke="#a78bfa" stroke-opacity="0.32" stroke-width="1.15"/>
<line x1="823.84" y1="222.221" x2="660.1" y2="608.807" stroke="#a78bfa" stroke-opacity="0.32" stroke-width="1.15"/>
<line x1="919.201" y1="382.8" x2="660.1" y2="608.807" stroke="#a78bfa" stroke-opacity="0.32" stroke-width="1.15"/>
<line x1="660.1" y1="608.807" x2="484.133" y2="507.864" stroke="#a78bfa" stroke-opacity="0.32" stroke-width="1.15"/>
<line x1="605.045" y1="722.848" x2="484.133" y2="507.864" stroke="#a78bfa" stroke-opacity="0.32" stroke-width="1.15"/>
<line x1="896.355" y1="315.473" x2="484.133" y2="507.864" stroke="#a78bfa" stroke-opacity="0.32" stroke-width="1.15"/>
<line x1="923.416" y1="409.991" x2="494.688" y2="528.23" stroke="#a78bfa" stroke-opacity="0.32" stroke-width="1.15"/>
<line x1="909.521" y1="532.646" x2="494.688" y2="528.23" stroke="#a78bfa" stroke-opacity="0.32" stroke-width="1.15"/>
<line x1="921.578" y1="484.03" x2="494.688" y2="528.23" stroke="#a78bfa" stroke-opacity="0.32" stroke-width="1.15"/>
<line x1="772.056" y1="692.559" x2="493.581" y2="353.62" stroke="#a78bfa" stroke-opacity="0.32" stroke-width="1.15"/>
<line x1="827.325" y1="654.789" x2="493.581" y2="353.62" stroke="#a78bfa" stroke-opacity="0.32" stroke-width="1.15"/>
<line x1="674.271" y1="722.932" x2="493.581" y2="353.62" stroke="#a78bfa" stroke-opacity="0.32" stroke-width="1.15"/>
<line x1="519.392" y1="559.807" x2="471.006" y2="458.463" stroke="#a78bfa" stroke-opacity="0.32" stroke-width="1.15"/>
<line x1="902.132" y1="551.856" x2="471.006" y2="458.463" stroke="#a78bfa" stroke-opacity="0.32" stroke-width="1.15"/>
<line x1="924.312" y1="459.79" x2="471.006" y2="458.463" stroke="#a78bfa" stroke-opacity="0.32" stroke-width="1.15"/>
<line x1="788.361" y1="683.339" x2="708.301" y2="595.676" stroke="#a78bfa" stroke-opacity="0.32" stroke-width="1.15"/>
<line x1="912.831" y1="357.608" x2="708.301" y2="595.676" stroke="#a78bfa" stroke-opacity="0.32" stroke-width="1.15"/>
<line x1="924.312" y1="459.79" x2="708.301" y2="595.676" stroke="#a78bfa" stroke-opacity="0.32" stroke-width="1.15"/>
<line x1="749.275" y1="703.218" x2="708.301" y2="595.676" stroke="#a78bfa" stroke-opacity="0.32" stroke-width="1.15"/>
<line x1="858.433" y1="256.937" x2="708.301" y2="595.676" stroke="#a78bfa" stroke-opacity="0.32" stroke-width="1.15"/>
<line x1="814.403" y1="665.408" x2="708.301" y2="595.676" stroke="#a78bfa" stroke-opacity="0.32" stroke-width="1.15"/>
<line x1="863.052" y1="617.405" x2="809.998" y2="439.277" stroke="#a78bfa" stroke-opacity="0.32" stroke-width="1.15"/>
<line x1="902.132" y1="551.856" x2="809.998" y2="439.277" stroke="#a78bfa" stroke-opacity="0.32" stroke-width="1.15"/>
<line x1="823.84" y1="222.221" x2="809.998" y2="439.277" stroke="#a78bfa" stroke-opacity="0.32" stroke-width="1.15"/>
<line x1="691.967" y1="159.778" x2="809.998" y2="439.277" stroke="#a78bfa" stroke-opacity="0.32" stroke-width="1.15"/>
<line x1="494.688" y1="528.23" x2="586.445" y2="446.917" stroke="#fbbf24" stroke-opacity="0.32" stroke-width="1.15"/>
<line x1="916.199" y1="510.278" x2="586.445" y2="446.917" stroke="#fbbf24" stroke-opacity="0.32" stroke-width="1.15"/>
<line x1="493.581" y1="353.62" x2="586.445" y2="446.917" stroke="#fbbf24" stroke-opacity="0.32" stroke-width="1.15"/>
<line x1="493.581" y1="353.62" x2="661.846" y2="489.384" stroke="#fbbf24" stroke-opacity="0.32" stroke-width="1.15"/>
<line x1="772.056" y1="692.559" x2="661.846" y2="489.384" stroke="#fbbf24" stroke-opacity="0.32" stroke-width="1.15"/>
<line x1="674.271" y1="722.932" x2="661.846" y2="489.384" stroke="#fbbf24" stroke-opacity="0.32" stroke-width="1.15"/>
<line x1="660.1" y1="608.807" x2="602.416" y2="401.226" stroke="#fbbf24" stroke-opacity="0.32" stroke-width="1.15"/>
<line x1="471.006" y1="458.463" x2="602.416" y2="401.226" stroke="#fbbf24" stroke-opacity="0.32" stroke-width="1.15"/>
<line x1="484.133" y1="507.864" x2="602.416" y2="401.226" stroke="#fbbf24" stroke-opacity="0.32" stroke-width="1.15"/>
<line x1="760.077" y1="181.53" x2="797.272" y2="375.46" stroke="#a78bfa" stroke-opacity="0.32" stroke-width="1.15"/>
<line x1="370.597" y1="532.988" x2="797.272" y2="375.46" stroke="#a78bfa" stroke-opacity="0.32" stroke-width="1.15"/>
<line x1="772.056" y1="692.559" x2="797.272" y2="375.46" stroke="#a78bfa" stroke-opacity="0.32" stroke-width="1.15"/>
<line x1="446.878" y1="649.593" x2="620.016" y2="608.821" stroke="#a78bfa" stroke-opacity="0.32" stroke-width="1.15"/>
<line x1="863.052" y1="617.405" x2="620.016" y2="608.821" stroke="#a78bfa" stroke-opacity="0.32" stroke-width="1.15"/>
<line x1="691.967" y1="159.778" x2="620.016" y2="608.821" stroke="#a78bfa" stroke-opacity="0.32" stroke-width="1.15"/>
<line x1="923.416" y1="409.991" x2="774.925" y2="336.582" stroke="#a78bfa" stroke-opacity="0.32" stroke-width="1.15"/>
<line x1="924.862" y1="431.126" x2="774.925" y2="336.582" stroke="#a78bfa" stroke-opacity="0.32" stroke-width="1.15"/>
<line x1="916.199" y1="510.278" x2="774.925" y2="336.582" stroke="#a78bfa" stroke-opacity="0.32" stroke-width="1.15"/>
<line x1="446.878" y1="649.593" x2="804.435" y2="396.858" stroke="#a78bfa" stroke-opacity="0.32" stroke-width="1.15"/>
<line x1="491.5" y1="683.254" x2="804.435" y2="396.858" stroke="#a78bfa" stroke-opacity="0.32" stroke-width="1.15"/>
<line x1="823.84" y1="222.221" x2="804.435" y2="396.858" stroke="#a78bfa" stroke-opacity="0.32" stroke-width="1.15"/>
<line x1="383.833" y1="315.086" x2="535.685" y2="574.233" stroke="#a78bfa" stroke-opacity="0.32" stroke-width="1.15"/>
<line x1="760.077" y1="181.53" x2="535.685" y2="574.233" stroke="#a78bfa" stroke-opacity="0.32" stroke-width="1.15"/>
<line x1="395.043" y1="294.326" x2="535.685" y2="574.233" stroke="#a78bfa" stroke-opacity="0.32" stroke-width="1.15"/>
<line x1="432.645" y1="635.522" x2="746.314" y2="307.345" stroke="#a78bfa" stroke-opacity="0.32" stroke-width="1.15"/>
<line x1="909.521" y1="532.646" x2="746.314" y2="307.345" stroke="#a78bfa" stroke-opacity="0.32" stroke-width="1.15"/>
<line x1="921.578" y1="484.03" x2="746.314" y2="307.345" stroke="#a78bfa" stroke-opacity="0.32" stroke-width="1.15"/>
<line x1="643.991" y1="155.028" x2="785.385" y2="351.89" stroke="#a78bfa" stroke-opacity="0.32" stroke-width="1.15"/>
<line x1="777.694" y1="190.47" x2="785.385" y2="351.89" stroke="#a78bfa" stroke-opacity="0.32" stroke-width="1.15"/>
<line x1="902.132" y1="551.856" x2="785.385" y2="351.89" stroke="#a78bfa" stroke-opacity="0.32" stroke-width="1.15"/>
<line x1="402.313" y1="597.258" x2="722.625" y2="588.57" stroke="#a78bfa" stroke-opacity="0.32" stroke-width="1.15"/>
<line x1="760.077" y1="181.53" x2="722.625" y2="588.57" stroke="#a78bfa" stroke-opacity="0.32" stroke-width="1.15"/>
<line x1="890.703" y1="575.547" x2="722.625" y2="588.57" stroke="#a78bfa" stroke-opacity="0.32" stroke-width="1.15"/>
<line x1="872.925" y1="275.772" x2="572.552" y2="596.047" stroke="#a78bfa" stroke-opacity="0.32" stroke-width="1.15"/>
<line x1="777.694" y1="190.47" x2="572.552" y2="596.047" stroke="#a78bfa" stroke-opacity="0.32" stroke-width="1.15"/>
<line x1="896.355" y1="315.473" x2="572.552" y2="596.047" stroke="#a78bfa" stroke-opacity="0.32" stroke-width="1.15"/>
<line x1="848.521" y1="634.278" x2="808.459" y2="462.836" stroke="#a78bfa" stroke-opacity="0.32" stroke-width="1.15"/>
<line x1="902.132" y1="551.856" x2="808.459" y2="462.836" stroke="#a78bfa" stroke-opacity="0.32" stroke-width="1.15"/>
<line x1="691.967" y1="159.778" x2="808.459" y2="462.836" stroke="#a78bfa" stroke-opacity="0.32" stroke-width="1.15"/>
<line x1="774.925" y1="336.582" x2="692.13" y2="454.088" stroke="#fbbf24" stroke-opacity="0.32" stroke-width="1.15"/>
<line x1="746.314" y1="307.345" x2="692.13" y2="454.088" stroke="#fbbf24" stroke-opacity="0.32" stroke-width="1.15"/>
<line x1="355.009" y1="437.764" x2="692.13" y2="454.088" stroke="#fbbf24" stroke-opacity="0.32" stroke-width="1.15"/>
<line x1="804.435" y1="396.858" x2="644.037" y2="386.151" stroke="#fbbf24" stroke-opacity="0.32" stroke-width="1.15"/>
<line x1="377.36" y1="550.659" x2="644.037" y2="386.151" stroke="#fbbf24" stroke-opacity="0.32" stroke-width="1.15"/>
<line x1="660.1" y1="608.807" x2="644.037" y2="386.151" stroke="#fbbf24" stroke-opacity="0.32" stroke-width="1.15"/>
<line x1="535.685" y1="574.233" x2="618.356" y2="489.473" stroke="#fbbf24" stroke-opacity="0.32" stroke-width="1.15"/>
<line x1="370.597" y1="532.988" x2="618.356" y2="489.473" stroke="#fbbf24" stroke-opacity="0.32" stroke-width="1.15"/>
<line x1="493.581" y1="353.62" x2="618.356" y2="489.473" stroke="#fbbf24" stroke-opacity="0.32" stroke-width="1.15"/>
<line x1="660.1" y1="608.807" x2="535.199" y2="306.147" stroke="#a78bfa" stroke-opacity="0.32" stroke-width="1.15"/>
<line x1="923.416" y1="409.991" x2="535.199" y2="306.147" stroke="#a78bfa" stroke-opacity="0.32" stroke-width="1.15"/>
<line x1="909.521" y1="532.646" x2="535.199" y2="306.147" stroke="#a78bfa" stroke-opacity="0.32" stroke-width="1.15"/>
<line x1="788.361" y1="683.339" x2="662.557" y2="271.503" stroke="#a78bfa" stroke-opacity="0.32" stroke-width="1.15"/>
<line x1="919.201" y1="382.8" x2="662.557" y2="271.503" stroke="#a78bfa" stroke-opacity="0.32" stroke-width="1.15"/>
<line x1="916.199" y1="510.278" x2="662.557" y2="271.503" stroke="#a78bfa" stroke-opacity="0.32" stroke-width="1.15"/>
<line x1="662.557" y1="271.503" x2="785.828" y2="527.374" stroke="#a78bfa" stroke-opacity="0.32" stroke-width="1.15"/>
<line x1="535.199" y1="306.147" x2="785.828" y2="527.374" stroke="#a78bfa" stroke-opacity="0.32" stroke-width="1.15"/>
<line x1="465.604" y1="665.413" x2="785.828" y2="527.374" stroke="#a78bfa" stroke-opacity="0.32" stroke-width="1.15"/>
<line x1="700.572" y1="718.489" x2="795.839" y2="507.928" stroke="#a78bfa" stroke-opacity="0.32" stroke-width="1.15"/>
<line x1="578.949" y1="718.384" x2="795.839" y2="507.928" stroke="#a78bfa" stroke-opacity="0.32" stroke-width="1.15"/>
<line x1="674.271" y1="722.932" x2="795.839" y2="507.928" stroke="#a78bfa" stroke-opacity="0.32" stroke-width="1.15"/>
<line x1="827.325" y1="654.789" x2="680.431" y2="605.122" stroke="#a78bfa" stroke-opacity="0.32" stroke-width="1.15"/>
<line x1="650.941" y1="724.79" x2="680.431" y2="605.122" stroke="#a78bfa" stroke-opacity="0.32" stroke-width="1.15"/>
<line x1="627.614" y1="724.731" x2="758.777" y2="318.378" stroke="#a78bfa" stroke-opacity="0.32" stroke-width="1.15"/>
<line x1="513.346" y1="695.311" x2="758.777" y2="318.378" stroke="#a78bfa" stroke-opacity="0.32" stroke-width="1.15"/>
<line x1="902.132" y1="551.856" x2="741.185" y2="576.608" stroke="#a78bfa" stroke-opacity="0.32" stroke-width="1.15"/>
<line x1="890.703" y1="575.547" x2="741.185" y2="576.608" stroke="#a78bfa" stroke-opacity="0.32" stroke-width="1.15"/>
<line x1="415.084" y1="615.036" x2="678.526" y2="402.162" stroke="#fbbf24" stroke-opacity="0.32" stroke-width="1.15"/>
<line x1="660.1" y1="608.807" x2="678.526" y2="402.162" stroke="#fbbf24" stroke-opacity="0.32" stroke-width="1.15"/>
<line x1="377.36" y1="550.659" x2="678.526" y2="402.162" stroke="#fbbf24" stroke-opacity="0.32" stroke-width="1.15"/>
<line x1="907.331" y1="341.211" x2="573.485" y2="283.553" stroke="#a78bfa" stroke-opacity="0.32" stroke-width="1.15"/>
<line x1="827.325" y1="654.789" x2="573.485" y2="283.553" stroke="#a78bfa" stroke-opacity="0.32" stroke-width="1.15"/>
<line x1="916.199" y1="510.278" x2="519.889" y2="319.695" stroke="#a78bfa" stroke-opacity="0.32" stroke-width="1.15"/>
<line x1="735.898" y1="171.619" x2="519.889" y2="319.695" stroke="#a78bfa" stroke-opacity="0.32" stroke-width="1.15"/>
<line x1="923.416" y1="409.991" x2="555.044" y2="292.75" stroke="#a78bfa" stroke-opacity="0.32" stroke-width="1.15"/>
<line x1="650.941" y1="724.79" x2="555.044" y2="292.75" stroke="#a78bfa" stroke-opacity="0.32" stroke-width="1.15"/>
<line x1="788.361" y1="683.339" x2="773.249" y2="545.569" stroke="#a78bfa" stroke-opacity="0.32" stroke-width="1.15"/>
<line x1="919.201" y1="382.8" x2="773.249" y2="545.569" stroke="#a78bfa" stroke-opacity="0.32" stroke-width="1.15"/>
<line x1="916.199" y1="510.278" x2="773.249" y2="545.569" stroke="#a78bfa" stroke-opacity="0.32" stroke-width="1.15"/>
<line x1="723.835" y1="712.391" x2="476.478" y2="393.52" stroke="#a78bfa" stroke-opacity="0.32" stroke-width="1.15"/>
<line x1="916.199" y1="510.278" x2="476.478" y2="393.52" stroke="#a78bfa" stroke-opacity="0.32" stroke-width="1.15"/>
<line x1="907.331" y1="341.211" x2="476.478" y2="393.52" stroke="#a78bfa" stroke-opacity="0.32" stroke-width="1.15"/>
<line x1="916.199" y1="510.278" x2="757.835" y2="562.535" stroke="#a78bfa" stroke-opacity="0.32" stroke-width="1.15"/>
<line x1="643.991" y1="155.028" x2="757.835" y2="562.535" stroke="#a78bfa" stroke-opacity="0.32" stroke-width="1.15"/>
<line x1="700.572" y1="718.489" x2="757.835" y2="562.535" stroke="#a78bfa" stroke-opacity="0.32" stroke-width="1.15"/>
<line x1="916.199" y1="510.278" x2="725.112" y2="292.84" stroke="#a78bfa" stroke-opacity="0.32" stroke-width="1.15"/>
<line x1="749.275" y1="703.218" x2="725.112" y2="292.84" stroke="#a78bfa" stroke-opacity="0.32" stroke-width="1.15"/>
<line x1="827.325" y1="654.789" x2="616.003" y2="271.702" stroke="#a78bfa" stroke-opacity="0.32" stroke-width="1.15"/>
<line x1="650.941" y1="724.79" x2="616.003" y2="271.702" stroke="#a78bfa" stroke-opacity="0.32" stroke-width="1.15"/>
<line x1="578.949" y1="718.384" x2="616.003" y2="271.702" stroke="#a78bfa" stroke-opacity="0.32" stroke-width="1.15"/>
<line x1="650.941" y1="724.79" x2="597.41" y2="604.578" stroke="#a78bfa" stroke-opacity="0.32" stroke-width="1.15"/>
<line x1="674.271" y1="722.932" x2="597.41" y2="604.578" stroke="#a78bfa" stroke-opacity="0.32" stroke-width="1.15"/>
<line x1="605.045" y1="722.848" x2="481.681" y2="378.071" stroke="#a78bfa" stroke-opacity="0.32" stroke-width="1.15"/>
<line x1="827.325" y1="654.789" x2="481.681" y2="378.071" stroke="#a78bfa" stroke-opacity="0.32" stroke-width="1.15"/>
<line x1="827.325" y1="654.789" x2="552.258" y2="585.607" stroke="#a78bfa" stroke-opacity="0.32" stroke-width="1.15"/>
<line x1="772.056" y1="692.559" x2="552.258" y2="585.607" stroke="#a78bfa" stroke-opacity="0.32" stroke-width="1.15"/>
<line x1="916.199" y1="510.278" x2="808.546" y2="417.814" stroke="#a78bfa" stroke-opacity="0.32" stroke-width="1.15"/>
<line x1="827.325" y1="654.789" x2="808.546" y2="417.814" stroke="#a78bfa" stroke-opacity="0.32" stroke-width="1.15"/>
<line x1="660.1" y1="608.807" x2="470.029" y2="443.144" stroke="#a78bfa" stroke-opacity="0.32" stroke-width="1.15"/>
<line x1="919.201" y1="382.8" x2="470.029" y2="443.144" stroke="#a78bfa" stroke-opacity="0.32" stroke-width="1.15"/>
<line x1="823.84" y1="222.221" x2="470.029" y2="443.144" stroke="#a78bfa" stroke-opacity="0.32" stroke-width="1.15"/>
<line x1="605.045" y1="722.848" x2="637.379" y2="609.98" stroke="#a78bfa" stroke-opacity="0.32" stroke-width="1.15"/>
<line x1="919.201" y1="382.8" x2="637.379" y2="609.98" stroke="#a78bfa" stroke-opacity="0.32" stroke-width="1.15"/>
<line x1="375.345" y1="334.251" x2="637.379" y2="609.98" stroke="#a78bfa" stroke-opacity="0.32" stroke-width="1.15"/>
<line x1="804.435" y1="396.858" x2="471.835" y2="415.091" stroke="#a78bfa" stroke-opacity="0.32" stroke-width="1.15"/>
<line x1="746.314" y1="307.345" x2="471.835" y2="415.091" stroke="#a78bfa" stroke-opacity="0.32" stroke-width="1.15"/>
<line x1="923.416" y1="409.991" x2="471.835" y2="415.091" stroke="#a78bfa" stroke-opacity="0.32" stroke-width="1.15"/>
<line x1="758.777" y1="318.378" x2="803.584" y2="486.262" stroke="#a78bfa" stroke-opacity="0.32" stroke-width="1.15"/>
<line x1="746.314" y1="307.345" x2="803.584" y2="486.262" stroke="#a78bfa" stroke-opacity="0.32" stroke-width="1.15"/>
<line x1="774.925" y1="336.582" x2="708.25" y2="284.302" stroke="#a78bfa" stroke-opacity="0.32" stroke-width="1.15"/>
<line x1="916.199" y1="510.278" x2="708.25" y2="284.302" stroke="#a78bfa" stroke-opacity="0.32" stroke-width="1.15"/>
<line x1="616.003" y1="271.702" x2="680.629" y2="274.926" stroke="#a78bfa" stroke-opacity="0.32" stroke-width="1.15"/>
<line x1="909.521" y1="532.646" x2="680.629" y2="274.926" stroke="#a78bfa" stroke-opacity="0.32" stroke-width="1.15"/>
<line x1="735.898" y1="171.619" x2="680.629" y2="274.926" stroke="#a78bfa" stroke-opacity="0.32" stroke-width="1.15"/>
<line x1="616.003" y1="271.702" x2="640.941" y2="270.003" stroke="#a78bfa" stroke-opacity="0.32" stroke-width="1.15"/>
<line x1="909.521" y1="532.646" x2="640.941" y2="270.003" stroke="#a78bfa" stroke-opacity="0.32" stroke-width="1.15"/>
<line x1="788.361" y1="683.339" x2="597.115" y2="275.498" stroke="#a78bfa" stroke-opacity="0.32" stroke-width="1.15"/>
<line x1="924.312" y1="459.79" x2="597.115" y2="275.498" stroke="#a78bfa" stroke-opacity="0.32" stroke-width="1.15"/>
<line x1="823.84" y1="222.221" x2="597.115" y2="275.498" stroke="#a78bfa" stroke-opacity="0.32" stroke-width="1.15"/>
<line x1="804.435" y1="396.858" x2="504.182" y2="337.758" stroke="#a78bfa" stroke-opacity="0.32" stroke-width="1.15"/>
<line x1="627.614" y1="724.731" x2="504.182" y2="337.758" stroke="#a78bfa" stroke-opacity="0.32" stroke-width="1.15"/>
<line x1="455.805" y1="222.521" x2="504.182" y2="337.758" stroke="#a78bfa" stroke-opacity="0.32" stroke-width="1.15"/>
<line x1="660.47" y1="155.736" x2="474.924" y2="480.621" stroke="#a78bfa" stroke-opacity="0.32" stroke-width="1.15"/>
<line x1="896.355" y1="315.473" x2="474.924" y2="480.621" stroke="#a78bfa" stroke-opacity="0.32" stroke-width="1.15"/>
<line x1="691.967" y1="159.778" x2="474.924" y2="480.621" stroke="#a78bfa" stroke-opacity="0.32" stroke-width="1.15"/>
<line x1="491.5" y1="683.254" x2="505.413" y2="543.858" stroke="#a78bfa" stroke-opacity="0.32" stroke-width="1.15"/>
<line x1="691.967" y1="159.778" x2="505.413" y2="543.858" stroke="#a78bfa" stroke-opacity="0.32" stroke-width="1.15"/>
<line x1="605.045" y1="722.848" x2="505.413" y2="543.858" stroke="#a78bfa" stroke-opacity="0.32" stroke-width="1.15"/>
</g>
<g class="nodes" filter="url(#glow)">
<circle cx="578.949" cy="718.384" r="6" fill="#38bdf8" stroke="#7dd3fc" stroke-width="1.6"><title>API Call</title></circle>
<circle cx="896.355" cy="315.473" r="6" fill="#38bdf8" stroke="#7dd3fc" stroke-width="1.6"><title>Audience Model</title></circle>
<circle cx="907.331" cy="341.211" r="6" fill="#38bdf8" stroke="#7dd3fc" stroke-width="1.6"><title>Chain-of-Thought Reasoning</title></circle>
<circle cx="912.831" cy="357.608" r="6" fill="#38bdf8" stroke="#7dd3fc" stroke-width="1.6"><title>Chunk Document</title></circle>
<circle cx="919.201" cy="382.8" r="6" fill="#38bdf8" stroke="#7dd3fc" stroke-width="1.6"><title>Cite Sources</title></circle>
<circle cx="643.991" cy="155.028" r="6" fill="#38bdf8" stroke="#7dd3fc" stroke-width="1.6"><title>Classify</title></circle>
<circle cx="558.58" cy="713.122" r="6" fill="#38bdf8" stroke="#7dd3fc" stroke-width="1.6"><title>Code Execution</title></circle>
<circle cx="536.075" cy="705.376" r="6" fill="#38bdf8" stroke="#7dd3fc" stroke-width="1.6"><title>Code Explain</title></circle>
<circle cx="923.416" cy="409.991" r="6" fill="#38bdf8" stroke="#7dd3fc" stroke-width="1.6"><title>Code Generation</title></circle>
<circle cx="513.346" cy="695.311" r="6" fill="#38bdf8" stroke="#7dd3fc" stroke-width="1.6"><title>Computer Use</title></circle>
<circle cx="408.468" cy="273.814" r="6" fill="#38bdf8" stroke="#7dd3fc" stroke-width="1.6"><title>Context Compression</title></circle>
<circle cx="491.5" cy="683.254" r="6" fill="#38bdf8" stroke="#7dd3fc" stroke-width="1.6"><title>Data Visualize</title></circle>
<circle cx="465.604" cy="665.413" r="6" fill="#38bdf8" stroke="#7dd3fc" stroke-width="1.6"><title>Detect Anomaly</title></circle>
<circle cx="924.862" cy="431.126" r="6" fill="#38bdf8" stroke="#7dd3fc" stroke-width="1.6"><title>Diff Content</title></circle>
<circle cx="660.47" cy="155.736" r="6" fill="#38bdf8" stroke="#7dd3fc" stroke-width="1.6"><title>Document Editing</title></circle>
<circle cx="924.312" cy="459.79" r="6" fill="#38bdf8" stroke="#7dd3fc" stroke-width="1.6"><title>Embed Text</title></circle>
<circle cx="921.578" cy="484.03" r="6" fill="#38bdf8" stroke="#7dd3fc" stroke-width="1.6"><title>Error Interpretation</title></circle>
<circle cx="916.199" cy="510.278" r="6" fill="#38bdf8" stroke="#7dd3fc" stroke-width="1.6"><title>Evaluate Output</title></circle>
<circle cx="909.521" cy="532.646" r="6" fill="#38bdf8" stroke="#7dd3fc" stroke-width="1.6"><title>Execute Bash</title></circle>
<circle cx="902.132" cy="551.856" r="6" fill="#38bdf8" stroke="#7dd3fc" stroke-width="1.6"><title>Extract Entities</title></circle>
<circle cx="500.958" cy="191.218" r="6" fill="#38bdf8" stroke="#7dd3fc" stroke-width="1.6"><title>Feed Monitoring</title></circle>
<circle cx="522.349" cy="180.417" r="6" fill="#38bdf8" stroke="#7dd3fc" stroke-width="1.6"><title>Few-Shot Learning</title></circle>
<circle cx="544.524" cy="171.468" r="6" fill="#38bdf8" stroke="#7dd3fc" stroke-width="1.6"><title>Fine-Tune</title></circle>
<circle cx="691.967" cy="159.778" r="6" fill="#38bdf8" stroke="#7dd3fc" stroke-width="1.6"><title>Format Output</title></circle>
<circle cx="714.959" cy="165.034" r="6" fill="#38bdf8" stroke="#7dd3fc" stroke-width="1.6"><title>Framework Upgrade</title></circle>
<circle cx="446.878" cy="649.593" r="6" fill="#38bdf8" stroke="#7dd3fc" stroke-width="1.6"><title>Generate SQL</title></circle>
<circle cx="432.645" cy="635.522" r="6" fill="#38bdf8" stroke="#7dd3fc" stroke-width="1.6"><title>Generate Test</title></circle>
<circle cx="735.898" cy="171.619" r="6" fill="#38bdf8" stroke="#7dd3fc" stroke-width="1.6"><title>Generate Text</title></circle>
<circle cx="415.084" cy="615.036" r="6" fill="#38bdf8" stroke="#7dd3fc" stroke-width="1.6"><title>Hypothesis Generation</title></circle>
<circle cx="402.313" cy="597.258" r="6" fill="#38bdf8" stroke="#7dd3fc" stroke-width="1.6"><title>Image Caption</title></circle>
<circle cx="388.377" cy="573.832" r="6" fill="#38bdf8" stroke="#7dd3fc" stroke-width="1.6"><title>Image Generate</title></circle>
<circle cx="570.806" cy="163.527" r="6" fill="#38bdf8" stroke="#7dd3fc" stroke-width="1.6"><title>Issue Triage</title></circle>
<circle cx="890.703" cy="575.547" r="6" fill="#38bdf8" stroke="#7dd3fc" stroke-width="1.6"><title>Logical Inference</title></circle>
<circle cx="425.352" cy="252.513" r="6" fill="#38bdf8" stroke="#7dd3fc" stroke-width="1.6"><title>MCP Integration</title></circle>
<circle cx="377.36" cy="550.659" r="6" fill="#38bdf8" stroke="#7dd3fc" stroke-width="1.6"><title>Math Reason</title></circle>
<circle cx="370.597" cy="532.988" r="6" fill="#38bdf8" stroke="#7dd3fc" stroke-width="1.6"><title>Memory Manage</title></circle>
<circle cx="362.641" cy="505.553" r="6" fill="#38bdf8" stroke="#7dd3fc" stroke-width="1.6"><title>OCR</title></circle>
<circle cx="358.696" cy="485.747" r="6" fill="#38bdf8" stroke="#7dd3fc" stroke-width="1.6"><title>Object Detection</title></circle>
<circle cx="355.897" cy="462.598" r="6" fill="#38bdf8" stroke="#7dd3fc" stroke-width="1.6"><title>Parallel Execution</title></circle>
<circle cx="877.687" cy="597.258" r="6" fill="#38bdf8" stroke="#7dd3fc" stroke-width="1.6"><title>Parse HTML</title></circle>
<circle cx="863.052" cy="617.405" r="6" fill="#38bdf8" stroke="#7dd3fc" stroke-width="1.6"><title>Parse JSON</title></circle>
<circle cx="848.521" cy="634.278" r="6" fill="#38bdf8" stroke="#7dd3fc" stroke-width="1.6"><title>Parse PDF</title></circle>
<circle cx="827.325" cy="654.789" r="6" fill="#38bdf8" stroke="#7dd3fc" stroke-width="1.6"><title>Plan and Decompose</title></circle>
<circle cx="440.639" cy="236.333" r="6" fill="#38bdf8" stroke="#7dd3fc" stroke-width="1.6"><title>Prompt Injection Defense</title></circle>
<circle cx="760.077" cy="181.53" r="6" fill="#38bdf8" stroke="#7dd3fc" stroke-width="1.6"><title>Question Answer</title></circle>
<circle cx="814.403" cy="665.408" r="6" fill="#38bdf8" stroke="#7dd3fc" stroke-width="1.6"><title>Rank</title></circle>
<circle cx="355.009" cy="437.764" r="6" fill="#38bdf8" stroke="#7dd3fc" stroke-width="1.6"><title>Refactor Code</title></circle>
<circle cx="356.656" cy="409.324" r="6" fill="#38bdf8" stroke="#7dd3fc" stroke-width="1.6"><title>Requirements Analysis</title></circle>
<circle cx="788.361" cy="683.339" r="6" fill="#38bdf8" stroke="#7dd3fc" stroke-width="1.6"><title>Retrieve</title></circle>
<circle cx="360.02" cy="386.745" r="6" fill="#38bdf8" stroke="#7dd3fc" stroke-width="1.6"><title>Reward Modeling</title></circle>
<circle cx="772.056" cy="692.559" r="6" fill="#38bdf8" stroke="#7dd3fc" stroke-width="1.6"><title>Route Intent</title></circle>
<circle cx="365.329" cy="363.969" r="6" fill="#38bdf8" stroke="#7dd3fc" stroke-width="1.6"><title>Schema Design</title></circle>
<circle cx="375.345" cy="334.251" r="6" fill="#38bdf8" stroke="#7dd3fc" stroke-width="1.6"><title>Scientific Visualization</title></circle>
<circle cx="749.275" cy="703.218" r="6" fill="#38bdf8" stroke="#7dd3fc" stroke-width="1.6"><title>Score Relevance</title></circle>
<circle cx="591.899" cy="159.089" r="6" fill="#38bdf8" stroke="#7dd3fc" stroke-width="1.6"><title>Self-Consistency</title></circle>
<circle cx="723.835" cy="712.391" r="6" fill="#38bdf8" stroke="#7dd3fc" stroke-width="1.6"><title>Self-Critique</title></circle>
<circle cx="613.377" cy="156.246" r="6" fill="#38bdf8" stroke="#7dd3fc" stroke-width="1.6"><title>Semantic Cache</title></circle>
<circle cx="777.694" cy="190.47" r="6" fill="#38bdf8" stroke="#7dd3fc" stroke-width="1.6"><title>Sentiment Analysis</title></circle>
<circle cx="803.981" cy="206.901" r="6" fill="#38bdf8" stroke="#7dd3fc" stroke-width="1.6"><title>Skill Discovery</title></circle>
<circle cx="383.833" cy="315.086" r="6" fill="#38bdf8" stroke="#7dd3fc" stroke-width="1.6"><title>Speech to Text</title></circle>
<circle cx="455.805" cy="222.521" r="6" fill="#38bdf8" stroke="#7dd3fc" stroke-width="1.6"><title>Statistical Analysis</title></circle>
<circle cx="700.572" cy="718.489" r="6" fill="#38bdf8" stroke="#7dd3fc" stroke-width="1.6"><title>Structured Output Generation</title></circle>
<circle cx="823.84" cy="222.221" r="6" fill="#38bdf8" stroke="#7dd3fc" stroke-width="1.6"><title>Summarize</title></circle>
<circle cx="842.087" cy="239.038" r="6" fill="#38bdf8" stroke="#7dd3fc" stroke-width="1.6"><title>Test-Driven Development</title></circle>
<circle cx="395.043" cy="294.326" r="6" fill="#38bdf8" stroke="#7dd3fc" stroke-width="1.6"><title>Text to Speech</title></circle>
<circle cx="858.433" cy="256.937" r="6" fill="#38bdf8" stroke="#7dd3fc" stroke-width="1.6"><title>Tokenize</title></circle>
<circle cx="674.271" cy="722.932" r="6" fill="#38bdf8" stroke="#7dd3fc" stroke-width="1.6"><title>Tool Select</title></circle>
<circle cx="650.941" cy="724.79" r="6" fill="#38bdf8" stroke="#7dd3fc" stroke-width="1.6"><title>Tool Use</title></circle>
<circle cx="872.925" cy="275.772" r="6" fill="#38bdf8" stroke="#7dd3fc" stroke-width="1.6"><title>Translate</title></circle>
<circle cx="885.794" cy="295.742" r="6" fill="#38bdf8" stroke="#7dd3fc" stroke-width="1.6"><title>UX Audit</title></circle>
<circle cx="477.877" cy="205.605" r="6" fill="#38bdf8" stroke="#7dd3fc" stroke-width="1.6"><title>Visual Question Answering</title></circle>
<circle cx="627.614" cy="724.731" r="6" fill="#38bdf8" stroke="#7dd3fc" stroke-width="1.6"><title>Web Search</title></circle>
<circle cx="605.045" cy="722.848" r="6" fill="#38bdf8" stroke="#7dd3fc" stroke-width="1.6"><title>Write Report</title></circle>
<circle cx="725.112" cy="292.84" r="10" fill="#a78bfa" stroke="#c4b5fd" stroke-width="1.6"><title>Agent Evaluation</title></circle>
<circle cx="505.413" cy="543.858" r="10" fill="#a78bfa" stroke="#c4b5fd" stroke-width="1.6"><title>Architecture Diagram</title></circle>
<circle cx="746.314" cy="307.345" r="10" fill="#a78bfa" stroke="#c4b5fd" stroke-width="1.6"><title>Automated Testing</title></circle>
<circle cx="494.688" cy="528.23" r="10" fill="#a78bfa" stroke="#c4b5fd" stroke-width="1.6"><title>Autonomous Debug</title></circle>
<circle cx="758.777" cy="318.378" r="10" fill="#a78bfa" stroke="#c4b5fd" stroke-width="1.6"><title>Browser Automation</title></circle>
<circle cx="774.925" cy="336.582" r="10" fill="#a78bfa" stroke="#c4b5fd" stroke-width="1.6"><title>Code Review Pipeline</title></circle>
<circle cx="785.385" cy="351.89" r="10" fill="#a78bfa" stroke="#c4b5fd" stroke-width="1.6"><title>Content Moderation</title></circle>
<circle cx="797.272" cy="375.46" r="10" fill="#a78bfa" stroke="#c4b5fd" stroke-width="1.6"><title>Conversational Agent</title></circle>
<circle cx="804.435" cy="396.858" r="10" fill="#a78bfa" stroke="#c4b5fd" stroke-width="1.6"><title>Data Analysis</title></circle>
<circle cx="640.941" cy="270.003" r="10" fill="#a78bfa" stroke="#c4b5fd" stroke-width="1.6"><title>Deployment Automation</title></circle>
<circle cx="808.546" cy="417.814" r="10" fill="#a78bfa" stroke="#c4b5fd" stroke-width="1.6"><title>Design Review</title></circle>
<circle cx="809.998" cy="439.277" r="10" fill="#a78bfa" stroke="#c4b5fd" stroke-width="1.6"><title>Document Analyst</title></circle>
<circle cx="808.459" cy="462.836" r="10" fill="#a78bfa" stroke="#c4b5fd" stroke-width="1.6"><title>Document Digitization</title></circle>
<circle cx="803.584" cy="486.262" r="10" fill="#a78bfa" stroke="#c4b5fd" stroke-width="1.6"><title>End-to-End Testing</title></circle>
<circle cx="795.839" cy="507.928" r="10" fill="#a78bfa" stroke="#c4b5fd" stroke-width="1.6"><title>Function Calling</title></circle>
<circle cx="662.557" cy="271.503" r="10" fill="#a78bfa" stroke="#c4b5fd" stroke-width="1.6"><title>Gaia Audit</title></circle>
<circle cx="785.828" cy="527.374" r="10" fill="#a78bfa" stroke="#c4b5fd" stroke-width="1.6"><title>Gaia Meta Audit</title></circle>
<circle cx="484.133" cy="507.864" r="10" fill="#a78bfa" stroke="#c4b5fd" stroke-width="1.6"><title>Ghostwrite</title></circle>
<circle cx="773.249" cy="545.569" r="10" fill="#a78bfa" stroke="#c4b5fd" stroke-width="1.6"><title>Grounding</title></circle>
<circle cx="757.835" cy="562.535" r="10" fill="#a78bfa" stroke="#c4b5fd" stroke-width="1.6"><title>Guardrails</title></circle>
<circle cx="474.924" cy="480.621" r="10" fill="#a78bfa" stroke="#c4b5fd" stroke-width="1.6"><title>Humanize Prose</title></circle>
<circle cx="741.185" cy="576.608" r="10" fill="#a78bfa" stroke="#c4b5fd" stroke-width="1.6"><title>Knowledge Graph Construction</title></circle>
<circle cx="471.006" cy="458.463" r="10" fill="#a78bfa" stroke="#c4b5fd" stroke-width="1.6"><title>Knowledge Harvest</title></circle>
<circle cx="470.029" cy="443.144" r="10" fill="#a78bfa" stroke="#c4b5fd" stroke-width="1.6"><title>Literature Review</title></circle>
<circle cx="471.835" cy="415.091" r="10" fill="#a78bfa" stroke="#c4b5fd" stroke-width="1.6"><title>ML Pipeline</title></circle>
<circle cx="476.478" cy="393.52" r="10" fill="#a78bfa" stroke="#c4b5fd" stroke-width="1.6"><title>Multi-Agent Debate</title></circle>
<circle cx="722.625" cy="588.57" r="10" fill="#a78bfa" stroke="#c4b5fd" stroke-width="1.6"><title>Multimodal Reasoning</title></circle>
<circle cx="481.681" cy="378.071" r="10" fill="#a78bfa" stroke="#c4b5fd" stroke-width="1.6"><title>PRD Generation</title></circle>
<circle cx="493.581" cy="353.62" r="10" fill="#a78bfa" stroke="#c4b5fd" stroke-width="1.6"><title>Plan and Execute</title></circle>
<circle cx="504.182" cy="337.758" r="10" fill="#a78bfa" stroke="#c4b5fd" stroke-width="1.6"><title>Prediction Market Analysis</title></circle>
<circle cx="519.889" cy="319.695" r="10" fill="#a78bfa" stroke="#c4b5fd" stroke-width="1.6"><title>Prompt Optimization</title></circle>
<circle cx="708.301" cy="595.676" r="10" fill="#a78bfa" stroke="#c4b5fd" stroke-width="1.6"><title>RAG Pipeline</title></circle>
<circle cx="680.431" cy="605.122" r="10" fill="#a78bfa" stroke="#c4b5fd" stroke-width="1.6"><title>ReAct Reasoning</title></circle>
<circle cx="535.199" cy="306.147" r="10" fill="#a78bfa" stroke="#c4b5fd" stroke-width="1.6"><title>Registry Curation</title></circle>
<circle cx="680.629" cy="274.926" r="10" fill="#a78bfa" stroke="#c4b5fd" stroke-width="1.6"><title>Release Automation</title></circle>
<circle cx="660.1" cy="608.807" r="10" fill="#a78bfa" stroke="#c4b5fd" stroke-width="1.6"><title>Research</title></circle>
<circle cx="637.379" cy="609.98" r="10" fill="#a78bfa" stroke="#c4b5fd" stroke-width="1.6"><title>Scientific Writing</title></circle>
<circle cx="708.25" cy="284.302" r="10" fill="#a78bfa" stroke="#c4b5fd" stroke-width="1.6"><title>Security Audit</title></circle>
<circle cx="620.016" cy="608.821" r="10" fill="#a78bfa" stroke="#c4b5fd" stroke-width="1.6"><title>Text-to-SQL Pipeline</title></circle>
<circle cx="597.41" cy="604.578" r="10" fill="#a78bfa" stroke="#c4b5fd" stroke-width="1.6"><title>Tool Chaining</title></circle>
<circle cx="555.044" cy="292.75" r="10" fill="#a78bfa" stroke="#c4b5fd" stroke-width="1.6"><title>Tool Creation</title></circle>
<circle cx="572.552" cy="596.047" r="10" fill="#a78bfa" stroke="#c4b5fd" stroke-width="1.6"><title>Translation Pipeline</title></circle>
<circle cx="573.485" cy="283.553" r="10" fill="#a78bfa" stroke="#c4b5fd" stroke-width="1.6"><title>Tree of Thought</title></circle>
<circle cx="552.258" cy="585.607" r="10" fill="#a78bfa" stroke="#c4b5fd" stroke-width="1.6"><title>Vertical Slice Planning</title></circle>
<circle cx="535.685" cy="574.233" r="10" fill="#a78bfa" stroke="#c4b5fd" stroke-width="1.6"><title>Voice Agent</title></circle>
<circle cx="519.392" cy="559.807" r="10" fill="#a78bfa" stroke="#c4b5fd" stroke-width="1.6"><title>Web Scrape</title></circle>
<circle cx="597.115" cy="275.498" r="10" fill="#a78bfa" stroke="#c4b5fd" stroke-width="1.6"><title>Wiki Search</title></circle>
<circle cx="616.003" cy="271.702" r="10" fill="#a78bfa" stroke="#c4b5fd" stroke-width="1.6"><title>Workflow Automation</title></circle>
<circle cx="644.037" cy="386.151" r="15" fill="#fbbf24" stroke="#fde68a" stroke-width="1.6"><title>Autonomous Data Scientist</title></circle>
<circle cx="602.416" cy="401.226" r="15" fill="#fbbf24" stroke="#fde68a" stroke-width="1.6"><title>Autonomous Research Agent</title></circle>
<circle cx="678.526" cy="402.162" r="15" fill="#fbbf24" stroke="#fde68a" stroke-width="1.6"><title>Autonomous Scientific Discovery</title></circle>
<circle cx="692.13" cy="454.088" r="15" fill="#fbbf24" stroke="#fde68a" stroke-width="1.6"><title>Full-Stack Developer</title></circle>
<circle cx="661.846" cy="489.384" r="15" fill="#fbbf24" stroke="#fde68a" stroke-width="1.6"><title>Multi-Agent Orchestration</title></circle>
<circle cx="618.356" cy="489.473" r="15" fill="#fbbf24" stroke="#fde68a" stroke-width="1.6"><title>Real-Time Voice Assistant</title></circle>
<circle cx="586.445" cy="446.917" r="15" fill="#fbbf24" stroke="#fde68a" stroke-width="1.6"><title>Recursive Self-Improvement</title></circle>
</g>
<g class="labels" font-family="Inter, ui-sans-serif, system-ui, sans-serif" text-anchor="middle">
<text x="896.355" y="302.5" fill="#38bdf8" font-size="10" font-weight="600" opacity="0.92">Audience Model</text>
<text x="558.58" y="700.1" fill="#38bdf8" font-size="10" font-weight="600" opacity="0.92">Code Execution</text>
<text x="923.416" y="397.0" fill="#38bdf8" font-size="10" font-weight="600" opacity="0.92">Code Generation</text>
<text x="408.468" y="260.8" fill="#38bdf8" font-size="10" font-weight="600" opacity="0.92">Context Compression</text>
<text x="660.47" y="142.7" fill="#38bdf8" font-size="10" font-weight="600" opacity="0.92">Document Editing</text>
<text x="446.878" y="636.6" fill="#38bdf8" font-size="10" font-weight="600" opacity="0.92">Generate SQL</text>
<text x="432.645" y="622.5" fill="#38bdf8" font-size="10" font-weight="600" opacity="0.92">Generate Test</text>
<text x="415.084" y="602.0" fill="#38bdf8" font-size="10" font-weight="600" opacity="0.92">Hypothesis Generation</text>
<text x="362.641" y="492.6" fill="#38bdf8" font-size="10" font-weight="600" opacity="0.92">OCR</text>
<text x="814.403" y="652.4" fill="#38bdf8" font-size="10" font-weight="600" opacity="0.92">Rank</text>
<text x="365.329" y="351.0" fill="#38bdf8" font-size="10" font-weight="600" opacity="0.92">Schema Design</text>
<text x="375.345" y="321.3" fill="#38bdf8" font-size="10" font-weight="600" opacity="0.92">Scientific Visualization</text>
<text x="777.694" y="177.5" fill="#38bdf8" font-size="10" font-weight="600" opacity="0.92">Sentiment Analysis</text>
<text x="803.981" y="193.9" fill="#38bdf8" font-size="10" font-weight="600" opacity="0.92">Skill Discovery</text>
<text x="650.941" y="711.8" fill="#38bdf8" font-size="10" font-weight="600" opacity="0.92">Tool Use</text>
<text x="605.045" y="709.8" fill="#38bdf8" font-size="10" font-weight="600" opacity="0.92">Write Report</text>
<text x="725.112" y="275.8" fill="#a78bfa" font-size="12" font-weight="600" opacity="0.92">Agent Evaluation</text>
<text x="505.413" y="526.9" fill="#a78bfa" font-size="12" font-weight="600" opacity="0.92">Architecture Diagram</text>
<text x="746.314" y="290.3" fill="#a78bfa" font-size="12" font-weight="600" opacity="0.92">Automated Testing</text>
<text x="494.688" y="511.2" fill="#a78bfa" font-size="12" font-weight="600" opacity="0.92">Autonomous Debug</text>
<text x="758.777" y="301.4" fill="#a78bfa" font-size="12" font-weight="600" opacity="0.92">Browser Automation</text>
<text x="774.925" y="319.6" fill="#a78bfa" font-size="12" font-weight="600" opacity="0.92">Code Review Pipeline</text>
<text x="785.385" y="334.9" fill="#a78bfa" font-size="12" font-weight="600" opacity="0.92">Content Moderation</text>
<text x="797.272" y="358.5" fill="#a78bfa" font-size="12" font-weight="600" opacity="0.92">Conversational Agent</text>
<text x="804.435" y="379.9" fill="#a78bfa" font-size="12" font-weight="600" opacity="0.92">Data Analysis</text>
<text x="640.941" y="253.0" fill="#a78bfa" font-size="12" font-weight="600" opacity="0.92">Deployment Automation</text>
<text x="808.546" y="400.8" fill="#a78bfa" font-size="12" font-weight="600" opacity="0.92">Design Review</text>
<text x="809.998" y="422.3" fill="#a78bfa" font-size="12" font-weight="600" opacity="0.92">Document Analyst</text>
<text x="808.459" y="445.8" fill="#a78bfa" font-size="12" font-weight="600" opacity="0.92">Document Digitization</text>
<text x="803.584" y="469.3" fill="#a78bfa" font-size="12" font-weight="600" opacity="0.92">End-to-End Testing</text>
<text x="795.839" y="490.9" fill="#a78bfa" font-size="12" font-weight="600" opacity="0.92">Function Calling</text>
<text x="662.557" y="254.5" fill="#a78bfa" font-size="12" font-weight="600" opacity="0.92">Gaia Audit</text>
<text x="785.828" y="510.4" fill="#a78bfa" font-size="12" font-weight="600" opacity="0.92">Gaia Meta Audit</text>
<text x="484.133" y="490.9" fill="#a78bfa" font-size="12" font-weight="600" opacity="0.92">Ghostwrite</text>
<text x="773.249" y="528.6" fill="#a78bfa" font-size="12" font-weight="600" opacity="0.92">Grounding</text>
<text x="757.835" y="545.5" fill="#a78bfa" font-size="12" font-weight="600" opacity="0.92">Guardrails</text>
<text x="474.924" y="463.6" fill="#a78bfa" font-size="12" font-weight="600" opacity="0.92">Humanize Prose</text>
<text x="741.185" y="559.6" fill="#a78bfa" font-size="12" font-weight="600" opacity="0.92">Knowledge Graph Construction</text>
<text x="471.006" y="441.5" fill="#a78bfa" font-size="12" font-weight="600" opacity="0.92">Knowledge Harvest</text>
<text x="470.029" y="426.1" fill="#a78bfa" font-size="12" font-weight="600" opacity="0.92">Literature Review</text>
<text x="471.835" y="398.1" fill="#a78bfa" font-size="12" font-weight="600" opacity="0.92">ML Pipeline</text>
<text x="476.478" y="376.5" fill="#a78bfa" font-size="12" font-weight="600" opacity="0.92">Multi-Agent Debate</text>
<text x="722.625" y="571.6" fill="#a78bfa" font-size="12" font-weight="600" opacity="0.92">Multimodal Reasoning</text>
<text x="481.681" y="361.1" fill="#a78bfa" font-size="12" font-weight="600" opacity="0.92">PRD Generation</text>
<text x="493.581" y="336.6" fill="#a78bfa" font-size="12" font-weight="600" opacity="0.92">Plan and Execute</text>
<text x="504.182" y="320.8" fill="#a78bfa" font-size="12" font-weight="600" opacity="0.92">Prediction Market Analysis</text>
<text x="519.889" y="302.7" fill="#a78bfa" font-size="12" font-weight="600" opacity="0.92">Prompt Optimization</text>
<text x="708.301" y="578.7" fill="#a78bfa" font-size="12" font-weight="600" opacity="0.92">RAG Pipeline</text>
<text x="680.431" y="588.1" fill="#a78bfa" font-size="12" font-weight="600" opacity="0.92">ReAct Reasoning</text>
<text x="535.199" y="289.1" fill="#a78bfa" font-size="12" font-weight="600" opacity="0.92">Registry Curation</text>
<text x="680.629" y="257.9" fill="#a78bfa" font-size="12" font-weight="600" opacity="0.92">Release Automation</text>
<text x="660.1" y="591.8" fill="#a78bfa" font-size="12" font-weight="600" opacity="0.92">Research</text>
<text x="637.379" y="593.0" fill="#a78bfa" font-size="12" font-weight="600" opacity="0.92">Scientific Writing</text>
<text x="708.25" y="267.3" fill="#a78bfa" font-size="12" font-weight="600" opacity="0.92">Security Audit</text>
<text x="620.016" y="591.8" fill="#a78bfa" font-size="12" font-weight="600" opacity="0.92">Text-to-SQL Pipeline</text>
<text x="597.41" y="587.6" fill="#a78bfa" font-size="12" font-weight="600" opacity="0.92">Tool Chaining</text>
<text x="555.044" y="275.8" fill="#a78bfa" font-size="12" font-weight="600" opacity="0.92">Tool Creation</text>
<text x="572.552" y="579.0" fill="#a78bfa" font-size="12" font-weight="600" opacity="0.92">Translation Pipeline</text>
<text x="573.485" y="266.6" fill="#a78bfa" font-size="12" font-weight="600" opacity="0.92">Tree of Thought</text>
<text x="552.258" y="568.6" fill="#a78bfa" font-size="12" font-weight="600" opacity="0.92">Vertical Slice Planning</text>
<text x="535.685" y="557.2" fill="#a78bfa" font-size="12" font-weight="600" opacity="0.92">Voice Agent</text>
<text x="519.392" y="542.8" fill="#a78bfa" font-size="12" font-weight="600" opacity="0.92">Web Scrape</text>
<text x="597.115" y="258.5" fill="#a78bfa" font-size="12" font-weight="600" opacity="0.92">Wiki Search</text>
<text x="616.003" y="254.7" fill="#a78bfa" font-size="12" font-weight="600" opacity="0.92">Workflow Automation</text>
<text x="644.037" y="364.2" fill="#fbbf24" font-size="16" font-weight="800" opacity="0.92">Autonomous Data Scientist</text>
<text x="602.416" y="379.2" fill="#fbbf24" font-size="16" font-weight="800" opacity="0.92">Autonomous Research Agent</text>
<text x="678.526" y="380.2" fill="#fbbf24" font-size="16" font-weight="800" opacity="0.92">Autonomous Scientific Discovery</text>
<text x="692.13" y="432.1" fill="#fbbf24" font-size="16" font-weight="800" opacity="0.92">Full-Stack Developer</text>
<text x="661.846" y="467.4" fill="#fbbf24" font-size="16" font-weight="800" opacity="0.92">Multi-Agent Orchestration</text>
<text x="618.356" y="467.5" fill="#fbbf24" font-size="16" font-weight="800" opacity="0.92">Real-Time Voice Assistant</text>
<text x="586.445" y="424.9" fill="#fbbf24" font-size="16" font-weight="800" opacity="0.92">Recursive Self-Improvement</text>
</g>
<g font-family="Inter, ui-sans-serif, system-ui, sans-serif" font-size="14" fill="#cbd5e1">
<text x="44" y="748" font-size="20" font-weight="800" fill="#e2e8f0">Gaia Skill Graph</text>
<circle cx="52" cy="765" r="6" fill="#38bdf8"/>
<text x="68" y="770">Basic: 73</text>
<circle cx="52" cy="793" r="6" fill="#a78bfa"/>
<text x="68" y="798">Extra: 48</text>
<circle cx="52" cy="821" r="6" fill="#fbbf24"/>
<text x="68" y="826">Ultimate: 7</text>
</g>
</svg>
