<?xml version="1.0" encoding="UTF-8"?>
<svg xmlns="http://www.w3.org/2000/svg" width="1280" height="880" viewBox="0 0 1280 880" role="img" aria-labelledby="title desc">
<title id="title">Gaia AI Agent Skill Graph</title>
<desc id="desc">Canonical Gaia skill graph rendered from graph/gaia.json, with atomic skills on the outer ring, composite skills in the middle ring, and legendary skills at the core.</desc>
<defs>
<radialGradient id="bg" cx="50%" cy="45%" r="70%"><stop offset="0%" stop-color="#172554"/><stop offset="55%" stop-color="#06111f"/><stop offset="100%" stop-color="#030712"/></radialGradient>
<filter id="glow" x="-50%" y="-50%" width="200%" height="200%"><feGaussianBlur stdDeviation="4" result="blur"/><feMerge><feMergeNode in="blur"/><feMergeNode in="SourceGraphic"/></feMerge></filter>
</defs>
<rect width="1280" height="880" fill="url(#bg)"/>
<g opacity="0.32" stroke="#334155" stroke-width="1" fill="none">
<circle cx="640.0" cy="440.0" r="285"/>
<circle cx="640.0" cy="440.0" r="170"/>
<circle cx="640.0" cy="440.0" r="54"/>
</g>
<g class="edges" fill="none">
<line x1="726.228" y1="711.643" x2="472.811" y2="470.786" stroke="#a78bfa" stroke-opacity="0.32" stroke-width="1.15"/>
<line x1="924.817" y1="450.212" x2="472.811" y2="470.786" stroke="#a78bfa" stroke-opacity="0.32" stroke-width="1.15"/>
<line x1="908.043" y1="343.16" x2="472.811" y2="470.786" stroke="#a78bfa" stroke-opacity="0.32" stroke-width="1.15"/>
<line x1="726.228" y1="711.643" x2="573.679" y2="596.529" stroke="#a78bfa" stroke-opacity="0.32" stroke-width="1.15"/>
<line x1="814.664" y1="665.205" x2="573.679" y2="596.529" stroke="#a78bfa" stroke-opacity="0.32" stroke-width="1.15"/>
<line x1="706.181" y1="162.791" x2="573.679" y2="596.529" stroke="#a78bfa" stroke-opacity="0.32" stroke-width="1.15"/>
<line x1="573.679" y1="596.529" x2="470.068" y2="435.176" stroke="#a78bfa" stroke-opacity="0.32" stroke-width="1.15"/>
<line x1="694.832" y1="719.676" x2="470.068" y2="435.176" stroke="#a78bfa" stroke-opacity="0.32" stroke-width="1.15"/>
<line x1="639.871" y1="155.0" x2="470.068" y2="435.176" stroke="#a78bfa" stroke-opacity="0.32" stroke-width="1.15"/>
<line x1="775.586" y1="189.318" x2="675.261" y2="273.697" stroke="#a78bfa" stroke-opacity="0.32" stroke-width="1.15"/>
<line x1="896.617" y1="316.013" x2="675.261" y2="273.697" stroke="#a78bfa" stroke-opacity="0.32" stroke-width="1.15"/>
<line x1="857.617" y1="255.968" x2="675.261" y2="273.697" stroke="#a78bfa" stroke-opacity="0.32" stroke-width="1.15"/>
<line x1="869.48" y1="609.009" x2="699.719" y2="599.165" stroke="#a78bfa" stroke-opacity="0.32" stroke-width="1.15"/>
<line x1="912.455" y1="523.626" x2="699.719" y2="599.165" stroke="#a78bfa" stroke-opacity="0.32" stroke-width="1.15"/>
<line x1="755.935" y1="700.354" x2="699.719" y2="599.165" stroke="#a78bfa" stroke-opacity="0.32" stroke-width="1.15"/>
<line x1="472.811" y1="470.786" x2="480.692" y2="380.662" stroke="#a78bfa" stroke-opacity="0.32" stroke-width="1.15"/>
<line x1="908.043" y1="343.16" x2="480.692" y2="380.662" stroke="#a78bfa" stroke-opacity="0.32" stroke-width="1.15"/>
<line x1="833.488" y1="230.745" x2="480.692" y2="380.662" stroke="#a78bfa" stroke-opacity="0.32" stroke-width="1.15"/>
<line x1="884.344" y1="586.701" x2="668.007" y2="607.677" stroke="#a78bfa" stroke-opacity="0.32" stroke-width="1.15"/>
<line x1="669.531" y1="156.534" x2="668.007" y2="607.677" stroke="#a78bfa" stroke-opacity="0.32" stroke-width="1.15"/>
<line x1="833.488" y1="230.745" x2="668.007" y2="607.677" stroke="#a78bfa" stroke-opacity="0.32" stroke-width="1.15"/>
<line x1="846.352" y1="636.581" x2="668.007" y2="607.677" stroke="#a78bfa" stroke-opacity="0.32" stroke-width="1.15"/>
<line x1="921.317" y1="485.67" x2="807.243" y2="470.491" stroke="#a78bfa" stroke-opacity="0.32" stroke-width="1.15"/>
<line x1="908.043" y1="343.16" x2="807.243" y2="470.491" stroke="#a78bfa" stroke-opacity="0.32" stroke-width="1.15"/>
<line x1="814.664" y1="665.205" x2="807.243" y2="470.491" stroke="#a78bfa" stroke-opacity="0.32" stroke-width="1.15"/>
<line x1="919.345" y1="383.51" x2="807.243" y2="470.491" stroke="#a78bfa" stroke-opacity="0.32" stroke-width="1.15"/>
<line x1="675.261" y1="273.697" x2="586.445" y2="446.917" stroke="#fbbf24" stroke-opacity="0.32" stroke-width="1.15"/>
<line x1="880.347" y1="286.839" x2="586.445" y2="446.917" stroke="#fbbf24" stroke-opacity="0.32" stroke-width="1.15"/>
<line x1="699.719" y1="599.165" x2="586.445" y2="446.917" stroke="#fbbf24" stroke-opacity="0.32" stroke-width="1.15"/>
<line x1="699.719" y1="599.165" x2="641.744" y2="386.028" stroke="#fbbf24" stroke-opacity="0.32" stroke-width="1.15"/>
<line x1="869.48" y1="609.009" x2="641.744" y2="386.028" stroke="#fbbf24" stroke-opacity="0.32" stroke-width="1.15"/>
<line x1="755.935" y1="700.354" x2="641.744" y2="386.028" stroke="#fbbf24" stroke-opacity="0.32" stroke-width="1.15"/>
<line x1="573.679" y1="596.529" x2="602.416" y2="401.226" stroke="#fbbf24" stroke-opacity="0.32" stroke-width="1.15"/>
<line x1="480.692" y1="380.662" x2="602.416" y2="401.226" stroke="#fbbf24" stroke-opacity="0.32" stroke-width="1.15"/>
<line x1="470.068" y1="435.176" x2="602.416" y2="401.226" stroke="#fbbf24" stroke-opacity="0.32" stroke-width="1.15"/>
<line x1="362.001" y1="377.218" x2="802.008" y2="388.488" stroke="#a78bfa" stroke-opacity="0.32" stroke-width="1.15"/>
<line x1="355.283" y1="452.687" x2="802.008" y2="388.488" stroke="#a78bfa" stroke-opacity="0.32" stroke-width="1.15"/>
<line x1="869.48" y1="609.009" x2="802.008" y2="388.488" stroke="#a78bfa" stroke-opacity="0.32" stroke-width="1.15"/>
<line x1="457.252" y1="658.697" x2="543.56" y2="579.998" stroke="#a78bfa" stroke-opacity="0.32" stroke-width="1.15"/>
<line x1="921.317" y1="485.67" x2="543.56" y2="579.998" stroke="#a78bfa" stroke-opacity="0.32" stroke-width="1.15"/>
<line x1="919.345" y1="383.51" x2="543.56" y2="579.998" stroke="#a78bfa" stroke-opacity="0.32" stroke-width="1.15"/>
<line x1="775.586" y1="189.318" x2="756.499" y2="316.193" stroke="#a78bfa" stroke-opacity="0.32" stroke-width="1.15"/>
<line x1="801.446" y1="205.138" x2="756.499" y2="316.193" stroke="#a78bfa" stroke-opacity="0.32" stroke-width="1.15"/>
<line x1="880.347" y1="286.839" x2="756.499" y2="316.193" stroke="#a78bfa" stroke-opacity="0.32" stroke-width="1.15"/>
<line x1="457.252" y1="658.697" x2="809.763" y2="431.025" stroke="#a78bfa" stroke-opacity="0.32" stroke-width="1.15"/>
<line x1="525.113" y1="700.818" x2="809.763" y2="431.025" stroke="#a78bfa" stroke-opacity="0.32" stroke-width="1.15"/>
<line x1="814.664" y1="665.205" x2="809.763" y2="431.025" stroke="#a78bfa" stroke-opacity="0.32" stroke-width="1.15"/>
<line x1="424.056" y1="254.008" x2="485.338" y2="510.566" stroke="#a78bfa" stroke-opacity="0.32" stroke-width="1.15"/>
<line x1="362.001" y1="377.218" x2="485.338" y2="510.566" stroke="#a78bfa" stroke-opacity="0.32" stroke-width="1.15"/>
<line x1="474.857" y1="207.723" x2="485.338" y2="510.566" stroke="#a78bfa" stroke-opacity="0.32" stroke-width="1.15"/>
<line x1="436.225" y1="639.25" x2="646.89" y2="270.14" stroke="#a78bfa" stroke-opacity="0.32" stroke-width="1.15"/>
<line x1="896.617" y1="316.013" x2="646.89" y2="270.14" stroke="#a78bfa" stroke-opacity="0.32" stroke-width="1.15"/>
<line x1="857.617" y1="255.968" x2="646.89" y2="270.14" stroke="#a78bfa" stroke-opacity="0.32" stroke-width="1.15"/>
<line x1="748.26" y1="176.363" x2="779.7" y2="343.13" stroke="#a78bfa" stroke-opacity="0.32" stroke-width="1.15"/>
<line x1="399.712" y1="286.746" x2="779.7" y2="343.13" stroke="#a78bfa" stroke-opacity="0.32" stroke-width="1.15"/>
<line x1="908.043" y1="343.16" x2="779.7" y2="343.13" stroke="#a78bfa" stroke-opacity="0.32" stroke-width="1.15"/>
<line x1="393.904" y1="583.742" x2="735.636" y2="580.548" stroke="#a78bfa" stroke-opacity="0.32" stroke-width="1.15"/>
<line x1="362.001" y1="377.218" x2="735.636" y2="580.548" stroke="#a78bfa" stroke-opacity="0.32" stroke-width="1.15"/>
<line x1="365.797" y1="517.703" x2="735.636" y2="580.548" stroke="#a78bfa" stroke-opacity="0.32" stroke-width="1.15"/>
<line x1="540.821" y1="172.814" x2="505.891" y2="544.473" stroke="#a78bfa" stroke-opacity="0.32" stroke-width="1.15"/>
<line x1="399.712" y1="286.746" x2="505.891" y2="544.473" stroke="#a78bfa" stroke-opacity="0.32" stroke-width="1.15"/>
<line x1="639.871" y1="155.0" x2="505.891" y2="544.473" stroke="#a78bfa" stroke-opacity="0.32" stroke-width="1.15"/>
<line x1="356.103" y1="414.95" x2="793.283" y2="513.514" stroke="#a78bfa" stroke-opacity="0.32" stroke-width="1.15"/>
<line x1="908.043" y1="343.16" x2="793.283" y2="513.514" stroke="#a78bfa" stroke-opacity="0.32" stroke-width="1.15"/>
<line x1="919.345" y1="383.51" x2="793.283" y2="513.514" stroke="#a78bfa" stroke-opacity="0.32" stroke-width="1.15"/>
<line x1="756.499" y1="316.193" x2="683.517" y2="408.027" stroke="#fbbf24" stroke-opacity="0.32" stroke-width="1.15"/>
<line x1="646.89" y1="270.14" x2="683.517" y2="408.027" stroke="#fbbf24" stroke-opacity="0.32" stroke-width="1.15"/>
<line x1="369.399" y1="350.557" x2="683.517" y2="408.027" stroke="#fbbf24" stroke-opacity="0.32" stroke-width="1.15"/>
<line x1="809.763" y1="431.025" x2="612.998" y2="486.764" stroke="#fbbf24" stroke-opacity="0.32" stroke-width="1.15"/>
<line x1="357.772" y1="479.65" x2="612.998" y2="486.764" stroke="#fbbf24" stroke-opacity="0.32" stroke-width="1.15"/>
<line x1="573.679" y1="596.529" x2="612.998" y2="486.764" stroke="#fbbf24" stroke-opacity="0.32" stroke-width="1.15"/>
<line x1="485.338" y1="510.566" x2="665.184" y2="487.768" stroke="#fbbf24" stroke-opacity="0.32" stroke-width="1.15"/>
<line x1="355.283" y1="452.687" x2="665.184" y2="487.768" stroke="#fbbf24" stroke-opacity="0.32" stroke-width="1.15"/>
<line x1="699.719" y1="599.165" x2="665.184" y2="487.768" stroke="#fbbf24" stroke-opacity="0.32" stroke-width="1.15"/>
<line x1="573.679" y1="596.529" x2="521.324" y2="318.279" stroke="#a78bfa" stroke-opacity="0.32" stroke-width="1.15"/>
<line x1="775.586" y1="189.318" x2="521.324" y2="318.279" stroke="#a78bfa" stroke-opacity="0.32" stroke-width="1.15"/>
<line x1="896.617" y1="316.013" x2="521.324" y2="318.279" stroke="#a78bfa" stroke-opacity="0.32" stroke-width="1.15"/>
<line x1="912.455" y1="523.626" x2="611.698" y2="607.627" stroke="#a78bfa" stroke-opacity="0.32" stroke-width="1.15"/>
<line x1="506.838" y1="188.022" x2="611.698" y2="607.627" stroke="#a78bfa" stroke-opacity="0.32" stroke-width="1.15"/>
<line x1="726.228" y1="711.643" x2="718.493" y2="289.206" stroke="#a78bfa" stroke-opacity="0.32" stroke-width="1.15"/>
<line x1="558.626" y1="713.136" x2="718.493" y2="289.206" stroke="#a78bfa" stroke-opacity="0.32" stroke-width="1.15"/>
<line x1="908.043" y1="343.16" x2="767.386" y2="552.574" stroke="#a78bfa" stroke-opacity="0.32" stroke-width="1.15"/>
<line x1="365.797" y1="517.703" x2="767.386" y2="552.574" stroke="#a78bfa" stroke-opacity="0.32" stroke-width="1.15"/>
<line x1="411.165" y1="609.881" x2="693.604" y2="446.529" stroke="#fbbf24" stroke-opacity="0.32" stroke-width="1.15"/>
<line x1="573.679" y1="596.529" x2="693.604" y2="446.529" stroke="#fbbf24" stroke-opacity="0.32" stroke-width="1.15"/>
<line x1="357.772" y1="479.65" x2="693.604" y2="446.529" stroke="#fbbf24" stroke-opacity="0.32" stroke-width="1.15"/>
<line x1="617.641" y1="724.122" x2="594.788" y2="276.122" stroke="#a78bfa" stroke-opacity="0.32" stroke-width="1.15"/>
<line x1="912.455" y1="523.626" x2="594.788" y2="276.122" stroke="#a78bfa" stroke-opacity="0.32" stroke-width="1.15"/>
<line x1="880.347" y1="286.839" x2="496.605" y2="348.688" stroke="#a78bfa" stroke-opacity="0.32" stroke-width="1.15"/>
<line x1="923.742" y1="413.256" x2="496.605" y2="348.688" stroke="#a78bfa" stroke-opacity="0.32" stroke-width="1.15"/>
<line x1="775.586" y1="189.318" x2="558.187" y2="290.981" stroke="#a78bfa" stroke-opacity="0.32" stroke-width="1.15"/>
<line x1="506.838" y1="188.022" x2="558.187" y2="290.981" stroke="#a78bfa" stroke-opacity="0.32" stroke-width="1.15"/>
</g>
<g class="nodes" filter="url(#glow)">
<circle cx="657.256" cy="724.477" r="6" fill="#38bdf8" stroke="#7dd3fc" stroke-width="1.6"><title>API Call</title></circle>
<circle cx="639.871" cy="155.0" r="6" fill="#38bdf8" stroke="#7dd3fc" stroke-width="1.6"><title>Audience Model</title></circle>
<circle cx="617.641" cy="724.122" r="6" fill="#38bdf8" stroke="#7dd3fc" stroke-width="1.6"><title>Chain-of-Thought Reasoning</title></circle>
<circle cx="669.531" cy="156.534" r="6" fill="#38bdf8" stroke="#7dd3fc" stroke-width="1.6"><title>Chunk Document</title></circle>
<circle cx="706.181" cy="162.791" r="6" fill="#38bdf8" stroke="#7dd3fc" stroke-width="1.6"><title>Cite Sources</title></circle>
<circle cx="748.26" cy="176.363" r="6" fill="#38bdf8" stroke="#7dd3fc" stroke-width="1.6"><title>Classify</title></circle>
<circle cx="592.261" cy="720.973" r="6" fill="#38bdf8" stroke="#7dd3fc" stroke-width="1.6"><title>Code Execution</title></circle>
<circle cx="775.586" cy="189.318" r="6" fill="#38bdf8" stroke="#7dd3fc" stroke-width="1.6"><title>Code Generation</title></circle>
<circle cx="558.626" cy="713.136" r="6" fill="#38bdf8" stroke="#7dd3fc" stroke-width="1.6"><title>Computer Use</title></circle>
<circle cx="525.113" cy="700.818" r="6" fill="#38bdf8" stroke="#7dd3fc" stroke-width="1.6"><title>Data Visualize</title></circle>
<circle cx="485.502" cy="679.49" r="6" fill="#38bdf8" stroke="#7dd3fc" stroke-width="1.6"><title>Detect Anomaly</title></circle>
<circle cx="801.446" cy="205.138" r="6" fill="#38bdf8" stroke="#7dd3fc" stroke-width="1.6"><title>Diff Content</title></circle>
<circle cx="833.488" cy="230.745" r="6" fill="#38bdf8" stroke="#7dd3fc" stroke-width="1.6"><title>Embed Text</title></circle>
<circle cx="857.617" cy="255.968" r="6" fill="#38bdf8" stroke="#7dd3fc" stroke-width="1.6"><title>Error Interpretation</title></circle>
<circle cx="880.347" cy="286.839" r="6" fill="#38bdf8" stroke="#7dd3fc" stroke-width="1.6"><title>Evaluate Output</title></circle>
<circle cx="896.617" cy="316.013" r="6" fill="#38bdf8" stroke="#7dd3fc" stroke-width="1.6"><title>Execute Bash</title></circle>
<circle cx="908.043" cy="343.16" r="6" fill="#38bdf8" stroke="#7dd3fc" stroke-width="1.6"><title>Extract Entities</title></circle>
<circle cx="572.393" cy="163.135" r="6" fill="#38bdf8" stroke="#7dd3fc" stroke-width="1.6"><title>Few-Shot Learning</title></circle>
<circle cx="919.345" cy="383.51" r="6" fill="#38bdf8" stroke="#7dd3fc" stroke-width="1.6"><title>Format Output</title></circle>
<circle cx="457.252" cy="658.697" r="6" fill="#38bdf8" stroke="#7dd3fc" stroke-width="1.6"><title>Generate SQL</title></circle>
<circle cx="436.225" cy="639.25" r="6" fill="#38bdf8" stroke="#7dd3fc" stroke-width="1.6"><title>Generate Test</title></circle>
<circle cx="923.742" cy="413.256" r="6" fill="#38bdf8" stroke="#7dd3fc" stroke-width="1.6"><title>Generate Text</title></circle>
<circle cx="411.165" cy="609.881" r="6" fill="#38bdf8" stroke="#7dd3fc" stroke-width="1.6"><title>Hypothesis Generation</title></circle>
<circle cx="393.904" cy="583.742" r="6" fill="#38bdf8" stroke="#7dd3fc" stroke-width="1.6"><title>Image Caption</title></circle>
<circle cx="376.584" cy="548.798" r="6" fill="#38bdf8" stroke="#7dd3fc" stroke-width="1.6"><title>Image Generate</title></circle>
<circle cx="365.797" cy="517.703" r="6" fill="#38bdf8" stroke="#7dd3fc" stroke-width="1.6"><title>Logical Inference</title></circle>
<circle cx="357.772" cy="479.65" r="6" fill="#38bdf8" stroke="#7dd3fc" stroke-width="1.6"><title>Math Reason</title></circle>
<circle cx="355.283" cy="452.687" r="6" fill="#38bdf8" stroke="#7dd3fc" stroke-width="1.6"><title>Memory Manage</title></circle>
<circle cx="924.817" cy="450.212" r="6" fill="#38bdf8" stroke="#7dd3fc" stroke-width="1.6"><title>Parse HTML</title></circle>
<circle cx="921.317" cy="485.67" r="6" fill="#38bdf8" stroke="#7dd3fc" stroke-width="1.6"><title>Parse JSON</title></circle>
<circle cx="356.103" cy="414.95" r="6" fill="#38bdf8" stroke="#7dd3fc" stroke-width="1.6"><title>Parse PDF</title></circle>
<circle cx="912.455" cy="523.626" r="6" fill="#38bdf8" stroke="#7dd3fc" stroke-width="1.6"><title>Plan and Decompose</title></circle>
<circle cx="362.001" cy="377.218" r="6" fill="#38bdf8" stroke="#7dd3fc" stroke-width="1.6"><title>Question Answer</title></circle>
<circle cx="904.476" cy="546.195" r="6" fill="#38bdf8" stroke="#7dd3fc" stroke-width="1.6"><title>Rank</title></circle>
<circle cx="369.399" cy="350.557" r="6" fill="#38bdf8" stroke="#7dd3fc" stroke-width="1.6"><title>Refactor Code</title></circle>
<circle cx="884.344" cy="586.701" r="6" fill="#38bdf8" stroke="#7dd3fc" stroke-width="1.6"><title>Retrieve</title></circle>
<circle cx="869.48" cy="609.009" r="6" fill="#38bdf8" stroke="#7dd3fc" stroke-width="1.6"><title>Route Intent</title></circle>
<circle cx="846.352" cy="636.581" r="6" fill="#38bdf8" stroke="#7dd3fc" stroke-width="1.6"><title>Score Relevance</title></circle>
<circle cx="606.011" cy="157.034" r="6" fill="#38bdf8" stroke="#7dd3fc" stroke-width="1.6"><title>Self-Consistency</title></circle>
<circle cx="385.367" cy="311.989" r="6" fill="#38bdf8" stroke="#7dd3fc" stroke-width="1.6"><title>Self-Critique</title></circle>
<circle cx="399.712" cy="286.746" r="6" fill="#38bdf8" stroke="#7dd3fc" stroke-width="1.6"><title>Sentiment Analysis</title></circle>
<circle cx="424.056" cy="254.008" r="6" fill="#38bdf8" stroke="#7dd3fc" stroke-width="1.6"><title>Speech to Text</title></circle>
<circle cx="448.302" cy="229.104" r="6" fill="#38bdf8" stroke="#7dd3fc" stroke-width="1.6"><title>Structured Output Generation</title></circle>
<circle cx="814.664" cy="665.205" r="6" fill="#38bdf8" stroke="#7dd3fc" stroke-width="1.6"><title>Summarize</title></circle>
<circle cx="474.857" cy="207.723" r="6" fill="#38bdf8" stroke="#7dd3fc" stroke-width="1.6"><title>Text to Speech</title></circle>
<circle cx="785.655" cy="684.969" r="6" fill="#38bdf8" stroke="#7dd3fc" stroke-width="1.6"><title>Tokenize</title></circle>
<circle cx="755.935" cy="700.354" r="6" fill="#38bdf8" stroke="#7dd3fc" stroke-width="1.6"><title>Tool Select</title></circle>
<circle cx="506.838" cy="188.022" r="6" fill="#38bdf8" stroke="#7dd3fc" stroke-width="1.6"><title>Tool Use</title></circle>
<circle cx="540.821" cy="172.814" r="6" fill="#38bdf8" stroke="#7dd3fc" stroke-width="1.6"><title>Translate</title></circle>
<circle cx="726.228" cy="711.643" r="6" fill="#38bdf8" stroke="#7dd3fc" stroke-width="1.6"><title>Web Search</title></circle>
<circle cx="694.832" cy="719.676" r="6" fill="#38bdf8" stroke="#7dd3fc" stroke-width="1.6"><title>Write Report</title></circle>
<circle cx="646.89" cy="270.14" r="10" fill="#a78bfa" stroke="#c4b5fd" stroke-width="1.6"><title>Automated Testing</title></circle>
<circle cx="675.261" cy="273.697" r="10" fill="#a78bfa" stroke="#c4b5fd" stroke-width="1.6"><title>Autonomous Debug</title></circle>
<circle cx="718.493" cy="289.206" r="10" fill="#a78bfa" stroke="#c4b5fd" stroke-width="1.6"><title>Browser Automation</title></circle>
<circle cx="756.499" cy="316.193" r="10" fill="#a78bfa" stroke="#c4b5fd" stroke-width="1.6"><title>Code Review Pipeline</title></circle>
<circle cx="779.7" cy="343.13" r="10" fill="#a78bfa" stroke="#c4b5fd" stroke-width="1.6"><title>Content Moderation</title></circle>
<circle cx="802.008" cy="388.488" r="10" fill="#a78bfa" stroke="#c4b5fd" stroke-width="1.6"><title>Conversational Agent</title></circle>
<circle cx="809.763" cy="431.025" r="10" fill="#a78bfa" stroke="#c4b5fd" stroke-width="1.6"><title>Data Analysis</title></circle>
<circle cx="807.243" cy="470.491" r="10" fill="#a78bfa" stroke="#c4b5fd" stroke-width="1.6"><title>Document Analyst</title></circle>
<circle cx="793.283" cy="513.514" r="10" fill="#a78bfa" stroke="#c4b5fd" stroke-width="1.6"><title>Document Digitization</title></circle>
<circle cx="470.068" cy="435.176" r="10" fill="#a78bfa" stroke="#c4b5fd" stroke-width="1.6"><title>Ghostwrite</title></circle>
<circle cx="767.386" cy="552.574" r="10" fill="#a78bfa" stroke="#c4b5fd" stroke-width="1.6"><title>Knowledge Graph Construction</title></circle>
<circle cx="480.692" cy="380.662" r="10" fill="#a78bfa" stroke="#c4b5fd" stroke-width="1.6"><title>Knowledge Harvest</title></circle>
<circle cx="735.636" cy="580.548" r="10" fill="#a78bfa" stroke="#c4b5fd" stroke-width="1.6"><title>Multimodal Reasoning</title></circle>
<circle cx="699.719" cy="599.165" r="10" fill="#a78bfa" stroke="#c4b5fd" stroke-width="1.6"><title>Plan and Execute</title></circle>
<circle cx="496.605" cy="348.688" r="10" fill="#a78bfa" stroke="#c4b5fd" stroke-width="1.6"><title>Prompt Optimization</title></circle>
<circle cx="668.007" cy="607.677" r="10" fill="#a78bfa" stroke="#c4b5fd" stroke-width="1.6"><title>RAG Pipeline</title></circle>
<circle cx="611.698" cy="607.627" r="10" fill="#a78bfa" stroke="#c4b5fd" stroke-width="1.6"><title>ReAct Reasoning</title></circle>
<circle cx="521.324" cy="318.279" r="10" fill="#a78bfa" stroke="#c4b5fd" stroke-width="1.6"><title>Registry Curation</title></circle>
<circle cx="573.679" cy="596.529" r="10" fill="#a78bfa" stroke="#c4b5fd" stroke-width="1.6"><title>Research</title></circle>
<circle cx="543.56" cy="579.998" r="10" fill="#a78bfa" stroke="#c4b5fd" stroke-width="1.6"><title>Text-to-SQL Pipeline</title></circle>
<circle cx="558.187" cy="290.981" r="10" fill="#a78bfa" stroke="#c4b5fd" stroke-width="1.6"><title>Tool Creation</title></circle>
<circle cx="505.891" cy="544.473" r="10" fill="#a78bfa" stroke="#c4b5fd" stroke-width="1.6"><title>Translation Pipeline</title></circle>
<circle cx="594.788" cy="276.122" r="10" fill="#a78bfa" stroke="#c4b5fd" stroke-width="1.6"><title>Tree of Thought</title></circle>
<circle cx="485.338" cy="510.566" r="10" fill="#a78bfa" stroke="#c4b5fd" stroke-width="1.6"><title>Voice Agent</title></circle>
<circle cx="472.811" cy="470.786" r="10" fill="#a78bfa" stroke="#c4b5fd" stroke-width="1.6"><title>Web Scrape</title></circle>
<circle cx="641.744" cy="386.028" r="15" fill="#fbbf24" stroke="#fde68a" stroke-width="1.6"><title>Grand Conductor: Multi-Agent Orchestration</title></circle>
<circle cx="683.517" cy="408.027" r="15" fill="#fbbf24" stroke="#fde68a" stroke-width="1.6"><title>True Craftsman: Full-Stack Developer</title></circle>
<circle cx="693.604" cy="446.529" r="15" fill="#fbbf24" stroke="#fde68a" stroke-width="1.6"><title>True Dragon: Autonomous Scientific Discovery</title></circle>
<circle cx="665.184" cy="487.768" r="15" fill="#fbbf24" stroke="#fde68a" stroke-width="1.6"><title>True Herald: Real-Time Voice Assistant</title></circle>
<circle cx="612.998" cy="486.764" r="15" fill="#fbbf24" stroke="#fde68a" stroke-width="1.6"><title>True Oracle: Autonomous Data Scientist</title></circle>
<circle cx="586.445" cy="446.917" r="15" fill="#fbbf24" stroke="#fde68a" stroke-width="1.6"><title>True Sage: Recursive Self-Improvement</title></circle>
<circle cx="602.416" cy="401.226" r="15" fill="#fbbf24" stroke="#fde68a" stroke-width="1.6"><title>Wisdom King: Autonomous Research Agent</title></circle>
</g>
<g class="labels" font-family="Inter, ui-sans-serif, system-ui, sans-serif" text-anchor="middle">
<text x="639.871" y="142.0" fill="#38bdf8" font-size="10" font-weight="600" opacity="0.92">Audience Model</text>
<text x="592.261" y="708.0" fill="#38bdf8" font-size="10" font-weight="600" opacity="0.92">Code Execution</text>
<text x="775.586" y="176.3" fill="#38bdf8" font-size="10" font-weight="600" opacity="0.92">Code Generation</text>
<text x="457.252" y="645.7" fill="#38bdf8" font-size="10" font-weight="600" opacity="0.92">Generate SQL</text>
<text x="436.225" y="626.2" fill="#38bdf8" font-size="10" font-weight="600" opacity="0.92">Generate Test</text>
<text x="411.165" y="596.9" fill="#38bdf8" font-size="10" font-weight="600" opacity="0.92">Hypothesis Generation</text>
<text x="904.476" y="533.2" fill="#38bdf8" font-size="10" font-weight="600" opacity="0.92">Rank</text>
<text x="399.712" y="273.7" fill="#38bdf8" font-size="10" font-weight="600" opacity="0.92">Sentiment Analysis</text>
<text x="506.838" y="175.0" fill="#38bdf8" font-size="10" font-weight="600" opacity="0.92">Tool Use</text>
<text x="694.832" y="706.7" fill="#38bdf8" font-size="10" font-weight="600" opacity="0.92">Write Report</text>
<text x="646.89" y="253.1" fill="#a78bfa" font-size="12" font-weight="600" opacity="0.92">Automated Testing</text>
<text x="675.261" y="256.7" fill="#a78bfa" font-size="12" font-weight="600" opacity="0.92">Autonomous Debug</text>
<text x="718.493" y="272.2" fill="#a78bfa" font-size="12" font-weight="600" opacity="0.92">Browser Automation</text>
<text x="756.499" y="299.2" fill="#a78bfa" font-size="12" font-weight="600" opacity="0.92">Code Review Pipeline</text>
<text x="779.7" y="326.1" fill="#a78bfa" font-size="12" font-weight="600" opacity="0.92">Content Moderation</text>
<text x="802.008" y="371.5" fill="#a78bfa" font-size="12" font-weight="600" opacity="0.92">Conversational Agent</text>
<text x="809.763" y="414.0" fill="#a78bfa" font-size="12" font-weight="600" opacity="0.92">Data Analysis</text>
<text x="807.243" y="453.5" fill="#a78bfa" font-size="12" font-weight="600" opacity="0.92">Document Analyst</text>
<text x="793.283" y="496.5" fill="#a78bfa" font-size="12" font-weight="600" opacity="0.92">Document Digitization</text>
<text x="470.068" y="418.2" fill="#a78bfa" font-size="12" font-weight="600" opacity="0.92">Ghostwrite</text>
<text x="767.386" y="535.6" fill="#a78bfa" font-size="12" font-weight="600" opacity="0.92">Knowledge Graph Construction</text>
<text x="480.692" y="363.7" fill="#a78bfa" font-size="12" font-weight="600" opacity="0.92">Knowledge Harvest</text>
<text x="735.636" y="563.5" fill="#a78bfa" font-size="12" font-weight="600" opacity="0.92">Multimodal Reasoning</text>
<text x="699.719" y="582.2" fill="#a78bfa" font-size="12" font-weight="600" opacity="0.92">Plan and Execute</text>
<text x="496.605" y="331.7" fill="#a78bfa" font-size="12" font-weight="600" opacity="0.92">Prompt Optimization</text>
<text x="668.007" y="590.7" fill="#a78bfa" font-size="12" font-weight="600" opacity="0.92">RAG Pipeline</text>
<text x="611.698" y="590.6" fill="#a78bfa" font-size="12" font-weight="600" opacity="0.92">ReAct Reasoning</text>
<text x="521.324" y="301.3" fill="#a78bfa" font-size="12" font-weight="600" opacity="0.92">Registry Curation</text>
<text x="573.679" y="579.5" fill="#a78bfa" font-size="12" font-weight="600" opacity="0.92">Research</text>
<text x="543.56" y="563.0" fill="#a78bfa" font-size="12" font-weight="600" opacity="0.92">Text-to-SQL Pipeline</text>
<text x="558.187" y="274.0" fill="#a78bfa" font-size="12" font-weight="600" opacity="0.92">Tool Creation</text>
<text x="505.891" y="527.5" fill="#a78bfa" font-size="12" font-weight="600" opacity="0.92">Translation Pipeline</text>
<text x="594.788" y="259.1" fill="#a78bfa" font-size="12" font-weight="600" opacity="0.92">Tree of Thought</text>
<text x="485.338" y="493.6" fill="#a78bfa" font-size="12" font-weight="600" opacity="0.92">Voice Agent</text>
<text x="472.811" y="453.8" fill="#a78bfa" font-size="12" font-weight="600" opacity="0.92">Web Scrape</text>
<text x="641.744" y="364.0" fill="#fbbf24" font-size="16" font-weight="800" opacity="0.92">Grand Conductor: Multi-Agent Orchestration</text>
<text x="683.517" y="386.0" fill="#fbbf24" font-size="16" font-weight="800" opacity="0.92">True Craftsman: Full-Stack Developer</text>
<text x="693.604" y="424.5" fill="#fbbf24" font-size="16" font-weight="800" opacity="0.92">True Dragon: Autonomous Scientific Discovery</text>
<text x="665.184" y="465.8" fill="#fbbf24" font-size="16" font-weight="800" opacity="0.92">True Herald: Real-Time Voice Assistant</text>
<text x="612.998" y="464.8" fill="#fbbf24" font-size="16" font-weight="800" opacity="0.92">True Oracle: Autonomous Data Scientist</text>
<text x="586.445" y="424.9" fill="#fbbf24" font-size="16" font-weight="800" opacity="0.92">True Sage: Recursive Self-Improvement</text>
<text x="602.416" y="379.2" fill="#fbbf24" font-size="16" font-weight="800" opacity="0.92">Wisdom King: Autonomous Research Agent</text>
</g>
<g font-family="Inter, ui-sans-serif, system-ui, sans-serif" font-size="14" fill="#cbd5e1">
<text x="44" y="748" font-size="20" font-weight="800" fill="#e2e8f0">Gaia Skill Graph</text>
<circle cx="52" cy="765" r="6" fill="#38bdf8"/>
<text x="68" y="770">Atomic: 51</text>
<circle cx="52" cy="793" r="6" fill="#a78bfa"/>
<text x="68" y="798">Composite: 25</text>
<circle cx="52" cy="821" r="6" fill="#fbbf24"/>
<text x="68" y="826">Legendary: 7</text>
</g>
</svg>
